<svg id="SvgjsSvg1295" width="288" height="288" xmlns="http://www.w3.org/2000/svg" version="1.1" xmlns:xlink="http://www.w3.org/1999/xlink" xmlns:svgjs="http://svgjs.com/svgjs"><defs id="SvgjsDefs1296"></defs><g id="SvgjsG1297"><svg xmlns="http://www.w3.org/2000/svg" viewBox="0 0 4.233 4.233" width="288" height="288"><g transform="translate(-19.473 -2.292)"><path fill="none" stroke="#f00000" stroke-linecap="round" stroke-linejoin="round" stroke-width=".265" d="M22.717849 3.4200446c0 .4037405-.327297.7310366-.731037.7310363-.40374-2e-7-.731036-.3272962-.731036-.7310363 0-.4037401.327296-.7310362.731036-.7310363.40374-4e-7.731037.3272958.731037.7310363zM21.900286 4.7100031c-.631391.024888-1.236384.3225208-1.236384.8928995 0 .5114391.446158.5260659 1.322911.5260661.876753 2e-7 1.322917-.014626 1.322917-.526066M21.037663 4.1346739c-.329424-.070989-.576305-.3639782-.576305-.7146293 0-.3509206.24726-.6440904.577064-.7147926M20.608767 4.7906633c-.418334.1260547-.739283.3968011-.739283.8122393 0 .284002.137576.414808.410064.4749833" paint-order="markers fill stroke" class="colorStroke000 svgStroke"></path><path fill="none" stroke="#f00000" stroke-linecap="round" stroke-linejoin="round" stroke-width=".265" d="M21.382416 5.9964885V5.6105617M22.668651 5.9964885V5.6105617" paint-order="markers fill stroke" transform="translate(-.039)" class="colorStroke000 svgStroke"></path><path fill="none" stroke="#f00000" stroke-linecap="round" stroke-linejoin="round" stroke-width=".265" d="M22.554076 5.0604197L23.181224 4.4332723M22.554076 4.4332716l.627148.6271485" paint-order="markers fill stroke" class="colorStroke000 svgStroke"></path></g></svg></g></svg>