<svg width="159" height="200" viewBox="0 0 159 200" fill="none" xmlns="http://www.w3.org/2000/svg">
<path d="M111.114 95.9122C96.25 104.764 78.1178 94.3344 78.9697 94.153C107.069 88.0432 109.552 70.316 109.552 70.316C103.942 56.6094 88.651 61.0219 88.651 61.0219C88.2085 80.473 65.0574 81.5684 65.0574 81.5684C63.5704 75.2573 63.6522 60.5218 63.6522 60.5218C56.6352 55.6159 55.2146 57.6982 55.2146 57.6982C57.4275 38.2249 66.3387 31.947 66.3387 31.947C67.8235 30.564 74.4599 27.4549 77.8677 27.0522L77.9894 27.5921C77.9894 27.5921 74.544 36.1957 81.1472 36.7622C86.7037 37.2491 89.8615 30.4091 90.7223 28.2383C97.9473 30.4777 104.843 35.4898 109.43 43.9209C120.282 63.8677 111.114 95.9122 111.114 95.9122Z" fill="#245789"/>
<path d="M112.72 87.5187L148.837 111.418C155.84 116.051 154.94 126.598 147.259 129.977L104.993 148.578C101.062 150.308 96.7527 150.997 92.4788 150.578C88.2049 150.16 84.1104 148.649 80.5895 146.191L64.3581 134.843" stroke="#183A5C" stroke-width="0.93041" stroke-miterlimit="10"/>
<path d="M112.72 95.2257L111.506 94.4203L148.843 119.12C155.847 123.754 154.946 134.301 147.265 137.68L105 156.281C101.069 158.01 96.7594 158.699 92.4855 158.281C88.2115 157.863 84.1171 156.352 80.5962 153.893L59.959 139.195" stroke="#183A5C" stroke-width="0.93041" stroke-miterlimit="10"/>
<path d="M144.15 128.658L105.303 145.757C101.69 147.346 97.7297 147.979 93.8019 147.594C89.8741 147.21 86.1113 145.821 82.8754 143.562L67.9894 133.104C70.039 131.533 72.3357 130.314 74.7852 129.497C80.9215 127.413 86.9099 124.916 92.7094 122.024C97.1119 119.846 100.979 116.723 104.035 112.877C107.09 109.032 109.259 104.559 110.386 99.7781C111.165 96.4698 111.849 93.124 112.408 89.7604L146.597 112.36C153.032 116.618 151.207 125.556 144.15 128.658Z" fill="#3C91E5"/>
<path d="M44.0506 178.213C44.0506 178.213 50.8618 175.39 52.1674 173.261C52.1674 173.261 52.413 178.094 51.1384 179.744C49.8638 181.395 42.2471 185.759 41.8377 185.212C41.4284 184.666 44.0506 178.213 44.0506 178.213Z" fill="#3C91E5"/>
<path d="M23.0837 189.729C23.0837 189.729 24.3229 191.411 28.7199 189.729C33.1168 188.047 42.6831 181.853 42.6831 181.853C42.6831 181.853 40.0144 189.019 39.0473 189.806C38.0803 190.594 19.8109 199.543 19.8109 199.543C19.8109 199.543 11.6432 200.705 14.7213 194.896L23.0837 189.729Z" fill="#3C91E5"/>
<path d="M49.377 96.107C39.3084 100.026 28.6535 109.234 31.7183 134.733L32.5702 141.358" stroke="#183A5C" stroke-width="0.93041" stroke-miterlimit="10"/>
<path d="M49.3615 79.4548C51.0079 77.1048 52.4949 74.5644 53.4066 71.8293C54.3183 69.0942 54.3648 66.1312 54.6193 63.2544C55.2964 55.5404 56.3453 49.1607 59.3216 41.9755C61.8996 35.7573 69.6867 27.7467 77.4339 26.9877L78.131 26.928" stroke="#183A5C" stroke-width="0.93041" stroke-miterlimit="10"/>
<path d="M68.8348 95.5424C68.7972 95.434 68.7595 95.3322 68.7197 95.226" stroke="#183A5C" stroke-width="0.93041" stroke-miterlimit="10"/>
<path d="M65.0574 81.0902C64.6768 78.853 64.3935 76.6844 64.1722 74.6264C64.1729 74.5877 64.1685 74.549 64.159 74.5114C62.9994 63.0199 64.1722 54.6597 64.1722 54.6597" stroke="#183A5C" stroke-width="0.93041" stroke-miterlimit="10"/>
<path d="M92.123 11.3453L90.3527 12.0359C90.3527 12.0912 90.3527 12.7816 90.2774 13.7486C90.1951 14.9035 90.0114 16.0489 89.7286 17.1719C89.8857 16.4063 90.1137 14.5873 89.1135 13.3215C89.098 13.2956 89.0803 13.2711 89.0604 13.2485C88.3965 12.4497 87.5777 12.7661 86.9205 13.3149C86.4666 13.6988 86.0703 14.146 85.7433 14.6426C85.8579 13.1642 85.5928 11.6811 84.9732 10.334C84.5691 9.41513 84.0332 8.56008 83.3821 7.79588C84.3846 11.248 83.0989 13.5074 83.0989 13.5074C79.7021 14.3063 77.3454 14.1359 75.5884 13.8327C74.108 12.4519 74.6214 7.47944 74.6214 7.47944C73.1321 8.69652 73.4906 13.4056 73.4906 13.4056C73.3005 12.1768 73.3238 10.9243 73.5592 9.70338C72.8194 10.7496 72.3921 11.9843 72.3266 13.264L72.3001 13.2507C72.1974 13.2244 72.0963 13.1925 71.9969 13.1556C71.8146 13.0595 71.638 12.9531 71.468 12.8369L70.4877 12.173C71.9682 4.62042 77.1441 -0.128399 85.1414 1.26571C85.6634 1.35568 86.1772 1.48892 86.6771 1.66402C91.9459 4.41019 92.123 11.3453 92.123 11.3453Z" fill="#3C91E5"/>
<path d="M46.4848 84.9006L44.4688 78.833C44.4241 78.6918 44.3443 78.5641 44.2367 78.4623C44.1289 78.3605 43.9973 78.2877 43.8537 78.251C43.836 78.251 43.816 78.251 43.7961 78.2377C43.7762 78.2244 43.7718 78.2377 43.7585 78.2377C43.712 78.2346 43.6656 78.2346 43.6191 78.2377C43.3954 78.2386 43.1805 78.3238 43.0172 78.4767C42.8534 78.6278 42.7229 78.8113 42.6333 79.0155C42.5439 79.2195 42.4974 79.4399 42.4972 79.6628C42.4974 79.8372 42.5251 80.0104 42.579 80.1762C43.0216 81.4574 43.8094 83.7699 44.1834 84.8232" fill="#3C91E5"/>
<path d="M46.0289 84.9008L43.8559 78.2512C43.8382 78.2512 43.8183 78.2512 43.7983 78.2379C43.7784 78.2246 43.774 78.2379 43.7607 78.2379L42.6211 78.0166C42.0126 77.9037 41.404 77.782 40.7955 77.6692C40.0652 77.5231 39.3306 77.4014 38.6025 77.2266C38.4306 77.1779 38.254 77.1483 38.0759 77.1381C37.8515 77.1374 37.6357 77.2239 37.474 77.3793C37.3089 77.5302 37.1772 77.7143 37.0876 77.9195C36.998 78.1244 36.9526 78.3461 36.9539 78.5698C36.9528 78.7422 36.9805 78.9135 37.0358 79.0766C37.5249 80.5105 38.4565 83.2235 38.753 84.0467L46.0289 84.9008Z" fill="#3C91E5"/>
<path d="M88.994 54.6573C88.7727 57.1202 88.6576 60.1009 88.5802 63.8473C88.5802 71.8136 79.773 78.4102 71.9461 79.9194L57.5934 83.1612C55.697 83.5286 54.0174 82.3447 52.6985 81.5591C51.342 80.7514 49.9524 79.7888 48.9743 79.0741C47.5669 78.0451 44.8561 78.8727 45.4116 81.3268C45.5313 81.7935 45.7572 82.2261 46.0714 82.5912C46.3859 82.9561 46.7802 83.2438 47.2239 83.4312C47.4737 83.5434 47.7311 83.6379 47.994 83.7144C48.092 83.739 48.179 83.7952 48.2416 83.8744C48.3044 83.9534 48.3392 84.051 48.3407 84.1519C48.3423 84.2528 48.3104 84.3515 48.25 84.4325C48.1898 84.5135 48.1044 84.5721 48.0072 84.5996C46.7636 85.0289 44.4866 85.2834 40.8132 83.9357C36.1064 82.2031 35.7413 92.9443 42.1763 94.8142H42.2007C48.129 96.6066 54.5087 96.3765 60.6361 96.1198C67.594 95.8562 74.5179 95.0116 81.3353 93.5949C84.8028 92.8602 88.3655 92.0968 91.5388 90.5279C97.0046 87.826 100.943 84.7279 104.69 79.9061C108.894 74.5001 110.689 67.4078 111.702 60.7581C112.862 53.1503 111.26 46.7263 107.182 40.1785L107.031 39.9395" stroke="#183A5C" stroke-width="0.93041" stroke-miterlimit="10"/>
<path d="M46.4848 84.9006L44.4688 78.833C44.4241 78.6918 44.3443 78.5641 44.2367 78.4623C44.1289 78.3605 43.9973 78.2877 43.8537 78.251C43.836 78.251 43.816 78.251 43.7961 78.2377C43.7762 78.2244 43.7718 78.2377 43.7585 78.2377C43.712 78.2346 43.6656 78.2346 43.6191 78.2377C43.3954 78.2386 43.1805 78.3238 43.0172 78.4767C42.8534 78.6278 42.7229 78.8113 42.6333 79.0155C42.5439 79.2195 42.4974 79.4399 42.4972 79.6628C42.4974 79.8372 42.5251 80.0104 42.579 80.1762C43.0216 81.4574 43.8094 83.7699 44.1834 84.8232" stroke="#183A5C" stroke-width="0.93041" stroke-miterlimit="10"/>
<path d="M43.8559 78.2512C43.8382 78.2512 43.8183 78.2512 43.7983 78.2379C43.7784 78.2246 43.774 78.2379 43.7607 78.2379L42.6211 78.0166C42.0126 77.9037 41.404 77.782 40.7955 77.6692C40.0652 77.5231 39.3306 77.4014 38.6025 77.2266C38.4306 77.1779 38.254 77.1483 38.0759 77.1381C37.8515 77.1374 37.6357 77.2239 37.474 77.3793C37.3089 77.5302 37.1772 77.7143 37.0876 77.9195C36.998 78.1244 36.9526 78.3461 36.9539 78.5698C36.9528 78.7422 36.9805 78.9135 37.0358 79.0766C37.5249 80.5105 38.4565 83.2235 38.753 84.0467" stroke="#183A5C" stroke-width="0.93041" stroke-miterlimit="10"/>
<path d="M71.6385 13.0462C71.6385 15.9229 72.1983 18.6735 73.5791 21.2139C74.6856 23.2542 76.3098 25.3099 78.6333 25.9849C79.1483 26.1333 79.6818 26.2079 80.2178 26.2061C84.1611 26.1884 84.7763 21.5171 84.7763 21.5171" stroke="#183A5C" stroke-width="0.93041" stroke-miterlimit="10"/>
<path d="M90.1447 14.7154V14.7286C89.9619 16.1559 89.6479 17.5635 89.2064 18.9331C88.6791 20.5669 88.5545 22.304 88.8435 23.9961L89.4565 27.5611C89.4843 27.72 89.5565 27.8678 89.6645 27.9875C89.7725 28.1072 89.9121 28.1942 90.0672 28.2382C97.8477 30.4975 104.754 35.4831 108.773 42.6816C113.785 51.6703 114.699 62.4956 114.294 72.5863C113.937 81.3338 112.523 90.0304 110.516 98.5433C109.29 103.746 106.929 108.614 103.603 112.799C100.278 116.984 96.0689 120.384 91.2776 122.754C84.9727 125.903 78.4616 128.619 71.7889 130.887C68.2567 132.056 65.0295 133.999 62.342 136.572C59.6544 139.145 57.5741 142.285 56.2524 145.764L40.572 187.459C39.9957 188.998 38.8592 190.262 37.3899 190.999L22.3645 198.547C20.4672 199.497 18.3028 199.772 16.2282 199.326C15.6905 199.21 15.1999 198.935 14.8208 198.536C14.4415 198.137 14.1913 197.634 14.1025 197.091C14.0136 196.547 14.0904 195.99 14.3227 195.491C14.5551 194.993 14.9321 194.576 15.405 194.294L23.0792 189.729L33.6324 135.93C34.3751 131.13 36.1484 126.548 38.8304 122.499C41.5122 118.45 45.0393 115.03 49.169 112.473C49.7195 112.138 50.2933 111.842 50.8862 111.588L73.7628 101.655" stroke="#183A5C" stroke-width="0.93041" stroke-miterlimit="10"/>
<path d="M83.8557 0.74583C82.6326 0.454351 81.3667 0.389845 80.1204 0.555523C80.0693 0.556651 80.0184 0.561099 79.9677 0.5688" stroke="#183A5C" stroke-width="0.93041" stroke-miterlimit="10"/>
<path d="M78.3147 27.058C78.3147 27.058 74.2674 36.3366 81.5056 36.7946C88.0004 37.2107 90.3837 28.3857 90.3837 28.3857" stroke="#183A5C" stroke-width="0.93041" stroke-miterlimit="10"/>
<path d="M89.6357 17.5097C89.6822 17.3393 90.3793 14.8233 89.0471 13.2389C87.715 11.6545 85.9093 14.3719 85.7278 14.6441C86.0819 10.7429 83.3711 7.78429 83.3711 7.78429C84.3713 11.2386 83.0834 13.4956 83.0834 13.4956C78.1332 14.6551 75.4092 13.7722 73.4774 13.3916C73.2873 12.1634 73.3114 10.9118 73.5482 9.69179C72.8064 10.7353 72.3787 11.9692 72.3156 13.2478H72.2846C71.5493 13.0524 70.852 12.7344 70.2222 12.3073L69.2419 11.6434C70.7245 4.09323 75.8982 -0.660014 83.8955 0.734093C91.8928 2.1282 92.1164 11.3249 92.1164 11.3249L90.335 12.0174C90.335 12.0174 90.3505 15.0535 89.6357 17.5097Z" stroke="#183A5C" stroke-width="0.93041" stroke-miterlimit="10"/>
<path d="M74.7409 17.1159V20.7871C74.7411 20.8318 74.7519 20.8758 74.7725 20.9154C74.7929 20.9553 74.8223 20.9896 74.8586 21.0159C74.8947 21.0422 74.9365 21.0595 74.9807 21.0668C75.0248 21.0739 75.0699 21.0706 75.1126 21.0571C75.4014 20.9615 75.6667 20.8061 75.8916 20.6012" stroke="#183A5C" stroke-width="0.93041" stroke-miterlimit="10"/>
<path d="M72.5455 19.9032C73.7035 19.4517 74.1335 17.7806 73.5057 16.1705C72.8779 14.5604 71.4302 13.6213 70.2722 14.0727C69.1142 14.5241 68.6845 16.1953 69.3121 17.8054C69.9399 19.4155 71.3875 20.3546 72.5455 19.9032Z" stroke="#183A5C" stroke-width="0.93041" stroke-miterlimit="10"/>
<path d="M79.5138 20.9534C80.6718 20.5019 81.1018 18.8308 80.474 17.2207C79.8462 15.6106 78.3988 14.6715 77.2408 15.1229C76.0825 15.5743 75.6528 17.2455 76.2806 18.8556C76.9082 20.4656 78.3558 21.4048 79.5138 20.9534Z" stroke="#183A5C" stroke-width="0.93041" stroke-miterlimit="10"/>
<path d="M73.7673 17.3061C73.7673 17.3061 74.4533 16.5227 75.8916 17.441" stroke="#183A5C" stroke-width="0.93041" stroke-miterlimit="10"/>
<path d="M77.9894 25.7531C77.9894 25.7531 78.4873 27.4393 79.9522 32.9051" stroke="#183A5C" stroke-width="0.93041" stroke-miterlimit="10"/>
<path d="M41.3133 185.489L49.9435 180.83C50.4381 180.562 50.8596 180.177 51.1717 179.709C51.4837 179.241 51.6766 178.704 51.7337 178.144C53.1677 164.059 52.7295 155.155 52.7295 155.155" stroke="#183A5C" stroke-width="0.93041" stroke-miterlimit="10"/>
<path d="M33.4798 113.256L0.266825 90.0454" stroke="#183A5C" stroke-width="0.93041" stroke-miterlimit="10"/>
<path d="M31.5988 119.652L0.266825 97.7532" stroke="#183A5C" stroke-width="0.93041" stroke-miterlimit="10"/>
<path d="M158.646 75.5341V94.536C158.646 95.4072 158.393 96.2598 157.918 96.99C157.442 97.7203 156.765 98.297 155.969 98.6497L132.402 109.086L125.197 120.035C125.011 120.306 124.744 120.512 124.434 120.621C124.124 120.731 123.787 120.739 123.472 120.645C123.158 120.551 122.881 120.359 122.682 120.097C122.484 119.834 122.374 119.516 122.368 119.187V113.531L119.952 114.6C119.415 114.835 118.827 114.933 118.242 114.885C117.658 114.836 117.094 114.644 116.603 114.324C116.111 114.004 115.706 113.567 115.425 113.052C115.145 112.537 114.996 111.96 114.993 111.374V95.5052C114.993 93.526 115.572 91.59 116.659 89.9356C117.745 88.2811 119.291 86.9803 121.107 86.1934L153.495 72.1528C154.055 71.9094 154.668 71.8091 155.277 71.8616C155.886 71.9138 156.473 72.1167 156.984 72.4522C157.494 72.7877 157.914 73.2451 158.204 73.783C158.495 74.321 158.646 74.9226 158.646 75.5341Z" fill="#8ABDEF"/>
<path d="M129.737 100.37C130.898 98.1308 130.583 95.6648 129.035 94.8622C127.487 94.0596 125.29 95.2245 124.129 97.4639C122.969 99.7035 123.283 102.17 124.831 102.972C126.38 103.775 128.576 102.61 129.737 100.37Z" fill="white"/>
<path d="M139.802 96.0622C140.962 93.8225 140.648 91.3565 139.1 90.5539C137.552 89.7513 135.355 90.9161 134.194 93.1556C133.034 95.3952 133.348 97.8612 134.896 98.6638C136.445 99.4664 138.641 98.3016 139.802 96.0622Z" fill="white"/>
<path d="M149.528 91.4099C150.689 89.1705 150.375 86.7042 148.826 85.9019C147.278 85.0993 145.082 86.2641 143.921 88.5035C142.76 90.743 143.074 93.2092 144.623 94.0118C146.171 94.8142 148.367 93.6493 149.528 91.4099Z" fill="white"/>
</svg>
