<svg width="68" height="62" viewBox="0 0 68 62" fill="none" xmlns="http://www.w3.org/2000/svg">
<path d="M34.0002 43.8462C39.4378 43.8462 43.8458 39.4382 43.8458 34.0006C43.8458 28.5631 39.4378 24.155 34.0002 24.155C28.5627 24.155 24.1547 28.5631 24.1547 34.0006C24.1547 39.4382 28.5627 43.8462 34.0002 43.8462Z" stroke="#63A7EA" stroke-width="2.35999"/>
<path opacity="0.5" d="M26.7078 60.2551H41.2923C51.535 60.2551 56.658 60.2551 60.3369 57.843C61.9243 56.8025 63.2915 55.4599 64.3605 53.8916C66.8186 50.2816 66.8186 45.2505 66.8186 35.1949C66.8186 25.136 66.8186 20.1082 64.3605 16.4982C63.2915 14.9298 61.9244 13.5872 60.3369 12.5469C57.974 10.9945 55.0137 10.4399 50.4815 10.243C48.3188 10.243 46.458 8.63488 46.0346 6.55091C45.7111 5.02442 44.8704 3.65643 43.6548 2.67816C42.4391 1.69989 40.923 1.17132 39.3626 1.1818H28.6375C25.395 1.1818 22.6022 3.42987 21.9655 6.55091C21.5421 8.63488 19.6813 10.243 17.5186 10.243C12.9896 10.4399 10.0294 10.9978 7.66318 12.5469C6.0768 13.5874 4.71074 14.93 3.64291 16.4982C1.18152 20.1082 1.18152 25.136 1.18152 35.1949C1.18152 45.2505 1.18152 50.2783 3.63963 53.8916C4.70295 55.4538 6.0682 56.7961 7.66318 57.843C11.3421 60.2551 16.4651 60.2551 26.7078 60.2551Z" stroke="#63A7EA" stroke-width="2.35999"/>
<path d="M56.9732 24.155H53.6913" stroke="#63A7EA" stroke-width="2.35999" stroke-linecap="round"/>
</svg>
