<svg width="30" height="30" viewBox="0 0 30 30" fill="none" xmlns="http://www.w3.org/2000/svg">
<g clip-path="url(#clip0_0_241)">
<path d="M7.67498 14.825L4.19998 18.3125C3.96248 18.5625 3.96248 18.95 4.19998 19.2L7.67498 22.6875C8.06248 23.0875 8.73748 22.8 8.73748 22.25V20H16.25C16.9375 20 17.5 19.4375 17.5 18.75C17.5 18.0625 16.9375 17.5 16.25 17.5H8.73748V15.2625C8.73748 14.7 8.06248 14.425 7.67498 14.825ZM25.8125 10.8125L22.3375 7.32505C21.95 6.92505 21.275 7.21255 21.275 7.76255V10H13.75C13.0625 10 12.5 10.5625 12.5 11.25C12.5 11.9375 13.0625 12.5 13.75 12.5H21.2625V14.7375C21.2625 15.3 21.9375 15.575 22.325 15.175L25.8 11.6875C26.05 11.45 26.05 11.05 25.8125 10.8125Z" fill="#5BBA96"/>
</g>
<defs>
<clipPath id="clip0_0_241">
<rect width="30" height="30" fill="white"/>
</clipPath>
</defs>
</svg>
