<svg width="16" height="16" viewBox="0 0 16 16" fill="none" xmlns="http://www.w3.org/2000/svg">
<path d="M1.99996 15.6666C1.81572 15.6666 1.66663 15.5173 1.66663 15.3333V0.666585C1.66663 0.482502 1.81572 0.333252 1.99996 0.333252C2.1842 0.333252 2.33329 0.482502 2.33329 0.666585V15.3333C2.33329 15.5173 2.1842 15.6666 1.99996 15.6666Z" fill="#C2C0C3"/>
<path d="M2.83325 4.1665V2.1665H4.83325V4.1665H2.83325Z" fill="#342E37" stroke="#858287"/>
<path d="M8.33325 1.6665H5.33325V4.6665H8.33325V1.6665Z" fill="#F3F2F3"/>
<path d="M8.83325 4.1665V2.1665H10.8333V4.1665H8.83325Z" fill="#342E37" stroke="#858287"/>
<path d="M14.3333 1.6665H11.3333V4.6665H14.3333V1.6665Z" fill="#F3F2F3"/>
<path d="M5.33325 4.6665H2.33325V7.6665H5.33325V4.6665Z" fill="#F3F2F3"/>
<path d="M5.83325 7.1665V5.1665H7.83325V7.1665H5.83325Z" fill="#342E37" stroke="#858287"/>
<path d="M11.3333 4.6665H8.33325V7.6665H11.3333V4.6665Z" fill="#F3F2F3"/>
<path d="M11.8333 7.1665V5.1665H13.8333V7.1665H11.8333Z" fill="#342E37" stroke="#858287"/>
<path d="M2.83325 10.1665V8.1665H4.83325V10.1665H2.83325Z" fill="#342E37" stroke="#858287"/>
<path d="M8.33325 7.6665H5.33325V10.6665H8.33325V7.6665Z" fill="#F3F2F3"/>
<path d="M8.83325 10.1665V8.1665H10.8333V10.1665H8.83325Z" fill="#342E37" stroke="#858287"/>
<path d="M14.3333 7.6665H11.3333V10.6665H14.3333V7.6665Z" fill="#F3F2F3"/>
</svg>
