<svg width="40" height="40" viewBox="0 0 40 40" fill="none" xmlns="http://www.w3.org/2000/svg">
<g clip-path="url(#clip0_0_192)">
<path d="M36.6667 20.0002C36.6667 10.8002 29.2 3.3335 20 3.3335C10.8 3.3335 3.33337 10.8002 3.33337 20.0002C3.33337 29.2002 10.8 36.6668 20 36.6668C29.2 36.6668 36.6667 29.2002 36.6667 20.0002ZM25 10.8335L30.25 16.0835C30.5834 16.4168 30.5834 16.9335 30.25 17.2668L25 22.5002V18.3335H18.3334V15.0002H25V10.8335ZM15 29.1668L9.75004 23.9168C9.41671 23.5835 9.41671 23.0668 9.75004 22.7335L15 17.5002V21.6668H21.6667V25.0002H15V29.1668Z" fill="#AEABAF"/>
</g>
<defs>
<clipPath id="clip0_0_192">
<rect width="40" height="40" fill="white"/>
</clipPath>
</defs>
</svg>
