<svg width="40" height="40" viewBox="0 0 40 40" fill="none" xmlns="http://www.w3.org/2000/svg">
<g clip-path="url(#clip0_0_274)">
<path d="M25.8333 19.1667C25.8333 22.5 21.6666 25 21.6666 27.5H18.3333C18.3333 25 14.1666 22.5 14.1666 19.1667C14.1666 15.95 16.7833 13.3333 20 13.3333C23.2166 13.3333 25.8333 15.95 25.8333 19.1667ZM21.6666 29.1667H18.3333V30C18.3333 30.9167 19.0833 31.6667 20 31.6667C20.9166 31.6667 21.6666 30.9167 21.6666 30V29.1667ZM36.6666 20C36.6666 15.9 35.1833 12.15 32.7333 9.25001C32.25 8.68334 31.4 8.61667 30.8666 9.15001C30.4166 9.60001 30.3666 10.3333 30.7666 10.8167C32.8833 13.2833 34.1666 16.5 34.1666 20C34.1666 23.5 32.8833 26.7167 30.7666 29.2C30.35 29.6833 30.4166 30.4167 30.8666 30.8667C31.4 31.4 32.25 31.3333 32.7333 30.7667C35.1833 27.85 36.6666 24.1 36.6666 20ZM5.83331 20C5.83331 16.5 7.11665 13.2833 9.23331 10.8C9.64998 10.3167 9.58331 9.58334 9.13331 9.13334C8.61665 8.61667 7.74998 8.66667 7.26665 9.23334C4.81665 12.15 3.33331 15.9 3.33331 20C3.33331 24.1 4.81665 27.85 7.26665 30.7667C7.74998 31.3333 8.59998 31.4 9.13331 30.8667C9.58331 30.4167 9.63331 29.6833 9.23331 29.2C7.11665 26.7167 5.83331 23.5 5.83331 20ZM29.1666 20C29.1666 22.1333 28.4333 24.1167 27.2 25.6833C26.8166 26.1667 26.8666 26.8667 27.3166 27.3167C27.85 27.85 28.7333 27.8 29.2 27.2C30.7333 25.2167 31.6666 22.7167 31.6666 20C31.6666 17.2833 30.7333 14.7833 29.1833 12.8167C28.7166 12.2167 27.8333 12.1667 27.3 12.7C26.8666 13.1333 26.8 13.8333 27.1833 14.3333C28.4333 15.8833 29.1666 17.8667 29.1666 20ZM12.7 27.3C13.1333 26.8667 13.2 26.1667 12.8166 25.6667C11.5666 24.1167 10.8333 22.1333 10.8333 20C10.8333 17.8667 11.5666 15.8833 12.8 14.3167C13.1833 13.8333 13.1333 13.1333 12.6833 12.6833C12.1666 12.1667 11.2833 12.2167 10.8166 12.8C9.26665 14.7833 8.33331 17.2833 8.33331 20C8.33331 22.7167 9.26665 25.2167 10.8166 27.2C11.2833 27.7833 12.1666 27.8333 12.7 27.3Z" fill="#AEABAF"/>
</g>
<defs>
<clipPath id="clip0_0_274">
<rect width="40" height="40" fill="white"/>
</clipPath>
</defs>
</svg>
