<svg width="371" height="360" viewBox="0 0 371 360" fill="none" xmlns="http://www.w3.org/2000/svg">
<g opacity="0.38">
<g opacity="0.38">
<path opacity="0.38" d="M134.756 196.06L134.63 199.187H134.693V204.133H141.291V203.355L140.99 196.06H134.756Z" fill="#8ABDEF"/>
<path opacity="0.38" d="M131.704 186.707C133.501 188.586 134.583 191.036 134.76 193.631H140.998C141.151 191.267 142.062 189.015 143.594 187.209C144.653 185.986 145.963 185.007 147.435 184.337C148.907 183.666 150.506 183.321 152.123 183.325H154.03L154.398 174.311C154.494 172.789 154.275 171.265 153.757 169.832C153.238 168.398 152.429 167.087 151.381 165.98C150.334 164.873 149.07 163.993 147.667 163.396C146.265 162.798 144.755 162.496 143.231 162.508H132.54C131.017 162.494 129.508 162.795 128.106 163.39C126.705 163.985 125.441 164.862 124.393 165.967C123.345 167.072 122.536 168.381 122.015 169.812C121.495 171.243 121.275 172.766 121.368 174.286L121.736 183.325H123.651C125.151 183.323 126.636 183.621 128.019 184.202C129.402 184.783 130.655 185.634 131.704 186.707Z" fill="#8ABDEF"/>
<path opacity="0.38" d="M173.961 196.06L173.835 199.187H173.898V204.133H180.496V203.355L180.199 196.06H173.961Z" fill="#8ABDEF"/>
<path opacity="0.38" d="M170.904 186.707C172.699 188.588 173.78 191.037 173.961 193.631H180.203C180.356 191.267 181.267 189.015 182.799 187.209C183.859 185.987 185.169 185.008 186.64 184.337C188.112 183.667 189.711 183.321 191.328 183.325H193.239L193.603 174.311C193.699 172.79 193.48 171.265 192.962 169.832C192.443 168.4 191.635 167.089 190.588 165.982C189.541 164.875 188.277 163.994 186.875 163.397C185.473 162.799 183.964 162.496 182.44 162.508H171.724C170.202 162.494 168.693 162.795 167.292 163.39C165.89 163.984 164.626 164.862 163.579 165.966C162.531 167.07 161.721 168.378 161.201 169.809C160.68 171.239 160.46 172.762 160.552 174.281L160.924 183.321H162.835C164.338 183.317 165.827 183.615 167.213 184.197C168.599 184.779 169.854 185.632 170.904 186.707Z" fill="#8ABDEF"/>
<path opacity="0.38" d="M213.17 196.06L213.04 199.187H213.103V204.133H219.7V203.355L219.404 196.06H213.17Z" fill="#8ABDEF"/>
<path opacity="0.38" d="M210.109 186.707C211.907 188.586 212.989 191.036 213.166 193.631H219.399C219.561 191.266 220.477 189.015 222.013 187.209C223.072 185.987 224.382 185.008 225.854 184.337C227.326 183.667 228.924 183.321 230.542 183.325H232.465L232.829 174.311C232.924 172.79 232.706 171.265 232.188 169.832C231.669 168.4 230.861 167.089 229.814 165.982C228.766 164.875 227.503 163.994 226.101 163.397C224.699 162.799 223.189 162.496 221.665 162.508H210.933C209.41 162.494 207.901 162.795 206.499 163.39C205.098 163.985 203.834 164.862 202.786 165.967C201.738 167.072 200.929 168.381 200.408 169.812C199.888 171.243 199.668 172.766 199.761 174.286L200.129 183.325H202.04C203.543 183.321 205.031 183.618 206.417 184.199C207.803 184.78 209.058 185.633 210.109 186.707Z" fill="#8ABDEF"/>
<path opacity="0.38" d="M252.375 196.06L252.249 199.187H252.312V204.133H258.905V203.355L258.609 196.06H252.375Z" fill="#8ABDEF"/>
<path opacity="0.38" d="M249.314 186.707C251.112 188.586 252.194 191.036 252.371 193.631H258.609C258.764 191.266 259.678 189.014 261.213 187.209C262.272 185.986 263.582 185.007 265.054 184.337C266.526 183.666 268.125 183.321 269.742 183.325H271.649L272.017 174.311C272.113 172.789 271.894 171.265 271.376 169.832C270.857 168.398 270.048 167.087 269 165.98C267.953 164.873 266.689 163.993 265.286 163.396C263.884 162.798 262.374 162.496 260.85 162.508H250.138C248.615 162.494 247.106 162.795 245.704 163.39C244.303 163.985 243.039 164.862 241.991 165.967C240.943 167.072 240.134 168.381 239.613 169.812C239.093 171.243 238.873 172.766 238.966 174.286L239.334 183.325H241.245C242.748 183.32 244.236 183.617 245.622 184.199C247.008 184.779 248.264 185.632 249.314 186.707Z" fill="#8ABDEF"/>
<path opacity="0.38" d="M291.58 196.06L291.454 199.187H291.517V204.133H298.114V203.351L297.813 196.06H291.58Z" fill="#8ABDEF"/>
<path opacity="0.38" d="M288.519 186.707C290.317 188.586 291.399 191.036 291.575 193.631H297.813C297.969 191.266 298.883 189.014 300.418 187.209C301.477 185.986 302.787 185.007 304.259 184.337C305.731 183.666 307.33 183.321 308.947 183.325H310.858L311.222 174.311C311.318 172.79 311.099 171.265 310.581 169.832C310.062 168.4 309.254 167.089 308.207 165.982C307.16 164.875 305.896 163.994 304.494 163.397C303.092 162.799 301.583 162.496 300.059 162.508H289.326C287.803 162.494 286.294 162.795 284.893 163.39C283.491 163.985 282.227 164.862 281.179 165.967C280.131 167.072 279.322 168.381 278.801 169.812C278.281 171.243 278.061 172.766 278.155 174.286L278.527 183.325H280.437C281.942 183.319 283.433 183.615 284.822 184.196C286.21 184.777 287.467 185.631 288.519 186.707Z" fill="#8ABDEF"/>
<path opacity="0.38" d="M330.785 196.06L330.659 199.187H330.718V204.133H337.315V199.187H346.605C347.428 199.188 348.219 198.87 348.812 198.3C349.405 197.73 349.754 196.953 349.787 196.131L349.85 194.521C349.445 194.989 348.948 195.367 348.39 195.632C347.831 195.897 347.223 196.043 346.605 196.06H330.785Z" fill="#8ABDEF"/>
<path opacity="0.38" d="M327.728 186.706C329.526 188.585 330.608 191.036 330.785 193.63H346.605C347.427 193.63 348.217 193.312 348.81 192.743C349.402 192.175 349.752 191.399 349.787 190.578L350.443 174.306C350.539 172.785 350.321 171.261 349.803 169.828C349.284 168.395 348.476 167.084 347.429 165.977C346.381 164.87 345.117 163.99 343.716 163.392C342.314 162.795 340.804 162.492 339.28 162.503H328.552C327.029 162.489 325.519 162.788 324.117 163.383C322.715 163.977 321.45 164.855 320.402 165.96C319.354 167.065 318.545 168.374 318.025 169.806C317.505 171.237 317.285 172.76 317.38 174.281L317.757 183.32H319.667C321.169 183.318 322.656 183.617 324.04 184.198C325.425 184.78 326.678 185.633 327.728 186.706Z" fill="#8ABDEF"/>
<path opacity="0.38" d="M134.756 237.69L134.63 240.813H134.693V245.763H141.291V244.981L140.99 237.69H134.756Z" fill="#8ABDEF"/>
<path opacity="0.38" d="M131.704 228.332C133.501 230.213 134.583 232.664 134.76 235.26H140.998C141.153 232.893 142.066 230.638 143.603 228.83C144.663 227.609 145.974 226.631 147.445 225.961C148.917 225.291 150.515 224.945 152.132 224.945H154.038L154.406 215.931C154.502 214.411 154.283 212.886 153.764 211.453C153.244 210.021 152.436 208.71 151.388 207.604C150.341 206.497 149.077 205.618 147.675 205.021C146.273 204.423 144.763 204.121 143.239 204.133H132.54C131.017 204.12 129.508 204.42 128.106 205.015C126.705 205.61 125.441 206.488 124.393 207.592C123.345 208.697 122.536 210.006 122.015 211.437C121.495 212.868 121.275 214.391 121.368 215.911L121.736 224.945H123.651C125.151 224.945 126.636 225.244 128.019 225.826C129.402 226.408 130.655 227.26 131.704 228.332Z" fill="#8ABDEF"/>
<path opacity="0.38" d="M173.961 237.69L173.835 240.813H173.898V245.763H180.496V244.981L180.199 237.69H173.961Z" fill="#8ABDEF"/>
<path opacity="0.38" d="M170.904 228.332C172.698 230.215 173.779 232.666 173.961 235.26H180.203C180.358 232.893 181.271 230.638 182.808 228.83C183.868 227.609 185.179 226.631 186.65 225.961C188.122 225.291 189.72 224.945 191.337 224.945H193.247L193.611 215.931C193.707 214.411 193.488 212.887 192.969 211.455C192.45 210.022 191.642 208.712 190.595 207.605C189.548 206.499 188.284 205.619 186.882 205.022C185.481 204.424 183.972 204.122 182.448 204.133H171.724C170.201 204.12 168.692 204.42 167.29 205.015C165.889 205.61 164.625 206.488 163.577 207.592C162.529 208.697 161.72 210.006 161.199 211.437C160.679 212.868 160.459 214.391 160.552 215.911L160.924 224.945H162.835C164.338 224.945 165.826 225.244 167.211 225.825C168.597 226.407 169.852 227.259 170.904 228.332Z" fill="#8ABDEF"/>
<path opacity="0.38" d="M213.17 237.69L213.04 240.813H213.103V245.763H219.7V244.981L219.404 237.69H213.17Z" fill="#8ABDEF"/>
<path opacity="0.38" d="M210.109 228.332C211.907 230.213 212.988 232.664 213.166 235.26H219.399C219.56 232.892 220.476 230.639 222.013 228.83C223.073 227.609 224.384 226.631 225.855 225.961C227.327 225.291 228.925 224.945 230.542 224.945H232.465L232.829 215.931C232.924 214.411 232.705 212.887 232.186 211.455C231.667 210.022 230.859 208.712 229.812 207.605C228.765 206.499 227.501 205.619 226.1 205.022C224.698 204.424 223.189 204.122 221.665 204.133H210.933C209.41 204.12 207.901 204.42 206.499 205.015C205.098 205.61 203.834 206.488 202.786 207.592C201.738 208.697 200.929 210.006 200.408 211.437C199.888 212.868 199.668 214.391 199.761 215.911L200.129 224.945H202.04C203.543 224.945 205.031 225.244 206.416 225.825C207.802 226.407 209.057 227.259 210.109 228.332Z" fill="#8ABDEF"/>
<path opacity="0.38" d="M252.375 237.69L252.249 240.813H252.312V245.763H258.905V244.981L258.609 237.69H252.375Z" fill="#8ABDEF"/>
<path opacity="0.38" d="M249.314 228.332C251.112 230.213 252.193 232.664 252.371 235.26H258.609C258.763 232.893 259.677 230.638 261.213 228.83C262.274 227.609 263.584 226.631 265.056 225.961C266.527 225.291 268.126 224.945 269.742 224.945H271.649L272.017 215.931C272.112 214.411 271.894 212.886 271.374 211.453C270.855 210.021 270.046 208.71 268.999 207.604C267.951 206.497 266.687 205.618 265.285 205.021C263.883 204.423 262.374 204.121 260.85 204.133H250.138C248.615 204.12 247.106 204.42 245.704 205.015C244.303 205.61 243.039 206.488 241.991 207.592C240.943 208.697 240.134 210.006 239.613 211.437C239.093 212.868 238.873 214.391 238.966 215.911L239.334 224.945H241.245C242.748 224.943 244.236 225.241 245.622 225.823C247.008 226.405 248.263 227.258 249.314 228.332Z" fill="#8ABDEF"/>
<path opacity="0.38" d="M291.58 237.69L291.454 240.813H291.517V245.763H298.114V244.981L297.813 237.69H291.58Z" fill="#8ABDEF"/>
<path opacity="0.38" d="M288.519 228.332C290.317 230.213 291.398 232.664 291.575 235.26H297.813C297.968 232.893 298.882 230.638 300.418 228.83C301.479 227.609 302.789 226.631 304.26 225.961C305.732 225.291 307.331 224.945 308.947 224.945H310.858L311.222 215.931C311.317 214.411 311.098 212.887 310.58 211.455C310.06 210.022 309.252 208.712 308.205 207.605C307.158 206.499 305.894 205.619 304.493 205.022C303.092 204.424 301.582 204.122 300.059 204.133H289.326C287.803 204.12 286.294 204.42 284.893 205.015C283.491 205.61 282.227 206.488 281.179 207.592C280.131 208.697 279.322 210.006 278.801 211.437C278.281 212.868 278.061 214.391 278.155 215.911L278.527 224.945H280.437C281.942 224.941 283.433 225.239 284.821 225.821C286.209 226.402 287.467 227.256 288.519 228.332Z" fill="#8ABDEF"/>
<path opacity="0.38" d="M330.785 237.689L330.659 240.812H330.718V245.762H337.315V240.812H346.605C347.427 240.813 348.218 240.495 348.81 239.927C349.404 239.358 349.754 238.581 349.787 237.76L349.85 236.146C349.446 236.615 348.949 236.995 348.391 237.26C347.832 237.526 347.224 237.672 346.605 237.689H330.785Z" fill="#8ABDEF"/>
<path opacity="0.38" d="M327.728 228.332C329.526 230.213 330.607 232.665 330.785 235.26H346.605C347.427 235.259 348.217 234.94 348.81 234.371C349.402 233.801 349.752 233.025 349.787 232.204L350.443 215.932C350.539 214.411 350.32 212.887 349.801 211.455C349.282 210.022 348.474 208.712 347.427 207.605C346.38 206.499 345.116 205.619 343.715 205.022C342.313 204.424 340.804 204.122 339.28 204.133H328.552C327.029 204.118 325.519 204.418 324.117 205.013C322.715 205.607 321.45 206.485 320.402 207.59C319.354 208.695 318.545 210.004 318.025 211.436C317.505 212.867 317.285 214.391 317.38 215.911L317.748 224.946H319.659C321.162 224.945 322.65 225.244 324.035 225.825C325.421 226.407 326.676 227.259 327.728 228.332Z" fill="#8ABDEF"/>
<path opacity="0.38" d="M134.756 279.319L134.63 282.443H134.693V287.389H141.291V286.611L140.99 279.319H134.756Z" fill="#8ABDEF"/>
<path opacity="0.38" d="M131.704 269.962C133.501 271.841 134.583 274.292 134.76 276.886H140.998C141.153 274.52 142.066 272.266 143.603 270.46C144.663 269.239 145.974 268.261 147.445 267.591C148.917 266.921 150.515 266.574 152.132 266.576H154.038L154.406 257.562C154.502 256.041 154.283 254.516 153.764 253.084C153.244 251.651 152.436 250.341 151.388 249.234C150.341 248.127 149.077 247.248 147.675 246.651C146.273 246.053 144.763 245.751 143.239 245.763H132.54C131.017 245.75 129.508 246.05 128.106 246.645C126.705 247.24 125.441 248.118 124.393 249.222C123.345 250.327 122.536 251.636 122.015 253.067C121.495 254.498 121.275 256.021 121.368 257.541L121.736 266.576H123.651C125.151 266.575 126.636 266.875 128.019 267.456C129.402 268.038 130.655 268.89 131.704 269.962Z" fill="#8ABDEF"/>
<path opacity="0.38" d="M173.961 279.319L173.835 282.443H173.898V287.389H180.496V286.611L180.199 279.319H173.961Z" fill="#8ABDEF"/>
<path opacity="0.38" d="M170.904 269.962C172.698 271.844 173.78 274.293 173.961 276.886H180.203C180.358 274.52 181.271 272.266 182.808 270.46C183.868 269.239 185.179 268.261 186.65 267.591C188.122 266.921 189.72 266.574 191.337 266.576H193.247L193.611 257.562C193.707 256.041 193.488 254.517 192.969 253.085C192.45 251.652 191.642 250.342 190.595 249.235C189.548 248.129 188.284 247.249 186.882 246.652C185.481 246.054 183.972 245.752 182.448 245.763H171.724C170.201 245.75 168.692 246.05 167.29 246.645C165.889 247.24 164.625 248.118 163.577 249.222C162.529 250.327 161.72 251.636 161.199 253.067C160.679 254.498 160.459 256.021 160.552 257.541L160.924 266.576H162.835C164.338 266.574 165.826 266.874 167.211 267.455C168.597 268.037 169.852 268.889 170.904 269.962Z" fill="#8ABDEF"/>
<path opacity="0.38" d="M213.17 279.319L213.04 282.443H213.103V287.389H219.7V286.611L219.404 279.319H213.17Z" fill="#8ABDEF"/>
<path opacity="0.38" d="M210.109 269.962C211.907 271.841 212.988 274.292 213.166 276.886H219.399C219.56 274.52 220.476 272.267 222.013 270.46C223.073 269.239 224.384 268.261 225.855 267.591C227.327 266.921 228.925 266.574 230.542 266.576H232.465L232.829 257.562C232.924 256.041 232.705 254.517 232.186 253.085C231.667 251.652 230.859 250.342 229.812 249.235C228.765 248.129 227.501 247.249 226.1 246.652C224.698 246.054 223.189 245.752 221.665 245.763H210.933C209.41 245.75 207.901 246.05 206.499 246.645C205.098 247.24 203.834 248.118 202.786 249.222C201.738 250.327 200.929 251.636 200.408 253.067C199.888 254.498 199.668 256.021 199.761 257.541L200.129 266.576H202.04C203.543 266.574 205.031 266.874 206.416 267.455C207.802 268.037 209.057 268.889 210.109 269.962Z" fill="#8ABDEF"/>
<path opacity="0.38" d="M252.375 279.319L252.249 282.443H252.312V287.389H258.905V286.611L258.609 279.319H252.375Z" fill="#8ABDEF"/>
<path opacity="0.38" d="M249.314 269.962C251.112 271.841 252.193 274.292 252.371 276.886H258.609C258.763 274.52 259.677 272.266 261.213 270.46C262.274 269.239 263.584 268.261 265.056 267.591C266.527 266.921 268.126 266.574 269.742 266.576H271.649L272.017 257.562C272.112 256.041 271.894 254.516 271.374 253.084C270.855 251.651 270.046 250.341 268.999 249.234C267.951 248.127 266.687 247.248 265.285 246.651C263.883 246.053 262.374 245.751 260.85 245.763H250.138C248.615 245.75 247.106 246.05 245.704 246.645C244.303 247.24 243.039 248.118 241.991 249.222C240.943 250.327 240.134 251.636 239.613 253.067C239.093 254.498 238.873 256.021 238.966 257.541L239.334 266.576H241.245C242.748 266.573 244.236 266.871 245.622 267.453C247.008 268.035 248.263 268.888 249.314 269.962Z" fill="#8ABDEF"/>
<path opacity="0.38" d="M291.58 279.319L291.454 282.443H291.517V287.389H298.114V286.607L297.813 279.319H291.58Z" fill="#8ABDEF"/>
<path opacity="0.38" d="M288.519 269.962C290.317 271.841 291.398 274.292 291.575 276.886H297.813C297.968 274.52 298.882 272.266 300.418 270.46C301.479 269.239 302.789 268.261 304.26 267.591C305.732 266.921 307.331 266.574 308.947 266.576H310.858L311.222 257.562C311.317 256.041 311.098 254.517 310.58 253.085C310.06 251.652 309.252 250.342 308.205 249.235C307.158 248.129 305.894 247.249 304.493 246.652C303.092 246.054 301.582 245.752 300.059 245.763H289.326C287.803 245.75 286.294 246.05 284.893 246.645C283.491 247.24 282.227 248.118 281.179 249.222C280.131 250.327 279.322 251.636 278.801 253.067C278.281 254.498 278.061 256.021 278.155 257.541L278.527 266.576H280.437C281.942 266.571 283.433 266.869 284.821 267.45C286.209 268.032 287.467 268.886 288.519 269.962Z" fill="#8ABDEF"/>
<path opacity="0.38" d="M330.785 279.319L330.659 282.442H330.718V287.388H337.315V282.442H346.605C347.428 282.443 348.219 282.125 348.812 281.555C349.405 280.985 349.754 280.208 349.787 279.386L349.85 277.776C349.446 278.245 348.949 278.625 348.391 278.89C347.832 279.156 347.224 279.302 346.605 279.319H330.785Z" fill="#8ABDEF"/>
<path opacity="0.38" d="M327.728 269.962C329.526 271.842 330.607 274.292 330.785 276.886H346.605C347.427 276.886 348.217 276.568 348.81 275.999C349.402 275.431 349.752 274.655 349.787 273.834L350.443 257.562C350.539 256.041 350.32 254.517 349.801 253.085C349.282 251.652 348.474 250.342 347.427 249.235C346.38 248.128 345.116 247.249 343.715 246.652C342.313 246.054 340.804 245.752 339.28 245.763H328.552C327.029 245.748 325.519 246.048 324.117 246.643C322.715 247.238 321.45 248.115 320.402 249.22C319.354 250.325 318.545 251.634 318.025 253.065C317.505 254.497 317.285 256.02 317.38 257.541L317.748 266.576H319.659C321.162 266.575 322.65 266.874 324.035 267.455C325.421 268.037 326.676 268.889 327.728 269.962Z" fill="#8ABDEF"/>
<path opacity="0.38" d="M134.756 320.945L134.63 324.072H134.693V329.018H141.291V328.24L140.99 320.945H134.756Z" fill="#8ABDEF"/>
<path opacity="0.38" d="M131.704 311.591C133.501 313.47 134.583 315.921 134.76 318.515H140.998C141.153 316.149 142.066 313.896 143.603 312.089C144.662 310.867 145.972 309.887 147.444 309.217C148.915 308.546 150.515 308.201 152.132 308.205H154.038L154.406 299.191C154.502 297.67 154.284 296.145 153.765 294.712C153.246 293.278 152.437 291.968 151.39 290.86C150.342 289.753 149.078 288.873 147.676 288.276C146.273 287.679 144.763 287.377 143.239 287.388H132.54C131.017 287.375 129.508 287.675 128.106 288.27C126.705 288.865 125.441 289.743 124.393 290.848C123.345 291.952 122.536 293.261 122.015 294.692C121.495 296.123 121.275 297.646 121.368 299.166L121.736 308.205H123.651C125.151 308.204 126.637 308.502 128.02 309.084C129.403 309.666 130.655 310.518 131.704 311.591Z" fill="#8ABDEF"/>
<path opacity="0.38" d="M173.961 320.945L173.835 324.072H173.898V329.018H180.496V328.24L180.199 320.945H173.961Z" fill="#8ABDEF"/>
<path opacity="0.38" d="M170.904 311.591C172.699 313.472 173.78 315.922 173.961 318.515H180.203C180.358 316.149 181.271 313.896 182.808 312.089C183.867 310.867 185.177 309.888 186.649 309.217C188.121 308.547 189.72 308.202 191.337 308.205H193.247L193.611 299.191C193.707 297.67 193.489 296.146 192.97 294.713C192.451 293.28 191.643 291.969 190.596 290.862C189.549 289.755 188.285 288.875 186.884 288.277C185.482 287.68 183.972 287.377 182.448 287.388H171.724C170.201 287.375 168.692 287.675 167.29 288.27C165.889 288.865 164.625 289.743 163.577 290.848C162.529 291.952 161.72 293.261 161.199 294.692C160.679 296.123 160.459 297.646 160.552 299.166L160.924 308.205H162.835C164.338 308.202 165.827 308.5 167.213 309.082C168.599 309.663 169.854 310.517 170.904 311.591Z" fill="#8ABDEF"/>
<path opacity="0.38" d="M213.17 320.945L213.04 324.072H213.103V329.018H219.7V328.24L219.404 320.945H213.17Z" fill="#8ABDEF"/>
<path opacity="0.38" d="M210.109 311.591C211.907 313.47 212.989 315.921 213.166 318.515H219.399C219.56 316.149 220.476 313.896 222.013 312.089C223.072 310.867 224.382 309.888 225.854 309.217C227.326 308.547 228.924 308.202 230.542 308.205H232.465L232.829 299.191C232.924 297.67 232.706 296.146 232.188 294.713C231.669 293.28 230.861 291.969 229.814 290.862C228.766 289.755 227.503 288.875 226.101 288.277C224.699 287.68 223.189 287.377 221.665 287.388H210.933C209.41 287.375 207.901 287.675 206.499 288.27C205.098 288.865 203.834 289.743 202.786 290.848C201.738 291.952 200.929 293.261 200.408 294.692C199.888 296.123 199.668 297.646 199.761 299.166L200.129 308.205H202.04C203.543 308.202 205.032 308.5 206.418 309.082C207.803 309.663 209.059 310.517 210.109 311.591Z" fill="#8ABDEF"/>
<path opacity="0.38" d="M252.375 320.945L252.249 324.072H252.312V329.018H258.905V328.24L258.609 320.945H252.375Z" fill="#8ABDEF"/>
<path opacity="0.38" d="M249.314 311.591C251.112 313.47 252.194 315.921 252.371 318.515H258.609C258.763 316.149 259.677 313.896 261.213 312.089C262.272 310.867 263.582 309.887 265.054 309.217C266.526 308.546 268.125 308.201 269.742 308.205H271.649L272.017 299.191C272.113 297.67 271.894 296.145 271.376 294.712C270.857 293.278 270.048 291.968 269 290.86C267.953 289.753 266.689 288.873 265.286 288.276C263.884 287.679 262.374 287.377 260.85 287.388H250.138C248.615 287.375 247.106 287.675 245.704 288.27C244.303 288.865 243.039 289.743 241.991 290.848C240.943 291.952 240.134 293.261 239.613 294.692C239.093 296.123 238.873 297.646 238.966 299.166L239.334 308.205H241.245C242.748 308.201 244.237 308.499 245.623 309.081C247.009 309.662 248.264 310.516 249.314 311.591Z" fill="#8ABDEF"/>
<path opacity="0.38" d="M291.58 320.945L291.454 324.072H291.517V329.018H298.114V328.236L297.813 320.945H291.58Z" fill="#8ABDEF"/>
<path opacity="0.38" d="M288.519 311.591C290.317 313.47 291.399 315.921 291.575 318.515H297.813C297.968 316.149 298.882 313.896 300.418 312.089C301.477 310.867 302.787 309.887 304.259 309.217C305.731 308.546 307.33 308.201 308.947 308.205H310.858L311.222 299.191C311.318 297.67 311.099 296.146 310.581 294.713C310.062 293.28 309.254 291.969 308.207 290.862C307.16 289.755 305.896 288.875 304.494 288.277C303.092 287.68 301.583 287.377 300.059 287.388H289.326C287.803 287.375 286.294 287.675 284.893 288.27C283.491 288.865 282.227 289.743 281.179 290.848C280.131 291.952 279.322 293.261 278.801 294.692C278.281 296.123 278.061 297.646 278.155 299.166L278.527 308.205H280.437C281.942 308.199 283.433 308.496 284.822 309.078C286.21 309.66 287.468 310.515 288.519 311.591Z" fill="#8ABDEF"/>
<path opacity="0.38" d="M330.785 320.945L330.659 324.072H330.718V329.018H337.315V324.072H346.605C347.428 324.072 348.218 323.753 348.811 323.184C349.404 322.614 349.754 321.837 349.787 321.016L349.85 319.406C349.445 319.874 348.948 320.253 348.39 320.517C347.831 320.782 347.223 320.928 346.605 320.945H330.785Z" fill="#8ABDEF"/>
<path opacity="0.38" d="M327.728 311.592C329.526 313.47 330.608 315.921 330.785 318.515H346.605C347.427 318.515 348.217 318.197 348.81 317.629C349.402 317.06 349.752 316.284 349.787 315.463L350.443 299.191C350.539 297.67 350.321 296.146 349.803 294.713C349.284 293.28 348.476 291.969 347.429 290.862C346.381 289.755 345.117 288.875 343.716 288.277C342.314 287.68 340.804 287.377 339.28 287.388H328.552C327.029 287.374 325.519 287.673 324.117 288.268C322.715 288.862 321.45 289.74 320.402 290.845C319.354 291.95 318.545 293.259 318.025 294.691C317.505 296.122 317.285 297.646 317.38 299.166L317.757 308.205H319.667C321.169 308.203 322.656 308.502 324.04 309.083C325.425 309.665 326.678 310.518 327.728 311.592Z" fill="#8ABDEF"/>
</g>
</g>
<path d="M293.373 272.24C289.765 275.664 285.981 278.887 282.503 282.408" stroke="#8ABDEF" stroke-width="1.86846" stroke-miterlimit="10"/>
<path d="M240.948 115.204C241.199 115.254 241.446 115.316 241.709 115.392C262.271 120.743 282.035 133.537 299.11 157.36C307.835 169.535 314.705 183.282 317.481 198.112C320.93 216.533 317.171 235.001 308.83 251.432" stroke="#8ABDEF" stroke-width="1.86846" stroke-miterlimit="10"/>
<path d="M267.585 304.865C264.424 310.676 260.95 316.254 255.623 320.435C246.551 327.58 233.707 328.663 222.677 325.239C209.298 321.083 194.949 310.714 190.229 297.071C185.028 282.02 178.355 266.968 160.519 265.087C145.012 263.482 130.04 271.655 114.654 265.957C84.6469 254.844 110.736 211.554 102.282 190.381C98.812 181.681 91.9636 176.651 83.702 173.24C68.316 166.843 48.0676 165.981 35.6961 157.222C14.2185 142.004 8.38602 111.951 4.40574 88.0356C-0.205736 59.9211 -0.222712 31.2443 4.35557 3.12432" stroke="#8ABDEF" stroke-width="1.86846" stroke-miterlimit="10"/>
<path d="M86.1312 1.68548L85.0943 3.87651C84.58 4.97193 84.0783 6.08825 83.61 7.22129C81.2666 12.7418 79.4399 18.4677 78.1539 24.3256C77.2232 28.5162 76.5781 32.7657 76.2223 37.0441C76.1596 37.7842 76.1094 38.5284 76.0718 39.2684C75.8008 43.5543 75.8242 47.8544 76.1428 52.1374C76.1428 52.2963 76.1428 52.4635 76.1721 52.6266H43.6943C44.0631 49.9031 44.2893 47.1621 44.3717 44.4152C44.3717 43.7211 44.4009 43.0104 44.4009 42.3247C44.4009 40.4223 44.334 38.5158 44.1835 36.626C43.9845 33.7516 43.6116 30.8922 43.0672 28.0634C42.7118 26.1694 42.2812 24.2796 41.7627 22.4149C40.1016 16.2584 37.6687 10.3374 34.5213 4.79214L34.1032 4.01867L32.782 1.68548H86.1312Z" stroke="#183A5C" stroke-width="1.86846" stroke-miterlimit="10"/>
<path d="M86.1312 1.68548L85.0943 3.87651C84.58 4.97193 84.0783 6.08825 83.61 7.22129C81.2666 12.7418 79.4399 18.4677 78.1539 24.3256C75.1996 25.3671 72.0886 25.896 68.9558 25.8893C67.9448 25.8872 66.9343 25.8341 65.9287 25.7304C59.7442 25.046 53.9678 22.3062 49.5251 17.9501C45.0824 13.5935 42.2298 7.87226 41.4241 1.7022L86.1312 1.68548Z" stroke="#183A5C" stroke-width="1.86846" stroke-miterlimit="10"/>
<path d="M86.1311 1.68548L85.0942 3.87651C84.58 4.97193 84.0783 6.08825 83.61 7.22129C81.2666 12.7418 79.4399 18.4677 78.1538 24.3256C77.2236 28.5162 76.578 32.7657 76.2222 37.0441C75.6327 37.0734 75.0432 37.0859 74.4495 37.0859C63.7956 37.0997 53.5033 33.2202 45.5088 26.1778C44.1814 24.9988 42.925 23.7424 41.746 22.4149C40.0853 16.2584 37.652 10.3374 34.5045 4.79214L34.0865 4.01867L32.7653 1.68548H86.1311Z" stroke="#183A5C" stroke-width="1.86846" stroke-miterlimit="10"/>
<path d="M34.354 1.68548H86.1311L85.0942 3.87651C84.58 4.97193 84.0783 6.08825 83.61 7.22129C81.2666 12.7418 79.4399 18.4677 78.1538 24.3256C77.2232 28.5162 76.578 32.7657 76.2222 37.0441" stroke="#183A5C" stroke-width="1.86846" stroke-miterlimit="10"/>
<path d="M76.0969 39.2525C75.8259 43.5384 75.8498 47.8385 76.1679 52.1215C72.4849 52.0077 68.8316 51.4216 65.2974 50.378C57.0617 47.9556 49.7208 43.165 44.1877 36.6017C43.9862 33.7357 43.612 30.8847 43.0672 28.0642C42.7118 26.1702 42.2812 24.2804 41.7628 22.4157C40.1021 16.2592 37.6687 10.3382 34.5213 4.79293L34.1032 4.01945" stroke="#183A5C" stroke-width="1.86846" stroke-miterlimit="10"/>
<path d="M60.3513 1.68548C58.9277 8.33133 55.9776 14.5551 51.7343 19.8645C49.8842 22.1716 47.8009 24.2817 45.5172 26.1611C44.7228 26.8384 43.9034 27.4655 43.0463 28.0634C42.6909 26.1694 42.2602 24.2796 41.7418 22.4149C40.0811 16.2584 37.6478 10.3374 34.5004 4.79214L34.0823 4.01867L32.7611 1.68548H60.3513Z" stroke="#183A5C" stroke-width="1.86846" stroke-miterlimit="10"/>
<path d="M65.9496 25.7137C64.1301 28.8724 61.9204 31.7899 59.373 34.3976C56.7507 37.0588 53.8002 39.3754 50.5929 41.292C50.2376 41.5136 49.878 41.7101 49.5101 41.9108C47.8557 42.8561 46.1373 43.6843 44.3675 44.3901C44.3675 43.696 44.3967 42.9853 44.3967 42.2996C44.3967 40.3973 44.3299 38.4907 44.1793 36.6009C43.9807 33.7353 43.6091 30.8843 43.0672 28.0634C42.7118 26.1694 42.2812 24.2796 41.7627 22.4149C40.1016 16.2584 37.6687 10.3374 34.5213 4.79214L34.1032 4.01867L32.782 1.68548H71.849C72.2215 10.0944 70.1741 18.4334 65.9496 25.7137Z" stroke="#183A5C" stroke-width="1.86846" stroke-miterlimit="10"/>
<path d="M86.637 0H7.47456C5.74736 0 4.3472 1.40017 4.3472 3.12736C4.3472 4.8544 5.74736 6.2546 7.47456 6.2546H86.637C88.3642 6.2546 89.7644 4.8544 89.7644 3.12736C89.7644 1.40017 88.3642 0 86.637 0Z" fill="#183A5C"/>
<path d="M208.608 77.5029C207.726 76.5455 206.756 75.8974 205.682 75.772C191.182 76.7211 177.728 84.3639 164.771 91.0701C154.005 96.6475 143.427 102.597 133.146 109.048C125.478 113.852 117.961 118.928 110.74 124.405C105.815 128.126 100.999 132.048 96.4414 136.229C95.5467 137.065 86.5451 144.733 88.3262 146.598C90.1073 148.462 92.9252 145.937 94.4889 145.005C96.0526 144.072 98.4566 142.241 100.062 141.384C97.8876 144.948 96.2098 148.793 95.0743 152.81C94.6854 154.265 94.1503 155.858 94.2381 157.376C94.2736 157.929 94.524 158.446 94.9359 158.816C95.3477 159.186 95.8883 159.381 96.4414 159.358C96.9022 159.339 97.3462 159.18 97.7133 158.901C98.0808 158.622 98.3534 158.237 98.4943 157.798L105.079 141.844C104.197 144.306 102.328 150.206 101.735 154.215C101.463 155.996 102.182 157.451 103.863 157.054C104.283 156.937 104.67 156.721 104.991 156.424C105.311 156.127 105.557 155.758 105.706 155.348L111.635 139.996C110.423 144.071 109.762 148.289 109.666 152.539C109.661 152.744 109.698 152.949 109.774 153.141C109.85 153.332 109.963 153.507 110.107 153.654C110.251 153.801 110.423 153.918 110.613 153.998C110.803 154.078 111.007 154.119 111.213 154.119C113.027 154.119 113.303 151.109 113.776 149.85C115.145 146.281 117.2 143.014 119.826 140.234C121.665 138.282 124.157 136.948 126.482 135.635C131.056 133.154 135.827 131.056 140.747 129.364C151.735 125.404 163.073 122.519 174.316 119.409C174.462 119.371 174.6 119.321 174.734 119.283C175.069 119.195 175.395 119.095 175.729 119.007C182.339 117.155 188.937 115.244 195.417 112.983C195.836 112.836 196.254 112.698 196.638 112.564C196.645 112.557 196.652 112.551 196.66 112.546C196.669 112.542 196.679 112.539 196.688 112.539C200.51 110.825 204.214 108.743 207.22 106.243C207.22 106.243 207.22 106.243 207.245 106.218C217.669 96.2504 211.385 82.4197 208.608 77.5029ZM105.205 141.543C105.292 141.255 105.404 140.975 105.539 140.707L105.205 141.543Z" fill="white"/>
<path d="M105.092 141.828C105.092 141.828 105.092 141.79 105.117 141.778L105.205 141.544" fill="white"/>
<path d="M105.092 141.828C105.092 141.828 105.092 141.79 105.117 141.778L105.205 141.544" fill="white"/>
<path d="M256.664 210.517C256.664 210.517 257.501 235.602 277.151 239.921C296.802 244.24 295.388 249.057 309.813 251.432C324.237 253.806 300.025 273.591 300.025 273.591L275.696 268.498L281.713 281.07L271.678 308.213C271.678 308.213 229.685 266.019 214.926 239.888C200.167 213.757 234.392 204.843 235.413 204.843C236.433 204.843 256.664 210.517 256.664 210.517Z" fill="white"/>
<path d="M223.171 237.656C223.743 238.341 224.341 239.014 224.952 239.696C226.449 241.172 223.125 244.864 219.55 246.532C208.533 231.033 198.106 214.28 190.016 197.305C189.455 196.122 188.895 194.926 188.343 193.73C188.218 193.471 188.092 193.195 187.984 192.924C187.26 191.251 186.424 189.303 185.743 187.635C191.717 182.964 201.476 173.047 207.224 165.241C211.217 159.806 216.322 158.819 220.403 159.133C220.453 159.133 220.503 159.133 220.541 159.133C222.302 159.285 224.037 159.653 225.709 160.228C225.759 160.228 225.805 160.266 225.855 160.274C226.018 160.325 226.168 160.375 226.327 160.437C226.486 160.5 226.628 160.538 226.779 160.6C228.203 161.106 229.581 161.734 230.897 162.478C251.472 178.783 254.21 198.898 257.459 214.468C248.415 224.473 233.489 242.844 223.171 237.656Z" fill="#63A7EA"/>
<path d="M231.65 153.781C230.592 157.076 229.894 159.045 229.894 159.045C229.894 159.045 229.057 161.395 227.23 160.764C225.403 160.132 214.487 155.399 207.241 165.241C201.492 173.047 191.734 182.964 185.759 187.635C184.6 188.613 183.325 189.444 181.963 190.11C177.619 191.853 172.652 195.424 172.765 190.971C172.878 186.518 170.7 120.421 174.349 119.401C177.999 118.381 218.793 111.336 214.002 89.4446C214.002 89.4446 210.866 76.3372 205.69 75.777C200.514 75.2167 208.441 75.6767 208.441 75.6767C208.441 75.6767 233.682 75.1164 240.279 93.1405C245.514 107.502 235.81 140.85 231.65 153.781Z" fill="#3074B7"/>
<path d="M303.353 45.4725C301.869 44.9875 300.677 37.6708 297.889 39.6191C296.108 40.8734 298.474 47.9811 298.633 49.2145C299.004 52.0671 298.741 54.9666 297.864 57.706C297.775 57.7541 297.683 57.7946 297.588 57.8272C297.077 58.0631 296.552 58.2654 296.016 58.4335C295.769 58.5213 295.506 58.5965 295.246 58.6718C294.987 58.7471 294.828 58.7847 294.636 58.8349L293.95 58.9812C293.628 59.0439 293.315 59.1066 292.993 59.1568C292.012 59.3086 291.021 59.3838 290.028 59.3826C289.669 59.3826 289.309 59.3826 288.958 59.3575C288.737 59.3575 288.54 59.3199 288.302 59.3073C288.164 59.3073 288.013 59.2822 287.884 59.2571C287.18 59.184 286.482 59.0669 285.793 58.9059C285.559 58.8599 285.333 58.8098 285.112 58.7471C284.888 58.6981 284.667 58.6354 284.451 58.5589C284.075 58.446 283.703 58.3248 283.343 58.1994C283.218 58.1492 283.08 58.099 282.925 58.0363C282.586 57.9109 282.252 57.7645 281.926 57.6182C281.894 57.6149 281.865 57.6019 281.842 57.5806C281.062 57.216 280.309 56.7966 279.589 56.3263C279.546 56.3104 279.507 56.2845 279.476 56.251C276.622 53.5953 274.634 50.1414 273.772 46.3396C272.909 42.5379 273.211 38.5647 274.638 34.9369C276.066 31.3095 278.553 28.1959 281.775 26.0017C284.998 23.8076 288.806 22.6348 292.704 22.6361C296.443 22.6248 300.104 23.706 303.236 25.7467C303.47 25.9683 303.709 26.1941 303.934 26.4324C304.16 26.6707 304.394 26.9174 304.616 27.164C300.648 27.3396 304.591 35.1413 305.201 37.6708C305.69 39.5313 307.304 46.7268 303.353 45.4725Z" fill="#63A7EA"/>
<path d="M274.776 268.272C278.744 276.002 282.515 282.65 285.99 288.286C297.801 307.518 305.991 315.195 305.991 315.195L296.308 355.896C296.167 356.496 295.891 357.056 295.5 357.533C295.109 358.009 294.615 358.391 294.055 358.647C293.521 358.916 292.933 359.059 292.336 359.065C291.252 359.062 290.212 358.63 289.446 357.863C288.679 357.096 288.247 356.057 288.243 354.972V325.864C288.243 325.864 280.203 318.339 268.379 305.725C254.971 291.422 236.7 270.605 219.801 246.878C219.713 246.765 219.638 246.639 219.55 246.531C208.533 231.032 198.106 214.279 190.016 197.304C189.455 196.121 188.895 194.925 188.343 193.729C188.218 193.47 188.092 193.194 187.984 192.922C187.198 191.216 186.462 189.511 185.743 187.792" stroke="#183A5C" stroke-width="1.86846" stroke-linecap="round" stroke-linejoin="round"/>
<path d="M195.442 191.978C195.442 191.978 205.238 216.671 223.171 237.655C223.334 237.843 223.484 238.027 223.643 238.215C224.061 238.713 224.504 239.198 224.952 239.695C234.376 250.265 245.911 259.634 259.34 263.991C264.458 265.663 269.621 267.055 274.776 268.272C285.354 270.814 295.907 272.666 305.991 274.819C329.254 279.761 349.988 286.221 362.61 305.913C363.118 306.67 363.884 307.216 364.764 307.45C365.645 307.685 366.58 307.592 367.397 307.189C368.215 306.786 368.858 306.101 369.208 305.259C369.558 304.418 369.59 303.478 369.3 302.614L356.732 268.05C356.732 268.05 332.097 259.688 308.115 251.172C293.837 246.117 279.785 241.029 271.273 237.617C262.263 234.009 259.762 225.359 257.496 214.48C256.811 211.206 256.15 207.723 255.343 204.123C252.304 190.619 247.178 175.375 230.935 162.489" stroke="#183A5C" stroke-width="1.86846" stroke-linecap="round" stroke-linejoin="round"/>
<path d="M100.079 141.372C98.465 142.229 96.0735 144.061 94.5014 144.989C92.9294 145.917 90.1031 148.421 88.3387 146.582C86.5743 144.742 95.5592 137.037 96.4581 136.2C101.007 132.019 105.819 128.106 110.749 124.377C117.978 118.908 125.487 113.828 133.163 109.02C143.44 102.581 154.022 96.6358 164.783 91.0417C181.361 82.454 198.75 72.3612 218.099 76.6801C224.902 78.1978 231.57 81.5885 236.253 86.844C243.695 95.1809 243.54 106.913 241.35 117.219C238.268 131.723 233.356 147.167 229.195 161.386" stroke="#183A5C" stroke-width="1.86846" stroke-linecap="round" stroke-linejoin="round"/>
<path d="M230.241 81.1901C243.745 83.6987 258.583 87.1647 272.113 82.9085C282.08 79.7602 294.414 69.1531 297.864 57.7307C298.742 54.9901 299.005 52.0893 298.633 49.235C298.474 48.0058 296.124 40.9107 297.889 39.6397C300.677 37.6872 301.869 45.0038 303.353 45.493C307.308 46.7473 305.69 39.5435 305.23 37.6913C304.62 35.1618 300.677 27.3602 304.645 27.1846C304.645 27.1846 304.695 27.1846 304.72 27.1846C307.049 27.1344 309.637 35.0657 309.813 35.9102C311.69 44.4979 311.117 53.4954 309.75 62.1583C306.092 85.2498 289.301 108.948 264.767 112.008C257.241 112.94 249.594 113.154 242.014 113.626" stroke="#183A5C" stroke-width="1.86846" stroke-linecap="round" stroke-linejoin="round"/>
<path d="M230.236 81.1867C230.236 81.1867 227.64 72.2938 236.771 64.7053C245.903 57.1169 244.126 43.3824 237.783 39.3478C231.441 35.3132 222.125 32.5663 214.901 38.2691C207.676 43.9719 205.201 48.7215 205.201 48.7215L207.484 50.812C207.484 50.812 198.637 62.6149 206.079 65.6461C213.521 68.6773 219.274 65.0775 219.274 65.0775" stroke="#183A5C" stroke-width="1.86846" stroke-linecap="round" stroke-linejoin="round"/>
<path d="M215.775 39.967C215.775 39.967 218.894 39.5865 217.945 44.148" stroke="#183A5C" stroke-width="1.86846" stroke-linecap="round" stroke-linejoin="round"/>
<path d="M223.091 35.0531C223.091 35.0531 228.021 37.2858 227.072 39.9574C226.122 42.629 224.542 41.8681 225.14 46.81C225.379 48.4949 225.178 50.2129 224.559 51.7979C224.224 52.6006 223.187 53.2445 223.509 54.2187C223.852 55.2639 225.474 55.5775 226.382 55.3935C227.515 55.1677 228.1 54.3734 229.032 53.8298C229.976 53.3595 231.03 53.1571 232.08 53.2445C233.966 53.3198 235.994 54.2856 235.655 56.4889C235.367 58.3746 233.385 59.2526 232.018 60.2518C229.676 62.0036 228.062 68.2834 231.754 69.6172" stroke="#183A5C" stroke-width="1.86846" stroke-linecap="round" stroke-linejoin="round"/>
<path d="M100.079 141.371C97.9068 144.936 96.2273 148.778 95.0868 152.794C94.7021 154.253 94.167 155.837 94.2506 157.359C94.2807 157.912 94.5294 158.431 94.9417 158.801C95.3543 159.171 95.8966 159.362 96.4498 159.333C96.9109 159.316 97.3558 159.159 97.7241 158.881C98.0929 158.604 98.3676 158.22 98.511 157.782L105.092 141.823M105.092 141.823C105.092 141.823 105.092 141.785 105.092 141.773M105.092 141.823C105.092 141.81 105.092 141.773 105.092 141.773M105.092 141.823C104.21 144.298 102.345 150.185 101.747 154.203C101.479 155.975 102.194 157.439 103.879 157.033C104.3 156.918 104.686 156.703 105.005 156.407C105.325 156.111 105.568 155.742 105.715 155.332L111.635 140C110.426 144.075 109.767 148.293 109.674 152.543C109.67 152.748 109.707 152.952 109.783 153.142C109.859 153.333 109.972 153.507 110.116 153.653C110.259 153.799 110.43 153.915 110.62 153.995C110.809 154.074 111.012 154.115 111.217 154.115C113.036 154.115 113.307 151.113 113.784 149.855C115.153 146.286 117.207 143.019 119.83 140.238C121.678 138.273 124.157 136.952 126.486 135.639C131.058 133.154 135.829 131.056 140.751 129.368C152.199 125.237 164.043 122.26 175.75 119.016C182.36 117.168 188.962 115.253 195.447 112.999C225.997 102.346 210.151 79.5265 210.151 79.5265M105.092 141.773L105.175 141.543M105.175 141.543C105.274 141.245 105.392 140.953 105.527 140.669L105.175 141.543Z" stroke="#183A5C" stroke-width="1.86846" stroke-linecap="round" stroke-linejoin="round"/>
<path d="M215.432 159.328C217.078 159.035 218.756 158.969 220.42 159.132C220.47 159.132 220.52 159.132 220.558 159.132C222.314 159.313 224.046 159.68 225.725 160.227L225.872 160.273C226.035 160.323 226.185 160.373 226.344 160.436C226.503 160.499 226.645 160.536 226.796 160.599C228.22 161.105 229.598 161.733 230.914 162.476" stroke="#183A5C" stroke-width="1.86846" stroke-linecap="round" stroke-linejoin="round"/>
<path d="M215.262 44.6744C215.711 43.8123 215.622 42.8774 215.063 42.586C214.504 42.2946 213.687 42.7574 213.238 43.6195C212.788 44.4817 212.878 45.4169 213.436 45.7079C213.995 45.9993 214.813 45.5365 215.262 44.6744Z" fill="#183A5C"/>
<path d="M211.577 66.8414L207.484 75.6758" stroke="#183A5C" stroke-width="1.86846" stroke-linecap="round" stroke-linejoin="round"/>
<path d="M206.911 56.606C206.911 56.606 211.953 57.8603 213.283 55.0841" stroke="#183A5C" stroke-width="1.86846" stroke-linecap="round" stroke-linejoin="round"/>
<path d="M303.353 45.4733C301.869 44.9884 300.677 37.6717 297.889 39.62C296.108 40.8743 298.474 47.9819 298.633 49.2153C299.004 52.068 298.741 54.9671 297.864 57.7069L297.588 57.8156C297.078 58.0551 296.553 58.2621 296.016 58.4343C295.769 58.5221 295.506 58.5974 295.246 58.6727C294.987 58.7479 294.828 58.7855 294.636 58.8357L293.95 58.982C293.628 59.0448 293.315 59.1075 292.993 59.1576C292.012 59.309 291.021 59.3847 290.029 59.3834C289.669 59.3834 289.309 59.3834 288.958 59.3583C288.737 59.3583 288.54 59.3207 288.302 59.3082C288.164 59.3082 288.013 59.2831 287.884 59.258C287.18 59.1848 286.482 59.0673 285.793 58.9068C285.559 58.8608 285.333 58.8106 285.112 58.7479C284.888 58.699 284.667 58.6359 284.451 58.5598C284.075 58.4469 283.703 58.3256 283.343 58.2002C283.218 58.15 283.08 58.0999 282.925 58.0371C282.586 57.9117 282.252 57.7654 281.926 57.619C281.894 57.6157 281.865 57.6023 281.842 57.5814C281.062 57.2164 280.309 56.7975 279.589 56.3271C279.546 56.3108 279.507 56.2853 279.476 56.2519C277.214 54.7956 275.28 52.8854 273.796 50.6419C272.313 48.3983 271.312 45.871 270.857 43.2202C270.402 40.5691 270.504 37.8527 271.155 35.2429C271.806 32.6332 272.993 30.1877 274.64 28.0613C276.287 25.9348 278.358 24.1738 280.722 22.8907C283.086 21.6076 285.691 20.8299 288.371 20.6075C291.052 20.3846 293.749 20.7216 296.292 21.5971C298.836 22.4726 301.169 23.8674 303.144 25.6932L303.236 25.7475C303.47 25.9691 303.709 26.1949 303.934 26.4332C304.16 26.6715 304.394 26.9182 304.616 27.1649C300.648 27.3405 304.591 35.1422 305.201 37.6717C305.69 39.5322 307.304 46.7276 303.353 45.4733Z" stroke="#183A5C" stroke-width="1.86846" stroke-linecap="round" stroke-linejoin="round"/>
<path d="M172.748 120.232L172.849 194.486" stroke="#183A5C" stroke-width="1.86846" stroke-linecap="round" stroke-linejoin="round"/>
<path d="M190.016 197.306C190.016 197.306 179.124 198.401 175.529 197.042C174.77 196.811 174.061 196.439 173.438 195.947C173.229 195.77 173.066 195.546 172.964 195.292C172.862 195.038 172.824 194.764 172.853 194.492C172.913 194.174 173.069 193.882 173.3 193.656C174.37 192.447 176.16 192.284 177.619 191.862C180.539 190.969 183.29 189.597 185.759 187.802" stroke="#183A5C" stroke-width="1.86846" stroke-linecap="round" stroke-linejoin="round"/>
<path d="M190.016 197.306C190.016 197.306 179.124 198.401 175.529 197.042C174.77 196.811 174.061 196.439 173.438 195.947C173.229 195.77 173.066 195.546 172.964 195.292C172.862 195.038 172.824 194.764 172.853 194.492C172.913 194.174 173.069 193.882 173.3 193.656C174.37 192.447 176.16 192.284 177.619 191.862C180.539 190.969 183.29 189.597 185.759 187.802" fill="#183A5C"/>
</svg>
