<svg width="24" height="24" viewBox="0 0 24 24" fill="none" xmlns="http://www.w3.org/2000/svg">
<path d="M18.5868 19.3738C17.7154 20.6757 16.7915 21.9461 15.3845 21.9671C13.9776 21.9986 13.5262 21.1377 11.9303 21.1377C10.3239 21.1377 9.83042 21.9461 8.497 21.9986C7.1216 22.0511 6.08216 20.6127 5.20022 19.3423C3.40484 16.749 2.02943 11.9718 3.87731 8.75898C4.79075 7.16309 6.42864 6.15516 8.20302 6.12366C9.54693 6.10266 10.8278 7.0371 11.6573 7.0371C12.4762 7.0371 14.0301 5.91367 15.6575 6.08166C16.34 6.11316 18.2509 6.35464 19.4793 8.16052C19.3848 8.22352 17.2009 9.50443 17.2219 12.1608C17.2534 15.3315 20.0042 16.392 20.0357 16.4025C20.0042 16.476 19.5948 17.9144 18.5868 19.3738ZM12.5917 2.5749C13.3582 1.70345 14.6286 1.042 15.6785 1C15.815 2.22842 15.3216 3.46734 14.5866 4.34928C13.8621 5.24172 12.6652 5.93467 11.4893 5.84018C11.3318 4.63276 11.9198 3.37284 12.5917 2.5749Z" fill="#1F1C21"/>
</svg>
