<svg width="16" height="16" viewBox="0 0 16 16" fill="none" xmlns="http://www.w3.org/2000/svg">
<g clip-path="url(#clip0_0_422)">
<path d="M7.33331 4.66665H8.66665V5.99998H7.33331V4.66665ZM7.99998 11.3333C8.36665 11.3333 8.66665 11.0333 8.66665 10.6666V7.99998C8.66665 7.63331 8.36665 7.33331 7.99998 7.33331C7.63331 7.33331 7.33331 7.63331 7.33331 7.99998V10.6666C7.33331 11.0333 7.63331 11.3333 7.99998 11.3333ZM7.99998 1.33331C4.31998 1.33331 1.33331 4.31998 1.33331 7.99998C1.33331 11.68 4.31998 14.6666 7.99998 14.6666C11.68 14.6666 14.6666 11.68 14.6666 7.99998C14.6666 4.31998 11.68 1.33331 7.99998 1.33331ZM7.99998 13.3333C5.05998 13.3333 2.66665 10.94 2.66665 7.99998C2.66665 5.05998 5.05998 2.66665 7.99998 2.66665C10.94 2.66665 13.3333 5.05998 13.3333 7.99998C13.3333 10.94 10.94 13.3333 7.99998 13.3333Z" fill="#E42F2F"/>
</g>
<defs>
<clipPath id="clip0_0_422">
<rect width="16" height="16" fill="white"/>
</clipPath>
</defs>
</svg>
