<svg width="17" height="17" viewBox="0 0 17 17" fill="none" xmlns="http://www.w3.org/2000/svg">
<path d="M6.37494 11.4537L3.91702 8.9958C3.78458 8.86335 3.60495 8.78895 3.41765 8.78895C3.23035 8.78895 3.05072 8.86335 2.91827 8.9958C2.78583 9.12824 2.71143 9.30787 2.71143 9.49517C2.71143 9.58791 2.72969 9.67975 2.76518 9.76543C2.80067 9.85111 2.85269 9.92897 2.91827 9.99455L5.87911 12.9554C6.15536 13.2316 6.60161 13.2316 6.87786 12.9554L14.372 5.46121C14.5045 5.32877 14.5789 5.14914 14.5789 4.96184C14.5789 4.77454 14.5045 4.59491 14.372 4.46246C14.2396 4.33002 14.06 4.25562 13.8726 4.25562C13.6853 4.25562 13.5057 4.33002 13.3733 4.46246L6.37494 11.4537Z" fill="#1E654A"/>
</svg>
