<svg width="357" height="295" viewBox="0 0 357 295" fill="none" xmlns="http://www.w3.org/2000/svg">
<path d="M172.722 77.9974C175.406 74.6885 173.262 77.5785 173.262 77.5995C173.099 81.5282 168.977 85.6622 167.855 90.5627C164.529 105.13 152.546 110.738 147.679 120.719C142.925 130.483 147.935 140.489 148.148 140.912C141.865 138.298 135.097 143.253 131.541 145.205C127.985 147.157 118.138 147.014 118.138 147.014C118.138 147.014 86.4399 146.097 76.396 139.056C66.3521 132.016 62.993 137.733 62.993 137.733C62.1553 126.843 68.0903 107.132 68.0903 107.132C76.8861 75.2791 90.8419 69.6331 90.8419 69.6331L76.4128 66.0268C71.8055 46.0857 79.0892 37.3947 85.5603 33.6418C86.2552 33.2385 87.0535 33.0488 87.8556 33.0973C97.5099 33.7172 121.887 36.1046 136.659 44.825C137.631 51.9453 142.523 56.5777 145.112 58.362C147.826 60.2594 155.268 59.7274 156.29 55.7107C156.365 55.4037 156.459 55.1013 156.571 54.806C160.257 58.2657 171.214 67.4174 172.722 77.9974Z" fill="#103D21"/>
<path d="M37.4562 292.71C35.8227 292.383 34.2143 291.993 32.6478 291.533C26.2186 289.656 18.738 286.444 16.1789 279.696C15.5371 277.953 15.3348 276.078 15.5898 274.238C15.8447 272.398 16.5491 270.649 17.6406 269.146C18.7981 267.543 20.4238 266.339 22.294 265.698C26.361 264.383 30.8636 266.431 33.8834 269.468C36.9033 272.505 38.8593 276.4 41.2048 279.964C39.0687 275.173 36.8991 270.251 36.5975 265.016C36.3672 260.936 37.4813 256.509 40.2917 253.443C42.8802 250.624 48.9367 248.417 52.5052 250.486C54.8549 251.856 55.7931 254.762 56.1994 257.456C57.3052 264.815 55.8853 272.295 54.4654 279.604C55.4204 275.696 56.4423 271.755 58.3774 268.228C60.3125 264.702 63.2862 261.59 67.0893 260.27C69.7532 259.357 72.9197 259.458 75.1521 261.175C77.2463 262.783 78.1636 265.493 78.4484 268.107C78.9301 272.484 77.8955 276.928 76.1238 280.961C69.5103 296.027 51.1565 295.457 37.4562 292.71Z" stroke="#97DBB1" stroke-width="1.46718" stroke-miterlimit="10"/>
<path d="M52.3837 285.262C52.3837 285.262 62.5867 288.093 66.2056 273.915" stroke="#97DBB1" stroke-width="1.46718" stroke-miterlimit="10"/>
<path d="M47.8477 261.057C45.0121 267.486 47.8477 286.774 47.8477 286.774" stroke="#97DBB1" stroke-width="1.46718" stroke-miterlimit="10"/>
<path d="M38.3943 284.822C37.9755 284.75 33.875 284.177 30.386 282.577C27.6845 281.32 25.3599 279.477 25.3599 276.75" stroke="#97DBB1" stroke-width="1.46718" stroke-miterlimit="10"/>
<path d="M31.207 276.75C31.207 276.75 27.2196 281.404 30.3693 282.577" stroke="#97DBB1" stroke-width="1.46718" stroke-miterlimit="10"/>
<path d="M28.5599 286.808C29.1253 286.02 32.0782 287.599 34.0049 283.876" stroke="#97DBB1" stroke-width="1.46718" stroke-miterlimit="10"/>
<path d="M46.587 269.568C45.5775 268.81 42.9304 269.568 42.5535 263.516" stroke="#97DBB1" stroke-width="1.46718" stroke-miterlimit="10"/>
<path d="M47.0267 275.252C47.0267 275.252 51.4246 273.648 51.4246 270.188" stroke="#97DBB1" stroke-width="1.46718" stroke-miterlimit="10"/>
<path d="M56.5136 285.341C56.5136 285.341 58.813 279.398 59.7596 276.75" stroke="#97DBB1" stroke-width="1.46718" stroke-miterlimit="10"/>
<path d="M63.659 279.666C63.659 279.666 66.172 281.668 69.217 278.455" stroke="#97DBB1" stroke-width="1.46718" stroke-miterlimit="10"/>
<path d="M63.659 276.751C63.659 276.751 62.0297 276.047 62.7878 271.955" stroke="#97DBB1" stroke-width="1.46718" stroke-miterlimit="10"/>
<path d="M296.285 232.916L315.33 253.703V160.808" stroke="#97DBB1" stroke-width="1.46718" stroke-miterlimit="10"/>
<path d="M315.33 240.53L332.544 225.401" stroke="#97DBB1" stroke-width="1.46718" stroke-miterlimit="10"/>
<path d="M315.33 202.847L303.589 189.708" stroke="#97DBB1" stroke-width="1.46718" stroke-miterlimit="10"/>
<path d="M315.33 191.022L323.937 185.837" stroke="#97DBB1" stroke-width="1.46718" stroke-miterlimit="10"/>
<path d="M315.33 166.197C315.33 164.618 309.466 153.489 309.466 153.489" stroke="#97DBB1" stroke-width="1.46718" stroke-miterlimit="10"/>
<path d="M296.695 260.475L297.587 260.517L302.572 260.604C304.408 260.633 306.159 261.383 307.447 262.691C308.736 264 309.457 265.763 309.457 267.599V294.07" stroke="#97DBB1" stroke-width="1.46718" stroke-miterlimit="10"/>
<path d="M253.458 247.495L268.021 263.39V192.345" stroke="#97DBB1" stroke-width="1.46718" stroke-miterlimit="10"/>
<path d="M272.126 249.715L268.025 253.317" stroke="#97DBB1" stroke-width="1.46718" stroke-miterlimit="10"/>
<path d="M268.021 224.5L259.045 214.447" stroke="#97DBB1" stroke-width="1.46718" stroke-miterlimit="10"/>
<path d="M268.021 215.453L274.605 211.491" stroke="#97DBB1" stroke-width="1.46718" stroke-miterlimit="10"/>
<path d="M268.021 196.468C268.021 195.266 263.531 186.755 263.531 186.755" stroke="#97DBB1" stroke-width="1.46718" stroke-miterlimit="10"/>
<path d="M281.294 229.904C279.577 227.206 278.693 224.459 280.658 222.725C281.864 221.665 284.7 221.539 286.844 220.898" stroke="#97DBB1" stroke-width="1.46718" stroke-miterlimit="10"/>
<path d="M263.531 294.272V274.025C263.531 272.621 262.98 271.273 261.996 270.272C261.012 269.27 259.674 268.696 258.271 268.672L254.455 268.613C254.455 268.613 218.543 267.65 244.093 240.634C269.642 213.619 242.543 226.147 245.513 217.095C248.482 208.044 257.659 209.238 259.657 201.058C260.951 195.709 259.326 189.963 259.716 184.539C259.971 180.878 261.483 176.258 263.845 173.435C266.886 169.804 270.744 172.442 272.754 175.856C276.168 181.682 274.626 188.815 274.605 195.19C274.605 200.124 276.097 204.404 280.101 207.412C283.69 210.122 287.87 212.563 289.361 217.095C289.446 217.348 289.508 217.607 289.546 217.87" stroke="#97DBB1" stroke-width="1.46718" stroke-miterlimit="10"/>
<path d="M272.214 274.531C272.212 273.739 272.368 272.955 272.672 272.224C272.977 271.493 273.424 270.83 273.987 270.273C274.551 269.716 275.219 269.277 275.953 268.982C276.688 268.686 277.475 268.539 278.266 268.55L281.198 268.601C286.643 268.374 291.573 269.719 296.578 263.574L296.704 263.419C292.377 263.143 273.604 261.325 272.134 249.715C271.715 246.565 272.683 243.39 274.015 240.563C277.843 232.425 283.824 225.242 289.286 218.155C291.703 215.022 294.421 212.14 296.444 208.71C297.734 206.52 299.774 202.804 297.428 200.601C294.66 198.004 286.626 199.806 285.642 195.445C285.519 194.675 285.603 193.886 285.885 193.158C289.768 181.318 301.776 182.876 304.385 172.187C306.082 165.201 303.966 157.687 304.452 150.587C304.796 145.8 306.768 139.768 309.868 136.07C313.83 131.32 318.881 134.772 321.503 139.245C325.964 146.86 323.954 156.179 323.924 164.526C323.924 170.981 325.884 176.551 331.116 180.493C335.803 184.036 341.277 187.232 343.22 193.158C345.336 199.613 334.844 197.925 331.861 200.522C326.475 205.234 337.499 216.082 340.569 219.19C348.259 226.988 363.111 241.104 352.665 253.954C346.123 261.995 339.681 260.236 332.561 260.525L328.699 260.467C327.666 260.453 326.641 260.645 325.683 261.031C324.725 261.417 323.853 261.99 323.118 262.715C322.383 263.44 321.799 264.305 321.4 265.257C321.002 266.21 320.796 267.233 320.796 268.266" stroke="#97DBB1" stroke-width="1.46718" stroke-miterlimit="10"/>
<path d="M157.43 129.549C155.07 125.411 153.036 121.095 151.348 116.64C153.606 111.899 157.668 108.1 157.668 108.1C176.914 87.9366 164.496 69.9514 164.496 69.9514L168.847 66.2488C173.513 74.8561 175.934 84.9628 178.142 96.0747C178.648 98.6255 179.285 101.39 180.064 104.271C155.34 108.037 157.325 128.694 157.43 129.549Z" fill="#103D21"/>
<path d="M151.143 116.091C151.21 116.267 151.285 116.447 151.348 116.627C153.036 121.082 155.07 125.398 157.43 129.536C158.485 131.413 159.633 133.222 160.831 134.981C172.14 151.408 187.687 165.976 207.201 171.839C213.203 173.649 220.147 173.469 224.227 168.028C226.166 165.452 228.089 161.134 227.339 157.833C226.572 154.453 223.347 151.408 220.52 149.804C216.859 147.71 212.667 147.433 210.171 151.203C210.066 151.37 209.965 151.496 209.852 151.664" stroke="#092514" stroke-width="1.90608" stroke-miterlimit="10"/>
<path d="M207.8 156.209L207.787 156.23" stroke="#092514" stroke-width="1.90608" stroke-miterlimit="10"/>
<path d="M209.04 165.648C206.581 164.329 203.565 160.714 205.819 157.799C208.127 154.813 211.394 156.521 213.647 158.946C214.701 160.004 215.464 161.315 215.863 162.754" stroke="#092514" stroke-width="1.90608" stroke-miterlimit="10"/>
<path d="M220.11 156.514C218.263 153.72 214.589 150.776 211.071 151.312C208.558 151.697 207.251 154.461 208.931 156.233" stroke="#092514" stroke-width="1.90608" stroke-miterlimit="10"/>
<path d="M157.43 52.3893C162.123 56.1999 166.006 60.9123 168.847 66.2488C173.513 74.8561 175.934 84.9628 178.142 96.0747C178.648 98.6254 179.285 101.39 180.064 104.271C184.856 121.808 195.193 143.438 214.476 143.182L227.042 143.019C228.086 143.229 229.029 143.786 229.716 144.601C230.403 145.414 230.795 146.437 230.828 147.502C230.86 148.567 230.531 149.612 229.895 150.466C229.258 151.321 228.352 151.935 227.322 152.208C226.804 152.332 226.268 152.362 225.739 152.296L224.03 152.091" stroke="#092514" stroke-width="1.90608" stroke-miterlimit="10"/>
<path d="M162.657 35.3084C163.126 37.8676 165.396 39.455 167.658 38.9691" stroke="#092514" stroke-width="1.90608" stroke-miterlimit="10"/>
<path d="M185.53 11.7112C185.229 13.4816 184.38 15.113 183.103 16.3758C181.825 17.6382 180.184 18.4675 178.41 18.7477C178.214 18.0386 177.847 17.3886 177.342 16.8546C175.197 14.6389 174.636 19.1038 168.052 16.3645C158.921 12.5614 155.733 15.3049 155.733 15.3049C155.457 15.5436 155.625 17.575 155.612 17.9352C155.516 20.0545 155.419 22.1571 155.31 24.2765C155.248 25.5665 155.185 26.844 155.134 28.1257C154.998 27.9171 154.85 27.7173 154.69 27.5267C153.698 24.733 151.135 21.5247 148.123 23.1791C147.514 23.5276 146.998 24.0155 146.615 24.6032C144.739 27.4388 146.473 29.9434 148.751 31.7235C149.331 32.2852 149.97 32.7824 150.657 33.2062C150.351 33.9643 149.103 36.9758 149.103 36.9758C148.973 37.2774 143.541 31.8994 143.122 31.3047C142.454 29.8249 142.039 28.2434 141.895 26.6262C141.363 19.9456 143.57 11.9876 148.722 7.77823C149.999 6.7395 150.418 5.79291 150.422 4.4945C150.423 4.42413 150.446 4.35628 150.486 4.2989C150.526 4.24152 150.583 4.19796 150.649 4.17325C150.714 4.14895 150.786 4.14477 150.854 4.16194C150.922 4.17869 150.983 4.21597 151.03 4.26832C152.856 6.11124 157.044 5.63375 157.044 5.63375C171.377 1.00553 176.73 7.15835 179.725 8.10912C180.955 8.48482 182.278 8.41948 183.465 7.92483C183.562 8.32273 183.766 8.68629 184.056 8.97571C184.345 9.26555 184.709 9.46995 185.107 9.5667L185.078 10.2494C185.054 10.7742 185.214 11.2911 185.53 11.7112Z" fill="#2FB763"/>
<path d="M77.6442 211.345C77.4683 210.474 73.0034 188.681 84.8148 192.33C84.8148 192.33 79.0934 184.325 74.5573 187.84C70.0212 191.354 70.4945 196.317 71.282 202.185C72.0694 208.053 70.9511 233.494 78.4484 236.321C85.9457 239.148 89.732 233.623 88.3582 231.546C86.9844 229.468 78.1259 213.758 77.6442 211.345Z" fill="#2FB763"/>
<path d="M205.245 283.809L203.201 280.45L246.417 284.496L251.515 293.962L211.335 294.267L205.245 283.809Z" fill="#2FB763"/>
<path d="M178.393 18.7641C180.167 18.4843 181.809 17.6546 183.086 16.3922C184.364 15.1298 185.213 13.4984 185.513 11.7275C185.632 11.0486 185.69 10.3604 185.685 9.67101H185.572C185.413 9.66975 185.255 9.64587 185.103 9.5998C184.705 9.50305 184.341 9.29865 184.051 9.00923C183.762 8.71939 183.558 8.35584 183.461 7.95794C183.398 7.73763 183.375 7.5081 183.39 7.27941L183.54 3.95798C183.54 3.95798 181.027 6.09408 178.037 5.14331C175.046 4.19253 169.689 -1.97704 155.356 2.66794C155.356 2.66794 151.168 3.14123 149.338 1.30251C149.291 1.25015 149.23 1.21329 149.162 1.19612C149.094 1.17937 149.022 1.18355 148.957 1.20785C148.891 1.23214 148.834 1.27612 148.794 1.33308C148.753 1.39046 148.731 1.45874 148.73 1.52868C148.73 2.82291 148.312 3.76949 147.03 4.80823C141.874 8.99666 139.675 16.9547 140.203 23.6562C140.469 26.4352 141.469 29.0936 143.101 31.3587C143.52 31.9535 148.965 37.3314 149.082 37.0299C149.082 37.0299 150.339 34.0142 150.636 33.2603L150.707 33.0927C150.657 33.0634 150.594 33.0257 150.54 33.0006C149.912 32.6308 149.308 32.2224 148.73 31.7776C146.452 29.9891 144.718 27.4844 146.594 24.6572C146.977 24.0696 147.494 23.5816 148.102 23.2332C151.114 21.5787 153.677 24.7871 154.67 27.5808C154.864 28.1144 154.997 28.6677 155.067 29.231C155.067 28.8792 155.097 28.5399 155.114 28.1881C155.164 26.9064 155.227 25.6289 155.289 24.3389C155.398 22.2196 155.495 20.117 155.591 17.9976C155.591 17.6374 155.436 15.606 155.712 15.3673C155.712 15.3673 158.9 12.6239 168.031 16.427C174.615 19.1662 175.176 14.7013 177.321 16.917C177.826 17.451 178.193 18.1011 178.389 18.8102C178.45 19.0384 178.495 19.2709 178.523 19.5054C178.527 19.536 178.527 19.567 178.523 19.5976C178.586 20.1086 178.632 20.6238 178.678 21.1264C179.05 25.9808 178.858 31.0865 177.249 35.7231C175.302 41.344 169.53 47.1491 162.984 45.0256C160.968 44.2742 159.082 43.2145 157.392 41.8843" stroke="#092514" stroke-width="1.90608" stroke-miterlimit="10"/>
<path d="M136.525 40.7458L143.905 32.1931" stroke="#092514" stroke-width="1.90608" stroke-miterlimit="10"/>
<path d="M163.997 31.4052C164.735 31.4052 165.333 30.8067 165.333 30.0691C165.333 29.3311 164.735 28.733 163.997 28.733C163.259 28.733 162.661 29.3311 162.661 30.0691C162.661 30.8067 163.259 31.4052 163.997 31.4052Z" fill="#092514"/>
<path d="M174.259 30.9194C174.997 30.9194 175.595 30.3208 175.595 29.5833C175.595 28.8453 174.997 28.2471 174.259 28.2471C173.521 28.2471 172.923 28.8453 172.923 29.5833C172.923 30.3208 173.521 30.9194 174.259 30.9194Z" fill="#092514"/>
<path d="M170.623 26.7402C170.623 26.7402 171.88 31.2762 172.018 31.737C172.483 33.2155 169.484 32.8846 169.484 32.8846" stroke="#092514" stroke-width="1.90608" stroke-miterlimit="10"/>
<path d="M168.6 21.0141C168.6 21.0141 164.073 18.4508 160.827 21.634" stroke="#092514" stroke-width="1.90608" stroke-miterlimit="10"/>
<path d="M164.667 32.5491C167.3 32.5491 169.434 30.4151 169.434 27.7827C169.434 25.1502 167.3 23.0162 164.667 23.0162C162.035 23.0162 159.901 25.1502 159.901 27.7827C159.901 30.4151 162.035 32.5491 164.667 32.5491Z" stroke="#092514" stroke-width="1.90608" stroke-miterlimit="10"/>
<path d="M176.73 32.7292C179.363 32.7292 181.497 30.5952 181.497 27.9627C181.497 25.3303 179.363 23.1963 176.73 23.1963C174.098 23.1963 171.964 25.3303 171.964 27.9627C171.964 30.5952 174.098 32.7292 176.73 32.7292Z" stroke="#092514" stroke-width="1.90608" stroke-miterlimit="10"/>
<path d="M176.73 24.9089H176.776C177.566 24.9433 178.312 25.283 178.856 25.8564C179.401 26.4298 179.702 27.1916 179.696 27.9824C179.69 28.7728 179.377 29.5305 178.824 30.0955C178.271 30.6605 177.52 30.9889 176.73 31.0115H176.684C175.875 30.9993 175.104 30.6664 174.54 30.0863C173.976 29.5058 173.665 28.7254 173.677 27.9162C173.692 27.1154 174.02 26.3523 174.591 25.7906C175.161 25.2285 175.929 24.9119 176.73 24.9089ZM176.73 23.954C175.667 23.946 174.644 24.3611 173.887 25.1071C173.13 25.8534 172.7 26.87 172.692 27.933C172.684 28.996 173.1 30.0184 173.846 30.7757C174.592 31.533 175.608 31.9627 176.671 31.9706H176.73C177.793 31.9782 178.816 31.5635 179.573 30.8172C180.33 30.0712 180.76 29.0547 180.768 27.9916C180.776 26.9286 180.361 25.9058 179.615 25.1485C178.868 24.3913 177.852 23.9615 176.789 23.954H176.73Z" fill="white"/>
<path d="M169.434 26.6974L171.959 26.4964" stroke="#092514" stroke-width="1.90608" stroke-miterlimit="10"/>
<path opacity="0.53" d="M164.667 31.8161C166.895 31.8161 168.701 30.0105 168.701 27.7827C168.701 25.5552 166.895 23.7492 164.667 23.7492C162.44 23.7492 160.634 25.5552 160.634 27.7827C160.634 30.0105 162.44 31.8161 164.667 31.8161Z" fill="white"/>
<path opacity="0.53" d="M176.73 31.9962C178.958 31.9962 180.763 30.1902 180.763 27.9627C180.763 25.7349 178.958 23.9293 176.73 23.9293C174.503 23.9293 172.697 25.7349 172.697 27.9627C172.697 30.1902 174.503 31.9962 176.73 31.9962Z" fill="white"/>
<path d="M114.729 221.808C90.7666 197.733 79.462 171.325 76.061 146.458C75.6895 143.755 75.4101 141.074 75.2233 138.416" stroke="#092514" stroke-width="1.90608" stroke-miterlimit="10"/>
<path d="M89.6483 70.2526C89.7614 70.0473 89.8619 69.8337 89.9792 69.6536" stroke="#092514" stroke-width="1.90608" stroke-miterlimit="10"/>
<path d="M130.913 161.042C130.913 161.042 162.77 207.621 152.86 238.435C147.834 254.042 130.318 261.43 115.24 254.997C103.093 249.815 87.6964 237.405 76.396 208.233" stroke="#092514" stroke-width="1.90608" stroke-miterlimit="10"/>
<path d="M112.157 219.173L81.3091 188.895C80.4818 188.076 79.4305 187.52 78.2884 187.298C77.1458 187.075 75.9629 187.195 74.8886 187.642C73.8143 188.09 72.8962 188.845 72.2499 189.814C71.6036 190.781 71.2581 191.919 71.2568 193.083L73.0746 227.085C73.2589 230.578 74.9049 233.924 77.795 235.901C80.685 237.878 84.6389 238.394 89.2587 232.827" stroke="#092514" stroke-width="1.90608" stroke-miterlimit="10"/>
<path d="M136.525 40.7454C120.381 35.0601 103.563 31.5074 86.4985 30.178C85.3509 30.0775 84.1907 30.0272 83.0431 30.0021C76.3835 29.8806 69.754 30.924 63.4538 33.0848C54.2015 36.2345 45.8623 41.5748 38.4111 47.8323C32.3044 52.9547 26.5704 58.3034 21.9547 64.8708C18.2948 70.1261 15.0113 75.6339 12.1287 81.3523C11.7978 82.0141 11.136 82.7806 10.2942 82.4748C9.91842 82.3039 9.58301 82.0556 9.30989 81.7461C8.16225 80.5482 7.46278 80.167 6.03453 79.3C1.67855 76.6864 -0.0680243 81.4947 1.54871 84.9083C2.86388 87.6978 5.25967 89.9344 7.9989 91.3711C12.3427 93.5683 17.3094 94.2071 22.0678 93.1805C30.608 91.2538 33.896 83.5471 39.3661 77.6581C42.6079 74.1047 46.277 70.9663 50.2895 68.3137C58.3062 63.0866 66.9846 63.5724 76.4044 66.0562L93.4555 70.5839C120.986 75.9367 124.555 55.3254 124.555 55.3254" stroke="#092514" stroke-width="1.90608" stroke-miterlimit="10"/>
<path d="M154.686 222.293C155.897 223.391 157.145 224.484 158.41 225.556C185.274 248.446 206.242 285.153 210.334 292.609C210.559 293.02 210.891 293.363 211.295 293.601C211.699 293.84 212.16 293.964 212.629 293.962H251.515L248.583 287.549C248.135 286.577 247.438 285.741 246.563 285.126C245.687 284.511 244.664 284.139 243.598 284.048L228.7 282.724L215 246.909C204.763 219.851 184.818 186.277 163.557 166.662C153.338 157.23 145.128 151.659 140.998 146.206L140.961 146.168C139.894 144.813 139.076 143.28 138.544 141.641" stroke="#092514" stroke-width="1.90608" stroke-miterlimit="10"/>
<path d="M150.272 116.988L150.309 116.95C150.908 116.263 151.532 115.551 152.198 114.81C152.492 114.479 152.785 114.148 153.091 113.817C156.737 109.837 160.006 105.528 162.858 100.946" stroke="#092514" stroke-width="1.90608" stroke-miterlimit="10"/>
<path d="M228.7 282.721L222.539 282.235" stroke="#092514" stroke-width="1.90608" stroke-miterlimit="10"/>
<path d="M136.525 40.7421C136.525 45.7054 139.038 57.8183 147.796 59.2508C155.101 60.4487 156.919 54.8822 157.325 52.9932C157.422 52.5204 157.55 52.0546 157.706 51.5985L160.672 43.1714" stroke="#092514" stroke-width="1.90608" stroke-miterlimit="10"/>
<path d="M80.4044 140.803C80.4802 140.839 80.5531 140.881 80.6222 140.929" stroke="#092514" stroke-width="1.90608" stroke-miterlimit="10"/>
<path d="M148.177 143.27C148.253 140.727 145.246 140.367 143.34 140.518C140.119 140.765 137.158 142.222 134.377 143.764C127.235 147.718 118.745 147.475 110.859 146.847C102.63 146.252 94.4759 144.878 86.5069 142.742C82.8253 141.728 79.1395 140.547 75.7594 138.746C75.7594 138.746 65.1543 131.626 62.0674 139.408" stroke="#092514" stroke-width="1.90608" stroke-miterlimit="10"/>
<path d="M150.318 116.929C148.362 119.304 146.577 122.077 146.004 125.142C145.448 128.311 145.432 131.552 145.958 134.726C146.168 136.204 146.49 137.664 146.921 139.094C147.34 140.447 148.274 141.8 148.177 143.283C148.111 143.902 147.887 144.493 147.527 145.001C147.167 145.51 146.683 145.917 146.121 146.185C145.074 146.717 143.821 147.174 142.628 147.023C142.069 146.946 141.545 146.704 141.124 146.328C141.073 146.285 141.026 146.239 140.982 146.189" stroke="#092514" stroke-width="1.90608" stroke-miterlimit="10"/>
<path d="M90.3226 69.742C82.4944 75.5555 66.7668 92.837 62.0506 139.408C62.0506 139.408 60.8779 146.189 76.0609 146.457" stroke="#092514" stroke-width="1.90608" stroke-miterlimit="10"/>
<path d="M184.462 272.629C184.465 276.318 183.511 279.945 181.693 283.155C179.875 286.365 177.255 289.048 174.09 290.943C170.924 292.837 167.322 293.878 163.634 293.964C159.946 294.05 156.298 293.177 153.049 291.431C149.059 288.004 146.477 283.222 145.798 278.006C145.12 272.789 146.394 267.507 149.375 263.173C152.356 258.839 156.833 255.76 161.947 254.527C167.061 253.294 172.449 253.996 177.078 256.496C179.397 258.495 181.258 260.971 182.532 263.756C183.807 266.54 184.465 269.567 184.462 272.629Z" fill="#2FB763"/>
<path d="M184.462 272.629C184.465 276.318 183.511 279.945 181.693 283.155C179.875 286.365 177.255 289.048 174.09 290.943C170.924 292.837 167.322 293.878 163.634 293.964C159.946 294.05 156.298 293.177 153.049 291.431C149.059 288.004 146.477 283.222 145.798 278.006C145.12 272.789 146.394 267.507 149.375 263.173C152.356 258.839 156.833 255.76 161.947 254.527C167.061 253.294 172.449 253.996 177.078 256.496C179.397 258.495 181.258 260.971 182.532 263.756C183.807 266.54 184.465 269.567 184.462 272.629Z" fill="#2FB763"/>
<path d="M163.13 293.961C174.911 293.961 184.462 284.41 184.462 272.629C184.462 260.848 174.911 251.298 163.13 251.298C151.349 251.298 141.799 260.848 141.799 272.629C141.799 284.41 151.349 293.961 163.13 293.961Z" stroke="#092514" stroke-width="1.90608" stroke-miterlimit="10"/>
<path d="M74.6453 137.938C74.6453 137.938 75.55 142.52 75.8055 144.488C76.061 146.457 75.4285 146.495 73.9123 146.369C72.3961 146.243 59.6716 144.505 62.5323 138.411C65.393 132.317 74.6453 137.938 74.6453 137.938Z" fill="#092514"/>
<path d="M139.855 141.486C139.855 141.486 137.572 142.227 141.183 145.788C144.793 149.348 148.161 143.275 148.161 143.275C148.161 143.275 147.997 140.426 143.65 140.799C139.302 141.172 139.855 141.486 139.855 141.486Z" fill="#092514"/>
</svg>
