<svg width="16" height="16" viewBox="0 0 16 16" fill="none" xmlns="http://www.w3.org/2000/svg">
<path d="M1.99996 4.66663H3.99996V8.99997C3.99996 9.17678 4.0702 9.34635 4.19522 9.47137C4.32025 9.5964 4.48982 9.66663 4.66663 9.66663C4.84344 9.66663 5.01301 9.5964 5.13803 9.47137C5.26306 9.34635 5.3333 9.17678 5.3333 8.99997V4.66663H7.3333C7.39611 4.66666 7.45764 4.64893 7.51082 4.61551C7.564 4.58208 7.60665 4.53431 7.63386 4.47769C7.66106 4.42108 7.67172 4.35794 7.66461 4.29553C7.65749 4.23312 7.63289 4.174 7.59363 4.12497L4.92696 0.791634C4.86672 0.722651 4.78156 0.680396 4.69019 0.674146C4.59882 0.667897 4.5087 0.698163 4.43963 0.7583C4.42778 0.768649 4.41664 0.779785 4.4063 0.791634L1.73963 4.12497C1.70037 4.174 1.67577 4.23312 1.66865 4.29553C1.66153 4.35794 1.67219 4.42108 1.6994 4.47769C1.72661 4.53431 1.76926 4.58208 1.82244 4.61551C1.87561 4.64893 1.93715 4.66666 1.99996 4.66663Z" fill="#5BBA96"/>
<path d="M11.0729 15.2083C11.1042 15.2473 11.1438 15.2788 11.1888 15.3005C11.2339 15.3222 11.2833 15.3334 11.3333 15.3334C11.3833 15.3334 11.4326 15.3222 11.4777 15.3005C11.5227 15.2788 11.5624 15.2473 11.5936 15.2083L14.2603 11.8749C14.2995 11.8259 14.3241 11.7668 14.3312 11.7044C14.3384 11.642 14.3277 11.5788 14.3005 11.5222C14.2733 11.4656 14.2306 11.4178 14.1774 11.3844C14.1243 11.351 14.0627 11.3332 13.9999 11.3333H11.9999V6.99992C11.9999 6.82311 11.9297 6.65354 11.8047 6.52851C11.6796 6.40349 11.5101 6.33325 11.3333 6.33325C11.1564 6.33325 10.9869 6.40349 10.8619 6.52851C10.7368 6.65354 10.6666 6.82311 10.6666 6.99992V11.3333H8.66659C8.60378 11.3332 8.54224 11.351 8.48906 11.3844C8.43589 11.4178 8.39324 11.4656 8.36603 11.5222C8.33882 11.5788 8.32816 11.642 8.33528 11.7044C8.34239 11.7668 8.367 11.8259 8.40626 11.8749L11.0729 15.2083Z" fill="#E16161"/>
</svg>
