<svg width="40" height="40" viewBox="0 0 40 40" fill="none" xmlns="http://www.w3.org/2000/svg">
<g clip-path="url(#clip0_0_358)">
<path d="M25.8334 19.1669C25.8334 22.5003 21.6667 25.0003 21.6667 27.5003H18.3334C18.3334 25.0003 14.1667 22.5003 14.1667 19.1669C14.1667 15.9503 16.7834 13.3336 20 13.3336C23.2167 13.3336 25.8334 15.9503 25.8334 19.1669ZM21.6667 29.1669H18.3334V30.0003C18.3334 30.9169 19.0834 31.6669 20 31.6669C20.9167 31.6669 21.6667 30.9169 21.6667 30.0003V29.1669ZM36.6667 20.0003C36.6667 15.9003 35.1834 12.1503 32.7334 9.25025C32.25 8.68359 31.4 8.61692 30.8667 9.15025C30.4167 9.60025 30.3667 10.3336 30.7667 10.8169C32.8834 13.2836 34.1667 16.5003 34.1667 20.0003C34.1667 23.5003 32.8834 26.7169 30.7667 29.2003C30.35 29.6836 30.4167 30.4169 30.8667 30.8669C31.4 31.4003 32.25 31.3336 32.7334 30.7669C35.1834 27.8503 36.6667 24.1003 36.6667 20.0003ZM5.83337 20.0003C5.83337 16.5003 7.11671 13.2836 9.23337 10.8003C9.65004 10.3169 9.58337 9.58359 9.13337 9.13359C8.61671 8.61692 7.75004 8.66692 7.26671 9.23359C4.81671 12.1503 3.33337 15.9003 3.33337 20.0003C3.33337 24.1003 4.81671 27.8503 7.26671 30.7669C7.75004 31.3336 8.60004 31.4003 9.13337 30.8669C9.58337 30.4169 9.63337 29.6836 9.23337 29.2003C7.11671 26.7169 5.83337 23.5003 5.83337 20.0003ZM29.1667 20.0003C29.1667 22.1336 28.4334 24.1169 27.2 25.6836C26.8167 26.1669 26.8667 26.8669 27.3167 27.3169C27.85 27.8503 28.7334 27.8003 29.2 27.2003C30.7334 25.2169 31.6667 22.7169 31.6667 20.0003C31.6667 17.2836 30.7334 14.7836 29.1834 12.8169C28.7167 12.2169 27.8334 12.1669 27.3 12.7003C26.8667 13.1336 26.8 13.8336 27.1834 14.3336C28.4334 15.8836 29.1667 17.8669 29.1667 20.0003ZM12.7 27.3003C13.1334 26.8669 13.2 26.1669 12.8167 25.6669C11.5667 24.1169 10.8334 22.1336 10.8334 20.0003C10.8334 17.8669 11.5667 15.8836 12.8 14.3169C13.1834 13.8336 13.1334 13.1336 12.6834 12.6836C12.1667 12.1669 11.2834 12.2169 10.8167 12.8003C9.26671 14.7836 8.33337 17.2836 8.33337 20.0003C8.33337 22.7169 9.26671 25.2169 10.8167 27.2003C11.2834 27.7836 12.1667 27.8336 12.7 27.3003Z" fill="#288763"/>
</g>
<defs>
<clipPath id="clip0_0_358">
<rect width="40" height="40" fill="white"/>
</clipPath>
</defs>
</svg>
