<svg width="40" height="40" viewBox="0 0 40 40" fill="none" xmlns="http://www.w3.org/2000/svg">
<path d="M7.71429 8.71429C7.71429 7.46398 8.21097 6.26488 9.09507 5.38078C9.97917 4.49668 11.1783 4 12.4286 4C13.6789 4 14.878 4.49668 15.7621 5.38078C16.6462 6.26488 17.1429 7.46398 17.1429 8.71429C17.1429 9.96459 16.6462 11.1637 15.7621 12.0478C14.878 12.9319 13.6789 13.4286 12.4286 13.4286C11.1783 13.4286 9.97917 12.9319 9.09507 12.0478C8.21097 11.1637 7.71429 9.96459 7.71429 8.71429ZM23.6934 12.448L23.7924 12.5234C24.7925 13.2648 26.0452 13.5804 27.2772 13.4015C28.5092 13.2226 29.6204 12.5636 30.3683 11.5684C31.1163 10.5732 31.4402 9.32255 31.2694 8.08941C31.0986 6.85626 30.447 5.74073 29.4567 4.98626C28.4665 4.23178 27.218 3.89962 25.9838 4.06227C24.7495 4.22491 23.6297 4.86916 22.8687 5.8544C22.1077 6.83964 21.7673 8.0859 21.9218 9.32119C22.0763 10.5565 22.7132 11.6805 23.6934 12.448ZM15.4174 15.7857C15.7135 15.2251 16.1196 14.73 16.6114 14.3299C17.1033 13.9299 17.6707 13.6332 18.2799 13.4575C18.8891 13.2818 19.5274 13.2308 20.1567 13.3076C20.7861 13.3843 21.3935 13.5872 21.9426 13.9041C22.4917 14.221 22.9712 14.6454 23.3525 15.1519C23.7338 15.6584 24.009 16.2367 24.1617 16.852C24.3143 17.4673 24.3413 18.1071 24.241 18.7331C24.1407 19.3591 23.9151 19.9585 23.5779 20.4953C22.929 21.528 21.9051 22.2691 20.7213 22.5628C19.5376 22.8565 18.286 22.68 17.2297 22.0703C16.1733 21.4606 15.3943 20.4653 15.0564 19.2934C14.7185 18.1215 14.8479 16.8642 15.4174 15.7857ZM6.53571 15.7857H12.8293C12.4104 16.9821 12.3193 18.2688 12.5655 19.5123C12.8117 20.7557 13.3862 21.9107 14.2294 22.8571H13.6071C12.3919 22.857 11.2063 23.2324 10.2126 23.932C9.21889 24.6316 8.46569 25.6211 8.05607 26.7653C7.26486 26.4475 6.52404 26.0163 5.85686 25.4854C4.08429 24.0593 3 21.952 3 19.3214C3 18.3837 3.37251 17.4844 4.03559 16.8213C4.69866 16.1582 5.59798 15.7857 6.53571 15.7857ZM25.3929 22.8571C27.9504 22.8571 30.1284 24.4859 30.9439 26.7653C31.7454 26.4376 32.4855 26.011 33.1431 25.4854C34.9157 24.0593 36 21.952 36 19.3214C36 18.3837 35.6275 17.4844 34.9644 16.8213C34.3013 16.1582 33.402 15.7857 32.4643 15.7857H26.1707C26.43 16.5235 26.5714 17.3179 26.5714 18.1429C26.5736 19.8827 25.9322 21.5619 24.7706 22.8571H25.3929ZM28.6622 27.4017C28.8343 27.8166 28.9286 28.2739 28.9286 28.75C28.9286 31.3806 27.8466 33.4879 26.0717 34.9139C24.3251 36.3164 21.9821 37 19.5 37C17.0179 37 14.6749 36.3164 12.9283 34.9139C11.1557 33.4879 10.0714 31.3806 10.0714 28.75C10.0702 28.2853 10.1608 27.825 10.338 27.3955C10.5153 26.9659 10.7757 26.5757 11.1042 26.2471C11.4328 25.9185 11.8231 25.6581 12.2526 25.4809C12.6821 25.3036 13.1425 25.213 13.6071 25.2143H25.3929C26.0932 25.2141 26.7778 25.4219 27.3598 25.8114C27.9419 26.2008 28.3952 26.7543 28.6622 27.4017Z" fill="#AEABAF"/>
</svg>
