<svg width="26" height="26" viewBox="0 0 26 26" fill="none" xmlns="http://www.w3.org/2000/svg">
<g clip-path="url(#clip0_0_37)">
<path opacity="0.2" fill-rule="evenodd" clip-rule="evenodd" d="M13.5 26C20.404 26 26 20.404 26 13.5C26 6.596 20.404 1 13.5 1C6.596 1 1 6.596 1 13.5C1 20.404 6.596 26 13.5 26ZM13.5 24C19.299 24 24 19.299 24 13.5C24 7.701 19.299 3 13.5 3C7.701 3 3 7.701 3 13.5C3 19.299 7.701 24 13.5 24Z" fill="#F1DC91"/>
<g opacity="0.2">
<path d="M16 17.444C19.038 17.444 21.5 16.45 21.5 15.222C21.5 13.995 19.038 13 16 13L10.5 15.222C10.5 16.45 12.962 17.444 16 17.444Z" fill="#F1DC91"/>
<path fill-rule="evenodd" clip-rule="evenodd" d="M18.195 15.222C17.5962 15.0948 16.987 15.0225 16.375 15.006L15.335 15.426C15.55 15.438 15.772 15.444 16 15.444C16.833 15.444 17.58 15.357 18.195 15.222ZM12.031 16.761C11.477 16.528 11.048 16.246 10.787 15.933C10.601 15.71 10.5 15.471 10.5 15.223L16 13C19.038 13 21.5 13.995 21.5 15.222C21.5 16.45 19.038 17.444 16 17.444C14.44 17.444 13.032 17.182 12.031 16.761Z" fill="#F1DC91"/>
<path d="M16 21C19.038 21 21.5 20.005 21.5 18.778V15H10.5V18.778C10.5 20.005 12.962 21 16 21Z" fill="#F1DC91"/>
<path fill-rule="evenodd" clip-rule="evenodd" d="M19.5 18.324C19.3839 18.3886 19.2636 18.4454 19.14 18.494C18.437 18.779 17.327 19 16 19C14.673 19 13.563 18.779 12.86 18.495C12.7363 18.4461 12.6161 18.3889 12.5 18.324V17H19.5V18.324ZM21.5 15V18.778C21.5 20.005 19.038 21 16 21C12.962 21 10.5 20.005 10.5 18.778V15H21.5Z" fill="#F1DC91"/>
<path d="M16.5 9.222C16.5 10.45 14.038 11.444 11 11.444C7.962 11.444 5.5 10.45 5.5 9.222C5.5 7.995 7.962 7 11 7C14.038 7 16.5 7.995 16.5 9.222Z" fill="#F1DC91"/>
<path fill-rule="evenodd" clip-rule="evenodd" d="M13.195 9.222C12.4733 9.07004 11.7375 8.99562 11 9C10.167 9 9.42 9.087 8.805 9.222C9.42 9.357 10.167 9.444 11 9.444C11.833 9.444 12.58 9.357 13.195 9.222ZM11 11.444C14.038 11.444 16.5 10.45 16.5 9.222C16.5 7.995 14.038 7 11 7C7.962 7 5.5 7.995 5.5 9.222C5.5 10.45 7.962 11.444 11 11.444Z" fill="#F1DC91"/>
<path d="M11 15C14.038 15 16.5 14.005 16.5 12.778V9.5H5.5V12.778C5.5 14.005 7.962 15 11 15Z" fill="#F1DC91"/>
<path fill-rule="evenodd" clip-rule="evenodd" d="M14.5 12.324C14.3839 12.3886 14.2636 12.4454 14.14 12.494C13.437 12.779 12.327 13 11 13C9.673 13 8.563 12.779 7.86 12.495C7.73634 12.4461 7.61607 12.3889 7.5 12.324V11.5H14.5V12.324ZM16.5 9.5V12.778C16.5 14.005 14.038 15 11 15C7.962 15 5.5 14.005 5.5 12.778V9.5H16.5Z" fill="#F1DC91"/>
</g>
<path fill-rule="evenodd" clip-rule="evenodd" d="M18.702 13.115C17.779 12.742 16.471 12.5 15 12.5V11.5C16.567 11.5 18.008 11.756 19.076 12.187C19.609 12.403 20.074 12.671 20.413 12.996C20.753 13.321 21 13.736 21 14.222C21 14.709 20.754 15.123 20.413 15.449C20.073 15.773 19.609 16.042 19.076 16.257C18.008 16.689 16.566 16.944 15 16.944C13.433 16.944 11.992 16.689 10.924 16.257C10.391 16.042 9.926 15.773 9.587 15.449C9.247 15.123 9 14.709 9 14.222H10C10 14.349 10.062 14.519 10.278 14.726C10.495 14.933 10.836 15.143 11.298 15.33C12.221 15.703 13.529 15.944 15 15.944C16.47 15.944 17.78 15.703 18.702 15.33C19.164 15.143 19.505 14.933 19.722 14.726C19.938 14.519 20 14.349 20 14.222C20 14.095 19.938 13.925 19.722 13.719C19.505 13.511 19.164 13.301 18.702 13.115Z" fill="#F1DC91"/>
<path fill-rule="evenodd" clip-rule="evenodd" d="M9.5 14.167C9.63261 14.167 9.75979 14.2197 9.85355 14.3134C9.94732 14.4072 10 14.5344 10 14.667V17.777C10 17.905 10.062 18.075 10.278 18.281C10.495 18.489 10.836 18.699 11.298 18.886C12.221 19.258 13.529 19.5 15 19.5C16.47 19.5 17.78 19.258 18.702 18.886C19.164 18.699 19.505 18.489 19.722 18.281C19.938 18.075 20 17.905 20 17.778V14.667C20 14.5344 20.0527 14.4072 20.1464 14.3134C20.2402 14.2197 20.3674 14.167 20.5 14.167C20.6326 14.167 20.7598 14.2197 20.8536 14.3134C20.9473 14.4072 21 14.5344 21 14.667V17.777C21 18.265 20.754 18.679 20.413 19.004C20.073 19.329 19.609 19.597 19.076 19.813C18.008 20.244 16.566 20.5 15 20.5C13.433 20.5 11.992 20.244 10.924 19.813C10.391 19.598 9.926 19.329 9.587 19.004C9.247 18.679 9 18.264 9 17.778V14.667C9 14.5344 9.05268 14.4072 9.14645 14.3134C9.24021 14.2197 9.36739 14.167 9.5 14.167Z" fill="#F1DC91"/>
<path fill-rule="evenodd" clip-rule="evenodd" d="M11.7 19.726V16H12.7V19.726H11.7ZM16.1 19.5V16.5H17.1V19.5H16.1ZM5.278 7.719C5.062 7.925 5 8.095 5 8.222C5 8.349 5.062 8.519 5.278 8.726C5.495 8.933 5.836 9.143 6.298 9.33C7.221 9.703 8.529 9.944 10 9.944C11.47 9.944 12.78 9.703 13.702 9.33C14.164 9.143 14.505 8.933 14.722 8.726C14.938 8.519 15 8.349 15 8.222C15 8.095 14.938 7.925 14.722 7.719C14.505 7.511 14.164 7.301 13.702 7.114C12.779 6.742 11.47 6.5 10 6.5C8.53 6.5 7.22 6.742 6.298 7.114C5.836 7.301 5.495 7.511 5.278 7.719ZM5.924 6.187C6.992 5.756 8.434 5.5 10 5.5C11.567 5.5 13.008 5.756 14.076 6.187C14.609 6.403 15.074 6.671 15.413 6.996C15.753 7.321 16 7.736 16 8.222C16 8.709 15.754 9.123 15.413 9.449C15.073 9.773 14.609 10.042 14.076 10.257C13.008 10.689 11.566 10.944 10 10.944C8.433 10.944 6.992 10.689 5.924 10.257C5.391 10.042 4.926 9.773 4.587 9.449C4.247 9.123 4 8.709 4 8.222C4 7.736 4.246 7.322 4.587 6.996C4.927 6.671 5.391 6.403 5.924 6.187Z" fill="#F1DC91"/>
<path fill-rule="evenodd" clip-rule="evenodd" d="M4.5 8.16699C4.63261 8.16699 4.75979 8.21967 4.85355 8.31344C4.94732 8.40721 5 8.53438 5 8.66699V11.777C5 11.905 5.062 12.075 5.278 12.281C5.495 12.489 5.836 12.699 6.298 12.886C7.221 13.258 8.529 13.5 10 13.5C11.47 13.5 12.78 13.258 13.702 12.886C14.164 12.699 14.505 12.489 14.722 12.281C14.938 12.075 15 11.905 15 11.778V8.66699C15 8.53438 15.0527 8.40721 15.1464 8.31344C15.2402 8.21967 15.3674 8.16699 15.5 8.16699C15.6326 8.16699 15.7598 8.21967 15.8536 8.31344C15.9473 8.40721 16 8.53438 16 8.66699V11.777C16 12.265 15.754 12.679 15.413 13.004C15.073 13.329 14.609 13.598 14.076 13.813C13.008 14.244 11.566 14.5 10 14.5C8.433 14.5 6.992 14.244 5.924 13.813C5.391 13.597 4.926 13.329 4.587 13.004C4.247 12.679 4 12.264 4 11.778V8.66699C4 8.53438 4.05268 8.40721 4.14645 8.31344C4.24021 8.21967 4.36739 8.16699 4.5 8.16699Z" fill="#F1DC91"/>
<path fill-rule="evenodd" clip-rule="evenodd" d="M6.69995 13.4998V10.1128H7.69995V13.4998H6.69995ZM11.1 13.4998V10.4998H12.1V13.4998H11.1Z" fill="#F1DC91"/>
<path fill-rule="evenodd" clip-rule="evenodd" d="M13 24.5C19.351 24.5 24.5 19.351 24.5 13C24.5 6.649 19.351 1.5 13 1.5C6.649 1.5 1.5 6.649 1.5 13C1.5 19.351 6.649 24.5 13 24.5ZM13 25.5C19.904 25.5 25.5 19.904 25.5 13C25.5 6.096 19.904 0.5 13 0.5C6.096 0.5 0.5 6.096 0.5 13C0.5 19.904 6.096 25.5 13 25.5Z" fill="#F1DC91"/>
</g>
<defs>
<clipPath id="clip0_0_37">
<rect width="26" height="26" fill="white"/>
</clipPath>
</defs>
</svg>
