<svg width="28" height="25" viewBox="0 0 28 25" fill="none" xmlns="http://www.w3.org/2000/svg">
<g clip-path="url(#clip0_287_3418)">
<path d="M11.5071 3.23146C6.44316 3.89813 3.45018 8.4312 4.82629 13.3499C6.20239 18.2686 11.4291 21.7196 16.493 21.0529C21.5568 20.3862 24.5498 15.8532 23.1737 10.9344C21.7976 6.01572 16.5709 2.56478 11.5071 3.23146ZM8.20657 10.1332L10.311 6.9459C10.4446 6.74353 10.729 6.70609 10.9623 6.86015L14.6282 9.2878L12.3347 9.58973L13.3319 13.154L11.4972 13.3956L10.5 9.83128L8.20657 10.1332ZM17.689 17.3384C17.5554 17.5408 17.271 17.5783 17.0377 17.4242L13.3718 14.9966L15.6653 14.6946L14.6681 11.1303L16.5028 10.8888L17.5 14.4531L19.7934 14.1511L17.689 17.3384Z" fill="white"/>
</g>
<defs>
<clipPath id="clip0_287_3418">
<rect width="22.1593" height="22.1593" fill="white" transform="matrix(0.993574 -0.130806 0.270003 0.96509 0 2.89854)"/>
</clipPath>
</defs>
</svg>
