<svg width="24" height="24" viewBox="0 0 24 24" fill="none" xmlns="http://www.w3.org/2000/svg">
<g clip-path="url(#clip0_0_380)">
<path opacity="0.1" fill-rule="evenodd" clip-rule="evenodd" d="M12 4.85714C10.1056 4.85714 8.28878 5.60969 6.94924 6.94924C5.60969 8.28878 4.85714 10.1056 4.85714 12C4.85714 13.8944 5.60969 15.7112 6.94924 17.0508C8.28878 18.3903 10.1056 19.1429 12 19.1429C13.8944 19.1429 15.7112 18.3903 17.0508 17.0508C18.3903 15.7112 19.1429 13.8944 19.1429 12C19.1429 10.1056 18.3903 8.28878 17.0508 6.94924C15.7112 5.60969 13.8944 4.85714 12 4.85714ZM2 12C2 6.47714 6.47714 2 12 2C17.5229 2 22 6.47714 22 12C22 17.5229 17.5229 22 12 22C6.47714 22 2 17.5229 2 12Z" fill="white"/>
<path fill-rule="evenodd" clip-rule="evenodd" d="M12.0005 4.85715C10.1589 4.85302 8.38775 5.56429 7.06052 6.84096C6.78554 7.09521 6.42173 7.23131 6.0474 7.21996C5.67307 7.20861 5.31816 7.05073 5.05909 6.7803C4.80002 6.50986 4.6575 6.14851 4.66222 5.77404C4.66694 5.39957 4.81852 5.04192 5.08433 4.77811C6.9433 2.99188 9.42246 1.99605 12.0005 2.00001C12.3794 2.00001 12.7428 2.15052 13.0107 2.41843C13.2786 2.68634 13.4291 3.0497 13.4291 3.42858C13.4291 3.80746 13.2786 4.17083 13.0107 4.43874C12.7428 4.70665 12.3794 4.85715 12.0005 4.85715Z" fill="white"/>
</g>
<defs>
<clipPath id="clip0_0_380">
<rect width="24" height="24" fill="white"/>
</clipPath>
</defs>
</svg>
