<svg width="331" height="379" viewBox="0 0 331 379" fill="none" xmlns="http://www.w3.org/2000/svg">
<path d="M227.778 377.951C242.326 378.37 257.009 368.157 266.669 358.191C296.411 327.493 312.699 283.588 314.588 241.253C315.487 221.63 312.548 202.021 305.937 183.524C296.566 157.426 271.901 144.381 248.434 163.316C210.762 193.69 155.341 130.674 81.0935 149.592C73.5029 151.538 66.1126 154.196 59.0213 157.53C56.9239 158.508 54.8909 159.572 52.9221 160.722" stroke="#E78181" stroke-width="1.29998" stroke-miterlimit="10"/>
<path d="M51.1375 161.778C44.3148 165.984 38.1648 171.193 32.8941 177.231C20.2515 191.633 8.59756 211.447 9.76631 231.207C10.7256 247.352 19.8997 259.982 31.4196 270.584C42.4913 280.789 62.3139 289.184 64.5467 305.848C67.2947 326.337 45.7671 341.091 36.6727 356.955C31.3107 366.326 35.9186 378.403 47.7569 377.984" stroke="#E78181" stroke-width="1.29998" stroke-miterlimit="10"/>
<path d="M33.3382 260.757L33.1622 265.072H33.2502V271.896H42.353V270.819L41.9383 260.757H33.3382Z" fill="#FCEFEF"/>
<path d="M29.1156 247.85C31.5951 250.444 33.0877 253.825 33.334 257.406H41.9383C42.1608 254.139 43.428 251.032 45.5535 248.542C47.0109 246.86 48.8122 245.51 50.8355 244.585C52.8592 243.659 55.0576 243.178 57.2829 243.175H59.9178L60.4247 230.734C60.5558 228.635 60.2537 226.532 59.5374 224.555C58.8207 222.579 57.7055 220.771 56.2603 219.243C54.8151 217.716 53.0712 216.502 51.1371 215.678C49.203 214.854 47.1198 214.436 45.0173 214.451H30.2508C28.1496 214.433 26.0668 214.847 24.1327 215.668C22.1986 216.489 20.4539 217.7 19.0078 219.225C17.5617 220.75 16.4449 222.556 15.7273 224.53C15.0093 226.505 14.7056 228.607 14.8351 230.705L15.3461 243.175H17.9811C20.0551 243.172 22.109 243.584 24.0213 244.387C25.9336 245.19 27.6658 246.367 29.1156 247.85Z" fill="#FCEFEF"/>
<path d="M87.4399 260.757L87.264 265.072H87.352V271.896H96.4548V270.819L96.0401 260.757H87.4399Z" fill="#FCEFEF"/>
<path d="M83.2174 247.85C85.7015 250.442 87.1974 253.824 87.4441 257.405H96.0485C96.2625 254.142 97.5197 251.035 99.6343 248.541C101.097 246.856 102.904 245.506 104.935 244.581C106.965 243.657 109.17 243.18 111.401 243.183H114.036L114.543 230.742C114.674 228.644 114.372 226.54 113.656 224.564C112.939 222.587 111.824 220.779 110.379 219.252C108.934 217.724 107.19 216.511 105.256 215.686C103.322 214.862 101.238 214.444 99.1358 214.459H84.3526C82.2514 214.441 80.1686 214.855 78.2345 215.676C76.3004 216.498 74.5556 217.708 73.1096 219.233C71.6635 220.758 70.5467 222.564 69.8291 224.539C69.1111 226.513 68.8074 228.615 68.9369 230.713L69.4312 243.175H72.0703C74.1464 243.169 76.2028 243.58 78.1176 244.383C80.032 245.186 81.7663 246.365 83.2174 247.85Z" fill="#FCEFEF"/>
<path d="M141.542 260.757L141.366 265.072H141.454V271.896H150.557V270.819L150.146 260.757H141.542Z" fill="#FCEFEF"/>
<path d="M137.319 247.85C139.8 250.443 141.293 253.824 141.538 257.405H150.142C150.358 254.142 151.618 251.034 153.736 248.541C155.198 246.856 157.006 245.506 159.036 244.581C161.067 243.657 163.272 243.18 165.503 243.183H168.138L168.645 230.742C168.776 228.644 168.474 226.54 167.757 224.564C167.041 222.587 165.925 220.779 164.481 219.252C163.035 217.724 161.291 216.511 159.357 215.686C157.423 214.862 155.34 214.444 153.238 214.459H138.454C136.353 214.441 134.27 214.855 132.336 215.676C130.402 216.498 128.657 217.708 127.211 219.233C125.765 220.758 124.648 222.564 123.93 224.539C123.213 226.513 122.909 228.615 123.039 230.713L123.55 243.183H126.189C128.262 243.179 130.314 243.589 132.226 244.391C134.138 245.192 135.869 246.368 137.319 247.85Z" fill="#FCEFEF"/>
<path d="M195.643 260.757L195.468 265.072H195.556V271.896H204.658V270.819L204.248 260.757H195.643Z" fill="#FCEFEF"/>
<path d="M191.421 247.85C193.902 250.443 195.395 253.824 195.639 257.405H204.244C204.46 254.142 205.72 251.034 207.838 248.541C209.301 246.857 211.108 245.507 213.139 244.582C215.169 243.658 217.374 243.181 219.605 243.183H222.244L222.747 230.742C222.878 228.644 222.576 226.54 221.86 224.564C221.143 222.587 220.028 220.779 218.582 219.252C217.137 217.724 215.393 216.511 213.459 215.686C211.525 214.862 209.442 214.444 207.339 214.459H192.556C190.455 214.441 188.373 214.855 186.438 215.676C184.504 216.498 182.76 217.708 181.314 219.233C179.867 220.758 178.751 222.564 178.033 224.539C177.315 226.513 177.011 228.615 177.14 230.713L177.651 243.183H180.291C182.363 243.179 184.416 243.589 186.328 244.391C188.239 245.192 189.971 246.368 191.421 247.85Z" fill="#FCEFEF"/>
<path d="M249.745 260.757L249.569 265.072H249.657V271.896H258.76V270.819L258.35 260.757H249.745Z" fill="#FCEFEF"/>
<path d="M245.523 247.85C248.004 250.443 249.497 253.824 249.741 257.405H258.358C258.571 254.143 259.826 251.036 261.94 248.541C263.403 246.856 265.211 245.506 267.242 244.581C269.273 243.657 271.479 243.18 273.711 243.183H276.346L276.849 230.742C276.98 228.644 276.678 226.54 275.961 224.564C275.245 222.587 274.129 220.779 272.684 219.252C271.239 217.724 269.495 216.511 267.561 215.686C265.627 214.862 263.544 214.444 261.441 214.459H246.658C244.557 214.441 242.474 214.855 240.54 215.676C238.606 216.498 236.861 217.708 235.415 219.233C233.969 220.758 232.852 222.564 232.134 224.539C231.416 226.513 231.113 228.615 231.242 230.713L231.753 243.183H234.392C236.465 243.179 238.518 243.589 240.43 244.391C242.341 245.192 244.073 246.368 245.523 247.85Z" fill="#FCEFEF"/>
<path d="M303.847 260.757L303.671 265.072H303.759V271.896H312.862V265.072H325.651C326.786 265.072 327.877 264.633 328.695 263.846C329.513 263.06 329.996 261.988 330.041 260.854L330.125 258.633C329.568 259.279 328.883 259.802 328.112 260.168C327.342 260.533 326.504 260.734 325.651 260.757H303.847Z" fill="#FCEFEF"/>
<path d="M299.624 247.85C302.106 250.443 303.599 253.825 303.843 257.406H325.651C326.785 257.405 327.876 256.967 328.694 256.181C329.512 255.396 329.995 254.325 330.041 253.191L330.95 230.734C331.082 228.635 330.78 226.532 330.064 224.555C329.348 222.578 328.232 220.769 326.787 219.242C325.342 217.715 323.598 216.501 321.664 215.677C319.729 214.852 317.646 214.435 315.543 214.451H300.76C298.658 214.433 296.576 214.847 294.642 215.668C292.707 216.489 290.963 217.7 289.517 219.225C288.071 220.75 286.954 222.556 286.236 224.53C285.518 226.505 285.214 228.607 285.344 230.705L285.855 243.175H288.494C290.568 243.172 292.621 243.583 294.532 244.386C296.444 245.19 298.175 246.367 299.624 247.85Z" fill="#FCEFEF"/>
<path d="M33.3382 318.202L33.1622 322.516H33.2502V329.34H42.353V328.264L41.9383 318.202H33.3382Z" fill="#FCEFEF"/>
<path d="M29.1156 305.29C31.5947 307.886 33.0868 311.268 33.334 314.849H41.9383C42.1587 311.581 43.4263 308.47 45.5535 305.977C47.0109 304.296 48.8126 302.948 50.8359 302.024C52.8596 301.1 55.0581 300.621 57.2829 300.619H59.9178L60.4247 288.178C60.5558 286.079 60.2537 283.976 59.5374 282C58.8207 280.023 57.7055 278.215 56.2603 276.688C54.8151 275.16 53.0712 273.947 51.1371 273.122C49.203 272.298 47.1198 271.88 45.0173 271.895H30.2508C28.1496 271.877 26.0668 272.291 24.1327 273.112C22.1986 273.934 20.4539 275.144 19.0078 276.669C17.5617 278.194 16.4449 280 15.7273 281.975C15.0093 283.95 14.7056 286.051 14.8351 288.148L15.3461 300.619H17.9811C20.0546 300.616 22.1081 301.028 24.02 301.83C25.9323 302.632 27.6649 303.809 29.1156 305.29Z" fill="#FCEFEF"/>
<path d="M87.4399 318.202L87.264 322.516H87.352V329.34H96.4548V328.264L96.0401 318.202H87.4399Z" fill="#FCEFEF"/>
<path d="M83.2174 305.29C85.7011 307.884 87.1966 311.267 87.4441 314.849H96.0485C96.263 311.583 97.523 308.472 99.6427 305.977C101.104 304.292 102.912 302.941 104.942 302.016C106.973 301.092 109.179 300.615 111.41 300.619H114.045L114.552 288.178C114.683 286.079 114.381 283.976 113.664 282C112.948 280.023 111.832 278.215 110.387 276.688C108.942 275.16 107.198 273.947 105.264 273.122C103.33 272.298 101.247 271.88 99.1442 271.895H84.3526C82.2514 271.877 80.1686 272.291 78.2345 273.112C76.3004 273.934 74.5556 275.144 73.1096 276.669C71.6635 278.194 70.5467 280 69.8291 281.975C69.1111 283.95 68.8074 286.051 68.9369 288.148L69.4312 300.619H72.0703C74.1459 300.614 76.2019 301.025 78.1163 301.827C80.0308 302.629 81.7654 303.807 83.2174 305.29Z" fill="#FCEFEF"/>
<path d="M141.542 318.202L141.366 322.516H141.454V329.34H150.557V328.264L150.146 318.202H141.542Z" fill="#FCEFEF"/>
<path d="M137.319 305.29C139.799 307.886 141.292 311.268 141.538 314.849H150.142C150.356 311.583 151.616 308.472 153.736 305.977C155.198 304.292 157.005 302.941 159.036 302.016C161.066 301.092 163.272 300.615 165.503 300.619H168.138L168.645 288.178C168.776 286.079 168.474 283.976 167.757 282C167.041 280.023 165.925 278.215 164.481 276.688C163.035 275.16 161.291 273.947 159.357 273.122C157.423 272.298 155.34 271.88 153.238 271.895H138.454C136.353 271.877 134.27 272.291 132.336 273.112C130.402 273.934 128.657 275.144 127.211 276.669C125.765 278.194 124.648 280 123.93 281.975C123.213 283.95 122.909 286.051 123.039 288.148L123.55 300.619H126.189C128.262 300.616 130.314 301.028 132.226 301.83C134.138 302.632 135.869 303.809 137.319 305.29Z" fill="#FCEFEF"/>
<path d="M195.643 318.202L195.468 322.516H195.556V329.34H204.658V328.264L204.248 318.202H195.643Z" fill="#FCEFEF"/>
<path d="M191.421 305.29C193.902 307.886 195.394 311.268 195.639 314.849H204.244C204.458 311.583 205.719 308.472 207.838 305.977C209.3 304.292 211.107 302.941 213.138 302.017C215.168 301.092 217.374 300.615 219.605 300.619H222.244L222.747 288.178C222.878 286.079 222.576 283.976 221.86 282C221.143 280.023 220.028 278.215 218.582 276.688C217.137 275.16 215.393 273.947 213.459 273.122C211.525 272.298 209.442 271.88 207.339 271.895H192.556C190.455 271.877 188.373 272.291 186.438 273.112C184.504 273.934 182.76 275.144 181.314 276.669C179.867 278.194 178.751 280 178.033 281.975C177.315 283.95 177.011 286.051 177.14 288.148L177.651 300.619H180.291C182.364 300.616 184.416 301.028 186.328 301.83C188.239 302.632 189.971 303.809 191.421 305.29Z" fill="#FCEFEF"/>
<path d="M249.745 318.202L249.569 322.516H249.657V329.34H258.76V328.264L258.35 318.202H249.745Z" fill="#FCEFEF"/>
<path d="M245.523 305.29C248.003 307.886 249.496 311.268 249.741 314.849H258.358C258.572 311.583 259.833 308.472 261.952 305.977C263.415 304.292 265.223 302.941 267.254 302.016C269.286 301.092 271.492 300.615 273.723 300.619H276.358L276.861 288.178C276.992 286.079 276.69 283.976 275.974 282C275.257 280.023 274.142 278.215 272.697 276.688C271.252 275.16 269.508 273.947 267.574 273.122C265.639 272.298 263.556 271.88 261.454 271.895H246.658C244.557 271.877 242.474 272.291 240.54 273.112C238.606 273.934 236.861 275.144 235.415 276.669C233.969 278.194 232.852 280 232.134 281.975C231.416 283.95 231.113 286.051 231.242 288.148L231.753 300.619H234.392C236.466 300.616 238.518 301.028 240.43 301.83C242.341 302.632 244.073 303.809 245.523 305.29Z" fill="#FCEFEF"/>
<path d="M303.847 318.202L303.671 322.516H303.759V329.34H312.862V322.516H325.651C326.786 322.516 327.877 322.077 328.695 321.291C329.513 320.504 329.996 319.432 330.041 318.298L330.125 316.078C329.568 316.723 328.883 317.246 328.112 317.612C327.342 317.977 326.504 318.178 325.651 318.202H303.847Z" fill="#FCEFEF"/>
<path d="M299.624 305.29C302.105 307.886 303.598 311.268 303.843 314.849H325.651C326.785 314.849 327.876 314.411 328.694 313.625C329.512 312.84 329.995 311.769 330.041 310.635L330.95 288.178C331.082 286.079 330.78 283.976 330.064 281.999C329.348 280.022 328.232 278.214 326.787 276.686C325.342 275.159 323.598 273.945 321.664 273.121C319.729 272.297 317.646 271.879 315.543 271.895H300.76C298.658 271.877 296.576 272.291 294.642 273.112C292.707 273.934 290.963 275.144 289.517 276.669C288.071 278.194 286.954 280 286.236 281.975C285.518 283.95 285.214 286.051 285.344 288.148L285.855 300.619H288.494C290.567 300.616 292.62 301.028 294.531 301.83C296.443 302.632 298.175 303.809 299.624 305.29Z" fill="#FCEFEF"/>
<path d="M67.1816 137.469C59.8927 131.889 55.1255 125.882 56.533 124.064C57.9406 122.245 64.9656 125.278 72.2588 130.862C79.5519 136.446 84.2982 142.441 82.9032 144.267C82.8772 144.307 82.8412 144.339 82.7985 144.36C81.1941 145.96 74.2989 142.931 67.1816 137.469Z" fill="#EDA0A0"/>
<path d="M86.8158 160.534C82.1743 163.831 75.5765 164.137 70.1894 162.21C73.7735 160.752 76.8676 158.302 79.1079 155.146C81.3482 151.992 82.6414 148.263 82.8362 144.398V144.369C86.7529 142.241 90.8834 144.39 92.3705 148.374C94.2262 153.451 90.7954 157.74 86.8158 160.534Z" fill="#EDA0A0"/>
<path d="M56.466 124.085C52.4851 125.33 48.9868 127.775 46.45 131.085C44.2452 133.952 42.8582 137.363 42.4368 140.955C39.1526 136.263 37.8037 129.866 39.8019 124.521C41.4775 119.959 44.7408 115.494 50.107 116.009C54.3128 116.377 57.4588 119.783 56.466 124.085Z" fill="#EDA0A0"/>
<path d="M52.7671 161.141L38.851 179.28C38.6051 179.601 38.2984 179.871 37.9482 180.074C37.598 180.277 37.2114 180.408 36.8105 180.461C36.4092 180.515 36.0016 180.489 35.6107 180.384C35.2199 180.28 34.8534 180.1 34.5321 179.854C34.2108 179.608 33.941 179.301 33.7382 178.951C33.5355 178.601 33.4039 178.214 33.3507 177.813C33.2975 177.413 33.3235 177.005 33.4278 176.614C33.5321 176.223 33.7123 175.856 33.9582 175.535L47.8575 157.392L52.7671 161.141Z" fill="#EDA0A0"/>
<path d="M45.6456 190.536C43.8611 192.87 36.9785 190.608 30.276 185.472C23.5735 180.336 19.5813 174.283 21.3826 171.95C22.9535 169.905 28.4035 171.38 34.2263 175.204L33.9749 175.535C33.7014 175.853 33.4957 176.223 33.3704 176.622C33.2448 177.022 33.2024 177.443 33.2452 177.86C33.2879 178.276 33.4152 178.68 33.6197 179.045C33.8237 179.411 34.1002 179.731 34.4324 179.986C34.7645 180.241 35.1453 180.426 35.5513 180.529C35.9576 180.632 36.3803 180.651 36.7937 180.585C37.2072 180.519 37.6031 180.369 37.9566 180.145C38.3106 179.921 38.6147 179.626 38.851 179.28L39.1023 178.954C44.3554 183.587 47.2291 188.492 45.6456 190.536Z" fill="#EDA0A0"/>
<path d="M75.1073 198.872C73.448 199.654 71.5697 199.836 69.7914 199.388C68.3449 198.905 67.1079 197.941 66.2852 196.657C62.272 196.619 59.9094 193.921 58.9292 190.591C58.6066 190.52 58.1919 190.411 57.9196 190.319C55.3056 189.263 53.7305 186.251 52.7503 183.754C52.3775 182.288 52.2937 180.65 53.1399 179.364C53.6849 178.536 54.4963 177.92 55.4397 177.617C56.3864 177.333 57.3876 177.437 58.3469 177.333C60.4414 177.064 62.3852 176.227 63.7675 174.58C67.4665 170.186 75.4969 171.12 76.984 180.7C78.4712 190.28 77.3108 197.54 82.1617 200.33C82.1194 200.359 82.0746 200.382 82.0277 200.402C80.0085 200.892 77.4323 200.858 75.1073 198.872Z" fill="#FCEFEF"/>
<path d="M9.86266 141.448C9.06464 143.095 8.86188 144.967 9.28875 146.747C9.75332 148.201 10.7047 149.449 11.9823 150.283C11.9823 154.3 14.6466 156.688 17.9643 157.706C18.0355 158.028 18.1402 158.447 18.2282 158.72C19.2545 161.342 22.2497 162.951 24.7338 163.96C26.2 164.346 27.8337 164.45 29.1282 163.617C29.9635 163.081 30.5889 162.275 30.9001 161.334C31.1976 160.391 31.1012 159.39 31.2185 158.431C31.5076 156.336 32.3663 154.405 34.0294 153.043C38.4614 149.395 37.6152 141.339 28.0516 139.76C18.4879 138.181 11.2032 139.257 8.48026 134.377C8.4522 134.419 8.42832 134.464 8.40905 134.511C7.89798 136.526 7.90217 139.098 9.86266 141.448Z" fill="#FCEFEF"/>
<path d="M82.8362 144.397V144.368C81.1605 145.935 74.3072 142.893 67.2026 137.464C60.4079 132.249 55.7999 126.64 56.3738 124.441C56.4128 124.3 56.4752 124.167 56.5582 124.047C56.5246 124.047 56.5037 124.047 56.4953 124.084C52.5149 125.329 49.0162 127.774 46.4793 131.084C44.2746 133.951 42.8876 137.362 42.4662 140.954C42.4662 141.004 42.4662 141.084 42.4452 141.13C42.0975 144.19 42.4511 147.289 43.4791 150.192C44.5071 153.096 46.1827 155.727 48.379 157.886C50.5753 160.046 53.2341 161.677 56.1543 162.656C59.075 163.635 62.1795 163.936 65.2337 163.537C66.8616 163.314 68.4576 162.9 69.9883 162.301L70.2187 162.209C73.7974 160.747 76.8852 158.294 79.12 155.14C81.3549 151.985 82.6439 148.258 82.8362 144.397ZM63.9351 143.522L57.7772 151.322L59.9052 152.947C60.0368 153.049 60.1469 153.176 60.2286 153.321C60.3107 153.465 60.3635 153.625 60.3832 153.79C60.4033 153.955 60.3899 154.123 60.3447 154.283C60.299 154.443 60.2223 154.593 60.1189 154.723C59.9626 154.919 59.7515 155.063 59.5127 155.137C59.2735 155.212 59.018 155.213 58.7784 155.142C58.6292 155.102 58.4881 155.038 58.3595 154.954L55.1883 152.553C55.1213 152.511 55.0585 152.44 54.9915 152.398L52.256 150.241C51.99 150.04 51.8145 149.742 51.768 149.412C51.7219 149.082 51.8082 148.748 52.0088 148.482C52.109 148.347 52.2351 148.234 52.3796 148.148C52.5241 148.063 52.6841 148.008 52.8508 147.986C53.0171 147.963 53.186 147.975 53.3481 148.019C53.5098 148.063 53.6614 148.139 53.7934 148.243L55.7874 149.784L59.2601 145.373L58.9501 145.474C58.7914 145.547 58.6192 145.587 58.4445 145.589C58.2698 145.593 58.0964 145.559 57.9351 145.491C57.7743 145.424 57.6289 145.323 57.5091 145.196C57.3889 145.069 57.2967 144.918 57.2381 144.754C57.1798 144.589 57.1564 144.414 57.1694 144.24C57.1823 144.066 57.2313 143.896 57.3135 143.742C57.396 143.588 57.5095 143.452 57.6469 143.344C57.7843 143.236 57.9431 143.159 58.1123 143.115L62.536 141.561C62.7923 141.463 63.0743 141.455 63.3361 141.538C63.5979 141.621 63.8237 141.79 63.977 142.018C64.1274 142.242 64.2032 142.508 64.1936 142.779C64.1839 143.048 64.0888 143.309 63.9225 143.522H63.9351Z" fill="#FCEFEF"/>
<path d="M135.786 324.82C129.896 327.451 124.593 328.376 123.935 326.893C123.277 325.411 127.513 322.097 133.398 319.466C139.284 316.836 144.579 315.914 145.241 317.372C145.25 317.404 145.25 317.437 145.241 317.468C145.718 319.014 141.542 322.269 135.786 324.82Z" fill="#EDA0A0"/>
<path d="M156.597 320.431C157.079 324.398 155.056 328.575 152.06 331.251C152.36 328.552 151.884 325.823 150.687 323.385C149.49 320.947 147.623 318.9 145.303 317.486H145.278C145.278 314.353 147.989 312.522 150.946 312.941C154.695 313.473 156.199 317.05 156.597 320.431Z" fill="#EDA0A0"/>
<path d="M123.931 326.948C123.368 329.821 123.705 332.798 124.894 335.473C125.925 337.796 127.567 339.795 129.645 341.258C125.648 341.715 121.246 340.42 118.619 337.379C116.365 334.807 114.702 331.305 116.818 328.163C118.443 325.696 121.61 324.892 123.931 326.948Z" fill="#EDA0A0"/>
<path d="M145.563 341.649L152.102 356.311C152.318 356.832 152.322 357.417 152.113 357.941C151.904 358.465 151.499 358.887 150.983 359.117C150.468 359.347 149.883 359.366 149.354 359.172C148.824 358.977 148.392 358.583 148.148 358.074L141.613 343.413L145.563 341.649Z" fill="#EDA0A0"/>
<path d="M161.322 355.896C162.16 357.777 158.461 361.266 153.045 363.683C147.628 366.101 142.572 366.524 141.734 364.639C140.997 362.988 143.737 360.114 148.047 357.806L148.165 358.07C148.408 358.579 148.841 358.973 149.371 359.168C149.9 359.362 150.485 359.343 151 359.113C151.515 358.883 151.921 358.461 152.13 357.937C152.339 357.413 152.335 356.828 152.119 356.307L152.002 356.043C156.597 354.363 160.585 354.241 161.322 355.896Z" fill="#EDA0A0"/>
<path d="M176.336 340.504C176.263 341.789 175.746 343.009 174.874 343.956C174.092 344.69 173.082 345.133 172.013 345.212C170.643 347.675 168.188 348.228 165.805 347.726C165.654 347.897 165.445 348.119 165.298 348.258C163.773 349.514 161.385 349.477 159.517 349.246C158.486 348.987 157.448 348.488 156.937 347.537C156.608 346.923 156.5 346.215 156.631 345.531C156.837 344.878 157.103 344.245 157.427 343.641C158.011 342.286 158.053 340.758 157.544 339.373C156.074 335.603 159.345 330.965 165.75 333.269C172.155 335.573 176.252 338.715 179.604 336.65C179.607 336.685 179.607 336.72 179.604 336.755C179.409 337.6 179.01 338.385 178.439 339.038C177.87 339.693 177.147 340.196 176.336 340.504Z" fill="#FCEFEF"/>
<path d="M119.034 361.529C119.783 362.577 120.873 363.33 122.117 363.662C123.169 363.862 124.258 363.693 125.2 363.184C127.68 364.533 130.047 363.687 131.79 361.978C132.012 362.045 132.305 362.12 132.502 362.158C134.466 362.405 136.46 361.094 137.914 359.896C138.647 359.125 139.259 358.149 139.171 357.072C139.122 356.377 138.835 355.72 138.358 355.212C137.836 354.773 137.275 354.382 136.682 354.044C135.464 353.212 134.61 351.945 134.299 350.504C133.528 346.545 128.275 344.367 124.094 349.741C119.914 355.116 118.137 359.971 114.204 360.013C114.221 360.044 114.241 360.073 114.263 360.101C114.879 360.713 115.637 361.164 116.469 361.413C117.301 361.662 118.182 361.702 119.034 361.529Z" fill="#FCEFEF"/>
<path d="M145.304 317.485H145.278C145.697 319.048 141.508 322.252 135.778 324.82C130.282 327.262 125.276 328.226 124.115 327.137C124.039 327.068 123.977 326.985 123.931 326.894C123.931 326.919 123.931 326.932 123.931 326.944C123.368 329.817 123.705 332.794 124.894 335.469C125.925 337.792 127.567 339.791 129.645 341.254C129.67 341.279 129.72 341.304 129.745 341.325C131.517 342.566 133.549 343.387 135.685 343.726C137.821 344.064 140.007 343.912 142.076 343.28C144.145 342.649 146.043 341.553 147.626 340.079C149.208 338.604 150.434 336.788 151.21 334.769C151.618 333.688 151.899 332.564 152.048 331.418C152.048 331.355 152.048 331.305 152.048 331.242C152.348 328.542 151.871 325.813 150.674 323.375C149.478 320.937 147.61 318.891 145.291 317.477L145.304 317.485ZM138.429 328.859L141.177 335.255L142.895 334.489C143.111 334.396 143.355 334.392 143.574 334.478C143.793 334.564 143.969 334.734 144.064 334.949C144.135 335.111 144.156 335.29 144.123 335.464C144.09 335.637 144.005 335.797 143.879 335.921C143.806 336.001 143.72 336.068 143.624 336.118L141.064 337.27C141.014 337.295 140.951 337.312 140.901 337.337L138.643 338.326C138.537 338.374 138.423 338.402 138.307 338.406C138.191 338.41 138.075 338.392 137.966 338.351C137.857 338.31 137.758 338.247 137.674 338.168C137.589 338.088 137.521 337.992 137.474 337.886C137.426 337.779 137.398 337.663 137.395 337.545C137.391 337.428 137.411 337.31 137.453 337.201C137.496 337.09 137.559 336.99 137.64 336.905C137.721 336.82 137.819 336.752 137.927 336.705L139.544 335.988L137.985 332.369L137.943 332.595C137.928 332.711 137.89 332.823 137.83 332.924C137.771 333.025 137.692 333.113 137.599 333.183C137.505 333.254 137.398 333.304 137.285 333.333C137.171 333.361 137.053 333.367 136.937 333.349C136.821 333.331 136.71 333.29 136.611 333.229C136.511 333.167 136.424 333.087 136.356 332.992C136.288 332.897 136.24 332.789 136.214 332.675C136.188 332.56 136.185 332.442 136.205 332.327L136.724 329.076C136.747 328.884 136.836 328.705 136.976 328.57C137.116 328.436 137.297 328.354 137.491 328.339C137.682 328.314 137.877 328.351 138.046 328.445C138.214 328.538 138.349 328.683 138.429 328.859Z" fill="#FCEFEF"/>
<path d="M276.911 189.12C272.471 187.025 269.304 184.386 269.84 183.255C270.376 182.124 274.398 182.958 278.838 185.073C283.279 187.189 286.437 189.807 285.909 190.938C285.9 190.962 285.884 190.984 285.863 191.001C285.201 192.014 281.251 191.193 276.911 189.12Z" fill="#EDA0A0"/>
<path d="M289.776 199.032C287.711 201.273 284.284 202.169 281.247 201.755C282.962 200.592 284.311 198.965 285.134 197.063C285.957 195.161 286.22 193.064 285.893 191.018C287.711 189.468 290.111 190.134 291.338 192.057C292.863 194.504 291.535 197.126 289.776 199.032Z" fill="#EDA0A0"/>
<path d="M269.807 183.294C267.859 184.389 266.298 186.06 265.337 188.077C264.499 189.824 264.15 191.766 264.327 193.695C262.086 191.6 260.666 188.396 261.123 185.376C261.5 182.795 262.706 180.093 265.576 179.766C267.821 179.494 269.853 180.927 269.807 183.294Z" fill="#EDA0A0"/>
<path d="M271.985 203.133L266.736 214.192C266.643 214.388 266.512 214.563 266.351 214.709C266.19 214.854 266.002 214.966 265.797 215.038C265.593 215.111 265.376 215.143 265.159 215.131C264.943 215.12 264.731 215.066 264.535 214.973C264.339 214.88 264.163 214.749 264.018 214.588C263.873 214.427 263.761 214.239 263.688 214.034C263.616 213.83 263.584 213.613 263.595 213.397C263.606 213.18 263.66 212.968 263.753 212.772L269.023 201.721L271.985 203.133Z" fill="#EDA0A0"/>
<path d="M271.52 219.332C270.841 220.756 266.983 220.333 262.899 218.385C258.815 216.437 256.058 213.706 256.737 212.282C257.327 211.025 260.352 211.205 263.829 212.563L263.733 212.764C263.639 212.961 263.585 213.175 263.573 213.393C263.562 213.611 263.594 213.829 263.667 214.035C263.741 214.241 263.854 214.43 264 214.592C264.146 214.754 264.323 214.886 264.52 214.98C264.717 215.073 264.931 215.128 265.149 215.139C265.367 215.15 265.585 215.118 265.791 215.045C265.997 214.972 266.187 214.859 266.349 214.712C266.511 214.566 266.642 214.389 266.736 214.192L266.832 213.995C270.087 215.834 272.115 218.088 271.52 219.332Z" fill="#EDA0A0"/>
<path d="M287.887 220.429C287.105 221.024 286.141 221.327 285.16 221.288C284.348 221.197 283.592 220.831 283.019 220.249C280.924 220.668 279.37 219.52 278.486 217.886C278.31 217.886 278.068 217.886 277.925 217.853C276.442 217.593 275.282 216.177 274.49 214.988C274.282 214.638 274.15 214.249 274.101 213.845C274.052 213.441 274.087 213.031 274.205 212.642C274.4 212.148 274.757 211.736 275.219 211.473C275.701 211.27 276.2 211.112 276.71 211C277.786 210.667 278.693 209.936 279.245 208.955C280.694 206.241 285.017 205.835 286.852 210.694C288.687 215.553 288.896 219.491 291.749 220.412L291.686 220.463C291.099 220.771 290.445 220.929 289.782 220.923C289.12 220.917 288.468 220.747 287.887 220.429Z" fill="#FCEFEF"/>
<path d="M247.307 197.574C247.071 198.527 247.174 199.532 247.596 200.418C248 201.129 248.636 201.679 249.398 201.977C249.842 204.071 251.492 205.035 253.36 205.202C253.432 205.362 253.536 205.571 253.612 205.705C254.45 206.962 256.188 207.473 257.604 207.728C258.008 207.78 258.417 207.747 258.807 207.632C259.198 207.516 259.56 207.321 259.87 207.058C260.248 206.685 260.486 206.194 260.545 205.667C260.541 205.144 260.49 204.622 260.39 204.109C260.268 202.989 260.582 201.866 261.265 200.971C263.184 198.567 261.843 194.436 256.657 194.688C251.471 194.939 247.772 196.292 245.795 194.039C245.792 194.063 245.792 194.089 245.795 194.114C245.745 194.77 245.856 195.429 246.12 196.033C246.384 196.636 246.791 197.165 247.307 197.574Z" fill="#FCEFEF"/>
<path d="M285.884 191.017C285.172 192.027 281.247 191.193 276.92 189.136C272.781 187.155 269.74 184.725 269.798 183.511C269.802 183.433 269.819 183.356 269.849 183.284C269.849 183.284 269.823 183.284 269.819 183.309C267.872 184.405 266.31 186.076 265.349 188.093C264.512 189.84 264.163 191.781 264.34 193.711C264.342 193.743 264.342 193.775 264.34 193.807C264.501 195.449 265.033 197.032 265.896 198.438C266.758 199.843 267.928 201.035 269.319 201.923C270.709 202.81 272.282 203.37 273.92 203.561C275.559 203.752 277.219 203.568 278.775 203.023C279.604 202.724 280.394 202.329 281.13 201.846L281.243 201.771C282.958 200.608 284.307 198.981 285.129 197.079C285.953 195.177 286.216 193.08 285.888 191.034L285.884 191.017ZM275.877 192.655L273.514 197.435L274.813 198.051C274.974 198.131 275.096 198.272 275.154 198.442C275.211 198.613 275.198 198.799 275.118 198.96C275.062 199.082 274.968 199.184 274.851 199.251C274.734 199.317 274.599 199.346 274.465 199.333C274.383 199.33 274.302 199.313 274.226 199.282L272.308 198.369C272.266 198.369 272.228 198.323 272.186 198.306L270.51 197.469C270.43 197.431 270.358 197.378 270.298 197.313C270.239 197.247 270.192 197.171 270.162 197.087C270.132 197.004 270.119 196.916 270.123 196.827C270.128 196.739 270.15 196.652 270.188 196.572C270.226 196.491 270.28 196.418 270.347 196.358C270.413 196.298 270.491 196.251 270.575 196.221C270.66 196.191 270.749 196.178 270.839 196.183C270.928 196.188 271.016 196.211 271.097 196.25L272.312 196.836L273.644 194.138L273.493 194.226C273.417 194.274 273.332 194.305 273.244 194.32C273.155 194.335 273.065 194.331 272.978 194.311C272.89 194.29 272.808 194.252 272.736 194.2C272.663 194.147 272.602 194.08 272.555 194.004C272.509 193.928 272.479 193.844 272.467 193.757C272.454 193.669 272.458 193.58 272.48 193.494C272.502 193.409 272.541 193.328 272.594 193.258C272.647 193.187 272.713 193.127 272.789 193.083L274.934 191.776C275.058 191.696 275.206 191.66 275.352 191.674C275.499 191.689 275.637 191.753 275.743 191.855C275.846 191.957 275.915 192.09 275.939 192.233C275.963 192.377 275.942 192.525 275.877 192.655Z" fill="#FCEFEF"/>
<path d="M206.661 92.6422C204.591 98.181 201.628 103.343 197.889 107.924C192.9 89.0061 167.179 83.8577 167.179 83.8577C157.104 98.8839 140.645 88.3652 140.645 88.3652L127.161 81.005C129.494 79.1031 133.532 75.5173 136.046 73.5903C136.632 75.8943 138.065 78.7638 141.491 79.8069C147.566 81.6417 158.667 83.0492 161.926 71.8184C163.006 68.2631 163.633 64.5851 163.79 60.8723C163.949 60.8723 164.108 60.8455 164.259 60.7927C168.218 59.6868 172.897 58.539 176.91 57.785C179.728 57.2308 182.598 56.9903 185.468 57.0687C190.604 57.2488 194.827 58.694 198.278 61.1446C198.278 61.1446 198.278 61.1446 198.304 61.1446C201.6 63.4905 204.168 66.7622 206.162 70.725C206.165 70.7518 206.174 70.7774 206.187 70.8004C209.174 77.6286 209.279 85.4998 206.661 92.6422Z" fill="#672929"/>
<path d="M101.687 92.2107C101.687 92.2107 103.857 88.1683 105.692 89.9235C107.527 91.6787 114.753 98.3016 107.124 101.33C99.4961 104.359 99.052 95.2269 100.045 95.0467C101.038 94.8666 101.687 92.2107 101.687 92.2107Z" fill="#FCEFEF"/>
<path d="M199.091 179.422C197.386 180.817 195.69 182.149 194.039 183.397C165.679 204.975 145.287 207.438 133.44 205.092C132.474 204.911 131.517 204.68 130.575 204.401C123.797 202.407 120.697 198.905 121.401 197.837C123.357 194.904 129.624 154.886 129.624 154.886C129.624 154.886 129.297 156.344 128.581 158.69C131.97 116.066 99.2992 116.121 99.2992 116.121C102.051 111.312 106.023 105.828 109.659 100.156C122.976 108.693 129.976 117.578 151.13 122.806C183.592 130.808 201.131 107.99 206.774 92.6451C209.392 85.5237 209.287 77.6315 206.317 70.8159C219.718 97.827 205.291 157.102 199.091 179.422Z" fill="#672929"/>
<path d="M76.4981 61.9774L70.0888 65.1108L67.2864 70.8666L9.58617 25.4278C8.02909 24.2193 6.84778 22.5935 6.1792 20.7398C5.51021 18.886 5.38202 16.8803 5.80931 14.9565C6.23617 13.0326 7.20133 11.2696 8.59127 9.87282C9.98162 8.47606 11.7402 7.50303 13.6621 7.06699C15.4932 7.46415 17.1797 8.3568 18.5382 9.64745L76.4981 61.9774Z" fill="#FCEFEF"/>
<path d="M180.634 15.3988C180.774 16.2317 180.764 17.0828 180.605 17.9123C179.122 19.9356 177.207 23.3245 174.74 23.58C171.05 23.9612 171.05 23.9612 169.219 24.1749C168.381 24.4765 168.167 25.3562 167.962 28.0833C167.928 28.56 167.858 29.0334 167.753 29.4992C166.387 31.2502 165.055 34.1071 163.069 34.4255C160.594 34.8444 158.512 33.8265 158.189 36.009C157.297 36.9473 156.932 38.3088 156.987 40.1226C157.009 41.1163 156.867 42.107 156.568 43.055C156.215 43.6515 155.805 44.2124 155.345 44.7306C154.297 45.8826 151.805 44.7599 149.09 43.7043C146.376 42.6487 144.738 44.5882 144.872 46.4481C143.067 47.7635 143.666 51.6049 143.615 53.5695C143.565 55.5342 143.347 57.6371 142.459 59.4342C141.834 60.6373 140.859 61.6222 139.662 62.2593C138.465 62.8969 137.104 63.1562 135.757 63.0033C132.594 62.6766 130.026 60.1254 128.723 57.3565C127.466 54.6545 127.835 51.3829 126.277 48.8694C125.322 47.3278 123.881 46.1298 122.398 45.0993C121.363 44.3913 120.303 43.8006 119.403 42.9084C119.243 42.7714 119.121 42.5954 119.051 42.3973C118.917 41.8737 119.821 41.3375 120.152 41.0694C123.977 37.9946 129.368 39.7247 132.234 38.7654C135.099 37.8061 154.017 25.4819 154.017 25.4819C154.017 25.4819 168.712 14.8249 171.477 12.5293C174.242 10.2337 179.784 10.3007 180.634 15.3988Z" fill="#EDA0A0"/>
<path d="M143.862 31.9925L133.017 37.7902C131.027 33.7142 129.021 26.9656 131.019 18.0598C131.63 15.3311 132.82 12.7652 134.507 10.5352C136.195 8.30518 138.34 6.46283 140.8 5.13234C145.02 3.50502 149.693 3.49459 153.92 5.10302C158.252 6.71087 162.221 9.1644 165.595 12.3208C166.094 11.7217 166.634 11.1185 167.187 10.5362C168.832 8.85236 170.566 7.25821 172.382 5.7607C174.409 4.01805 176.734 1.95284 179.365 1.15273C179.445 1.11796 179.527 1.08994 179.612 1.06895C184.538 -0.288306 176.872 11.7343 143.862 31.9925Z" fill="#672929"/>
<path d="M172.968 11.2151C174.644 11.2151 176.546 10.7962 178.091 11.634C181.3 13.3097 181.304 17.9176 179.553 20.6405C177.04 24.5364 171.594 23.6902 167.669 24.5071C170.284 28.0933 173.842 30.8833 177.949 32.5668C177.949 32.5668 176.135 34.741 174.627 36.4878C173.789 37.4555 173.676 39.4872 173.722 41.0958C173.826 43.3717 173.301 45.6325 172.206 47.6307C166.341 57.8646 153.64 50.1442 153.64 50.1442" stroke="#1F1C21" stroke-width="1.95206" stroke-linejoin="round"/>
<path d="M143.904 31.9678C143.904 31.9678 143.875 31.9971 143.862 32.0013C140.617 34.0875 137.32 36.0802 133.972 37.9791C133.273 38.4282 132.504 38.7591 131.697 38.9593C131.373 39.018 131.043 39.0431 130.713 39.0347C130.261 39.0347 129.8 39.0054 129.335 38.9929C126.126 38.8546 122.94 39.5932 120.119 41.1293C119.237 41.5675 118.515 42.2725 118.058 43.1442C117.354 44.6397 118.146 45.6241 119.042 46.3321C121.036 47.9449 123.822 48.678 125.171 50.8563C126.222 52.5319 126.147 54.6265 126.516 56.5576C127.001 59.0375 128.237 61.3084 130.055 63.0632C132.347 65.2583 135.97 66.4815 138.752 64.9525C140.524 63.9723 141.613 62.0872 142.333 60.1811C143.234 57.7708 143.678 55.2138 143.645 52.6408C143.624 51.4344 143.494 50.2028 143.741 49.0173C143.988 47.8318 144.7 46.663 145.836 46.2483C148.106 45.4105 150.385 47.8946 152.773 47.6349C154.767 47.4254 156.069 45.3854 156.518 43.4207C156.966 41.456 156.857 39.3824 157.557 37.5016C158.625 34.5692 160.451 34.7368 163.061 34.4603C166.856 34.0623 168.993 27.6572 167.669 24.5071" stroke="#1F1C21" stroke-width="1.95206" stroke-linejoin="round"/>
<path d="M130.713 39.0268C128.702 34.9592 126.629 28.1562 128.648 19.1454C131.182 7.83494 143.096 1.00676 153.916 5.09948C158.249 6.71026 162.219 9.16819 165.591 12.3298C167.568 9.93785 170.027 7.7721 172.377 5.76135C174.472 3.96843 176.889 1.82782 179.608 1.08217C184.538 -0.27509 176.876 11.735 143.867 31.9934" stroke="#1F1C21" stroke-width="1.95206" stroke-linejoin="round"/>
<path d="M172.13 258.453L170.057 264.837C166.85 274.716 160.598 283.326 152.197 289.434C143.795 295.541 133.676 298.833 123.29 298.836H28.6171V321.808C28.6263 322.81 28.336 323.792 27.7831 324.628C27.2305 325.464 26.4405 326.115 25.5147 326.498C24.5893 326.882 23.5701 326.981 22.5882 326.781C21.6063 326.581 20.7065 326.092 20.0044 325.377C19.5323 324.911 19.1582 324.355 18.9035 323.742C18.6488 323.129 18.5189 322.472 18.5215 321.808V283.654L53.1943 275.314L113.643 260.761C116.272 260.131 118.654 258.729 120.48 256.734C122.306 254.739 123.493 252.243 123.889 249.568L130.562 204.401" stroke="#1F1C21" stroke-width="1.95206" stroke-miterlimit="10"/>
<path d="M131.429 142.772C131.429 142.772 121.484 191.55 90.7954 183.875C62.5988 176.825 75.7147 101.552 77.7129 87.129C77.9463 85.4353 78.495 83.7999 79.3299 82.3074C81.7638 77.9424 87.641 70.6827 97.6361 76.9789C108.49 83.8196 104.607 88.5491 101.704 92.2103C100.122 94.2106 99.2632 96.6859 99.2657 99.2354V101.477C99.2657 101.477 96.2663 145.386 101.36 160.375" stroke="#1F1C21" stroke-width="1.95206" stroke-miterlimit="10"/>
<path d="M109.227 99.8851C122.817 108.51 129.754 117.529 151.118 122.808C183.579 130.809 201.119 107.991 206.761 92.6464C209.379 85.525 209.275 77.6328 206.305 70.8172C206.291 70.7945 206.282 70.7686 206.28 70.7418C205.461 68.8676 204.425 67.096 203.192 65.4635C201.768 63.5617 200.155 61.9824 198.421 61.1614C198.421 61.1614 198.421 61.1614 198.396 61.1614" stroke="#1F1C21" stroke-width="1.95206" stroke-miterlimit="10"/>
<path d="M173.412 69.1571C170.061 77.1917 168.385 86.7511 159.567 90.6051C150.749 94.459 143.02 89.7673 126.834 81.3556C115.473 75.4658 104.46 69.0272 96.8905 65.4707C88.173 61.378 81.3909 60.6868 76.4981 61.977C70.5161 63.5437 67.3115 68.0637 66.7376 72.9482C66.4088 75.7481 66.929 78.582 68.231 81.0821C69.533 83.5825 71.5567 85.6335 74.0391 86.969C75.9284 87.9869 76.9715 88.0916 77.5831 87.7398" stroke="#1F1C21" stroke-width="1.95206" stroke-miterlimit="10"/>
<path d="M109.646 100.157C105.658 106.374 101.268 112.381 98.52 117.504" stroke="#1F1C21" stroke-width="1.95206" stroke-miterlimit="10"/>
<path d="M194.022 183.41L196.536 188.169L205.475 207.347C209.056 215.027 212.313 222.846 215.248 230.806C234.271 282.591 229.868 291.547 229.868 328.239L229.319 345.071L228.565 368.161H247.76C248.432 368.165 249.096 368.307 249.712 368.577C250.328 368.847 250.882 369.24 251.34 369.732C251.799 370.223 252.152 370.804 252.379 371.437C252.605 372.07 252.699 372.743 252.657 373.414C252.489 376.032 250.181 378.022 247.563 378.022H204.784L204.365 368.471L202.895 345.485L200.536 308.764C199.816 298.807 196.895 289.133 191.985 280.441C187.076 271.748 180.299 264.253 172.143 258.495C171.514 258.039 170.886 257.611 170.254 257.192C144.88 240.474 136.021 220.605 133.453 205.135" stroke="#1F1C21" stroke-width="1.95206" stroke-miterlimit="10"/>
<path d="M132.183 137.57L129.611 154.888C129.611 154.888 123.344 194.922 121.376 197.855C120.672 198.923 123.772 202.425 130.55 204.419C131.492 204.698 132.449 204.929 133.415 205.11C145.262 207.456 165.671 204.98 193.997 183.428C195.673 182.171 197.348 180.847 199.049 179.452C205.249 157.133 219.676 97.8576 206.28 70.8423C206.266 70.8193 206.257 70.7937 206.254 70.7669C204.273 66.804 201.692 63.5324 198.396 61.1865C198.396 61.1865 198.396 61.1865 198.371 61.1865C194.915 58.7359 190.696 57.2907 185.56 57.1105C182.684 57.0314 179.808 57.2714 176.985 57.8269C172.972 58.5809 168.293 59.7287 164.334 60.8346C163.994 60.9314 163.635 60.9456 163.288 60.8765C162.94 60.807 162.614 60.6562 162.337 60.4358C162.059 60.2159 161.838 59.9327 161.692 59.6102C161.545 59.2876 161.477 58.9349 161.494 58.5809L161.741 52.7162" stroke="#1F1C21" stroke-width="1.95206" stroke-miterlimit="10"/>
<path d="M99.2866 98.1923L102.403 100.614C103.148 101.171 104.032 101.511 104.959 101.595C105.885 101.68 106.816 101.505 107.649 101.092C108.482 100.679 109.185 100.043 109.678 99.2542C110.171 98.4654 110.435 97.5556 110.442 96.6256C110.442 95.9491 110.305 95.2792 110.038 94.6572C109.772 94.0351 109.382 93.4733 108.892 93.0062L104.175 88.4821" stroke="#1F1C21" stroke-width="1.95206" stroke-miterlimit="10"/>
<path d="M66.7376 72.9494L5.02429 25.4245C3.9079 24.5628 2.97793 23.4828 2.29176 22.2504C1.60559 21.0182 1.17747 19.6591 1.03295 18.2561C0.888423 16.853 1.03043 15.4352 1.45102 14.0889C1.8716 12.7426 2.56154 11.4959 3.47894 10.4245C4.39677 9.3532 5.52237 8.4797 6.78789 7.85704C8.0534 7.23441 9.43244 6.8757 10.8412 6.80273C12.25 6.72976 13.6584 6.94403 14.9817 7.43251C16.305 7.921 17.5148 8.67348 18.5382 9.64426L76.4981 61.9782" stroke="#1F1C21" stroke-width="1.95206" stroke-miterlimit="10"/>
<path d="M137.533 65.4292L137.206 69.124L136.854 73.0533C134.316 74.8923 129.272 79.3997 126.834 81.356" stroke="#1F1C21" stroke-width="1.95206" stroke-miterlimit="10"/>
<path d="M136.875 73.0529C136.398 77.8242 141.064 80.1743 145.073 80.9116C149.945 81.8332 155.965 80.6393 159.316 76.6681C162.78 72.5335 163.421 66.3085 163.258 61.1434" stroke="#1F1C21" stroke-width="1.95206" stroke-miterlimit="10"/>
<path d="M53.2111 275.314V298.836H28.6338V321.809C28.6431 322.811 28.3528 323.793 27.7998 324.628C27.2473 325.464 26.4572 326.116 25.5314 326.499C24.6061 326.883 23.5869 326.981 22.6049 326.781C21.623 326.581 20.7232 326.093 20.0211 325.378C19.549 324.911 19.1749 324.355 18.9202 323.743C18.6655 323.13 18.5357 322.472 18.5382 321.809V283.655L53.2111 275.314Z" fill="#672929"/>
<path d="M252.657 373.398C252.489 376.016 250.181 378.006 247.563 378.006H204.784L204.365 368.454L202.895 345.469C202.983 345.209 203.025 345.075 203.025 345.075H229.332L228.578 368.165H247.76C248.432 368.17 249.096 368.312 249.712 368.582C250.328 368.852 250.882 369.245 251.34 369.737C251.799 370.228 252.152 370.809 252.379 371.442C252.605 372.075 252.699 372.748 252.657 373.418V373.398Z" fill="#672929"/>
<path d="M281.666 377.984H18.5382" stroke="#1F1C21" stroke-width="1.95206" stroke-miterlimit="10"/>
</svg>
