<svg width="281" height="44" viewBox="0 0 281 44" fill="none" xmlns="http://www.w3.org/2000/svg">
<path d="M39.8803 34.9016V38.6132H57.7509C57.5447 40.8814 55.414 43.562 51.9773 43.562H32.8352V31.7055C33.2132 28.7156 34.7597 27.1691 37.4747 27.1691H39.8803V29.9528H50.912V34.9016H39.8803ZM32.8352 27.6846V20.7426H57.7509C57.3041 23.1483 55.2421 25.6914 52.0117 25.6914H37.4747C36.1 25.6914 34.1755 26.0351 32.8352 27.6846Z" fill="#288763"/>
<path d="M64.647 37.1011C61.6228 37.1011 59.9044 35.5889 59.4577 32.599V20.7426H66.4684V37.1011H64.647ZM64.647 38.6132H84.4077C84.2015 40.7439 82.2083 43.562 78.7029 43.562H59.4577V36.4481C60.9354 38.2008 63.1005 38.5788 64.647 38.6132Z" fill="#288763"/>
<path d="M91.3039 37.1011C88.2796 37.1011 86.5613 35.5889 86.1145 32.599V20.7426H93.1253V37.1011H91.3039ZM91.3039 38.6132H111.065C110.858 40.7439 108.865 43.562 105.36 43.562H86.1145V36.4481C87.5923 38.2008 89.7574 38.5788 91.3039 38.6132Z" fill="#288763"/>
<path d="M133.907 27.1004C133.907 27.1004 139.027 37.7884 141.811 43.562H134.732L132.395 38.6819H123.15L125.521 33.7331H130.023L127.79 29.0249L128.305 27.9596C129.199 26.2069 130.504 24.9697 132.051 25.3134C132.876 25.4852 133.529 26.31 133.907 27.1004ZM132.463 24.0762C130.161 23.2514 128.408 24.4886 126.965 27.3066L119.164 43.562H112.118L123.047 20.7426H130.848L132.463 24.0762Z" fill="#288763"/>
<path d="M161.919 29.9528C165.837 29.9528 168.758 33.252 168.758 36.8261C168.758 40.7783 165.15 43.562 161.919 43.562H147.76C144.874 43.562 141.643 41.5 141.059 38.6132H159.823C161.816 38.6132 161.713 36.7574 161.713 36.7574V36.6887C161.713 36.1388 161.645 34.9016 159.823 34.9016H147.76C146.042 34.9016 144.049 34.1455 142.88 32.7365C142.605 32.2554 142.434 31.7055 142.434 31.1213C142.434 28.3376 145.664 27.2035 148.035 27.2035C148.001 27.341 148.001 27.4784 148.001 27.5815V28.097C148.001 28.5782 148.035 29.9528 149.857 29.9528H161.919ZM161.919 20.7426C167.315 20.7426 168.655 25.6914 168.655 25.6914H148.723C145.664 25.6914 142.227 26.5162 141.196 29.781C141.059 29.2655 140.956 28.6813 140.956 28.097V27.5815C140.956 23.7669 144.564 20.7426 147.76 20.7426H161.919Z" fill="#288763"/>
<path d="M189.761 20.7426C193.541 20.7426 196.669 23.9731 197.219 28.2001L197.116 28.0627C195.569 26.1038 193.163 25.6914 191.514 25.6914H173.403C169.76 25.6914 167.732 22.3578 167.629 20.7426H189.761ZM191.514 27.1691C194.538 27.1691 197.012 28.7844 197.012 31.4306C197.012 34.2143 194.263 37.1698 191.617 37.9602C191.239 38.1321 190.792 38.2352 190.277 38.2352H177.527V43.562H170.482V27.1691H177.527V33.3207H187.149C188.868 33.3207 190.277 31.6024 190.277 29.5061C190.277 28.6125 190.036 27.8221 189.624 27.1691H191.514Z" fill="#288763"/>
<path d="M219.983 20.7426C223.213 20.7426 225.825 23.3545 225.825 26.5849V28.0627C224.279 26.1038 221.873 25.6914 220.189 25.6914H207.886C206.133 25.6914 206.03 27.066 206.03 27.5815V37.1354H203.006C201.253 37.1354 198.985 36.0013 198.985 33.1489V26.5849C198.985 23.3545 201.597 20.7426 204.793 20.7426H219.983ZM220.189 27.1691C223.832 27.1691 225.825 29.128 225.825 32.9427V37.7884C225.825 40.9845 223.179 43.5963 219.983 43.5963H204.793C201.631 43.5963 198.985 40.9845 198.985 37.7884V36.8949C199.844 38.0977 201.837 38.6132 203.006 38.6132L216.924 38.6475C218.677 38.6475 218.78 37.2729 218.78 36.7918L218.746 27.1691H220.189Z" fill="#288763"/>
<path d="M254.447 32.9771C253.553 35.314 251.835 37.1354 249.67 37.8915L255.065 43.5276H246.336L241.319 38.2352H235.27V43.562H228.225V27.1691H235.27V33.3207H244.893C246.611 33.3207 248.02 31.6024 248.02 29.5061C248.02 28.6125 247.78 27.8221 247.367 27.1691H249.326C252.419 27.1691 254.481 28.7844 254.481 31.9461L254.447 32.9771ZM249.12 25.6914H231.146C227.675 25.6914 225.545 22.6328 225.373 20.7426H247.161C251.388 20.8457 254.481 24.0418 254.962 28.3032C253.656 26.3787 251.388 25.6914 249.12 25.6914Z" fill="#288763"/>
<path d="M274.47 20.7426C277.598 20.7426 280.484 23.0452 280.484 25.6914H258.971C256.015 25.6914 253.541 23.2857 253.232 20.7426H274.47ZM263.335 27.2035H270.346V43.5276H263.335V27.2035Z" fill="#288763"/>
<path d="M10.6049 0H49.2477C49.2477 4.68817 43.7129 8.88073 38.1542 8.88073H0C0.549765 4.4361 5.35155 0 10.6049 0ZM20.1835 8.88073H29.0642V24.5417C29.0642 29.6764 25.2712 34.0218 20.1835 34.7156V8.88073Z" fill="#288763"/>
<path d="M20.1835 40.6972C20.1835 38.512 21.3771 36.4865 23.2955 35.4401L29.0642 32.2936V38.4084C29.0642 41.4966 26.5608 44 23.4726 44C21.6561 44 20.1835 42.5137 20.1835 40.6972Z" fill="#E16161"/>
</svg>
