<svg width="195" height="199" viewBox="0 0 195 199" fill="none" xmlns="http://www.w3.org/2000/svg">
<path d="M54.2251 57.0326C54.2251 57.0326 74.9195 22.5765 116.286 36.0609C157.587 49.5474 147.828 100.744 147.801 100.878C147.982 99.9404 155.137 99.0466 155.894 98.9365C177 95.817 192.699 115.448 194.256 134.795C196.189 158.792 177.627 175.788 156.488 183.105" stroke="#ADDDCB" stroke-width="1.21" stroke-miterlimit="10"/>
<path d="M153.763 194.364C153.138 196.563 152.684 197.82 152.684 197.82H152.358C152.873 196.699 153.342 195.547 153.763 194.364Z" fill="#144432"/>
<path d="M96.1775 107.56C96.1775 107.56 95.4334 112.078 94.6628 116.168C92.4613 116.193 90.2598 116.21 88.0824 116.228C86.9817 110.033 88.1771 105.181 89.5971 101.947C91.3869 106.028 94.0904 107.27 96.1775 107.56Z" fill="#32A97C"/>
<path d="M132.362 123.861C127.885 121.45 123.114 119.633 118.169 118.456L116.548 118.176C116.548 118.176 115.342 115.433 115.335 115.424C114.769 113.987 113.832 112.078 113.541 110.563C113.187 108.774 113.101 106.942 113.286 105.128C113.603 102.433 114.857 96.7334 117.125 94.9369C119.016 93.4487 119.796 93.7613 120.868 91.4343C121.638 89.7743 121.951 86.985 120.454 85.761C118.794 84.418 118.085 85.1005 116.099 85.3074C108.552 86.056 104.24 80.6248 101.466 74.3482C101.025 73.3289 100.567 72.2524 99.8475 71.385C99.0219 70.3855 97.8793 70.1609 96.9436 69.353C96.5452 69.0051 96.2722 68.4371 96.4637 67.944C96.5766 67.7082 96.7407 67.5006 96.9436 67.3364C98.7119 65.7075 100.835 64.5127 103.145 63.8469C106.799 62.7904 110.66 62.67 114.373 63.4969C118.248 64.7804 121.731 67.2109 124.075 70.9249C127.309 76.0566 128.089 81.3799 126.277 86.6856C124.421 92.119 122.349 98.5012 125.837 103.73C130.48 110.676 133.278 115.561 132.362 123.861Z" fill="#32A97C"/>
<path d="M94.6717 116.168C92.4701 116.192 90.2686 116.21 88.0913 116.227C71.5006 116.313 55.6209 116.082 38.9774 119.067" stroke="#1F1C21" stroke-width="1.21" stroke-miterlimit="10"/>
<path d="M116.286 118.015C116.918 118.154 117.543 118.299 118.169 118.455C120.606 119.045 123.005 119.78 125.354 120.657C127.764 121.554 130.106 122.623 132.362 123.858C132.364 123.856 132.367 123.855 132.371 123.855C132.374 123.855 132.377 123.856 132.379 123.858C135.928 125.781 139.208 128.163 142.134 130.942C144.581 133.327 146.697 136.028 148.424 138.976C148.439 138.987 148.451 139.002 148.457 139.02C149.858 141.372 151.075 143.83 152.096 146.371C155.143 153.876 156.871 162.517 157.136 171.116C157.376 179.237 156.306 187.324 153.774 194.364C153.353 195.547 152.884 196.699 152.369 197.821C152.336 197.906 152.292 197.983 152.259 198.069" stroke="#1F1C21" stroke-width="1.21" stroke-miterlimit="10"/>
<path d="M125.852 197.959C125.852 197.959 125.852 197.942 125.852 197.933C125.866 197.896 125.877 197.859 125.885 197.821" stroke="#1F1C21" stroke-width="1.21" stroke-miterlimit="10"/>
<path d="M120.042 148.451C120.042 148.451 124.833 150.778 127.981 158.043C129.564 161.696 130.737 166.607 130.669 173.102C130.669 173.102 130.669 173.102 130.669 173.119C130.634 177.26 130.088 182.042 128.82 187.553V187.583" stroke="#1F1C21" stroke-width="1.21" stroke-miterlimit="10"/>
<path d="M29.3809 56.2207C30.2263 53.0219 31.5824 49.724 32.6017 48.337C34.2044 46.1795 36.2959 44.1233 38.9862 44.3082C40.7144 44.4205 42.4117 45.376 42.4888 47.2693C42.5614 49.3233 40.3951 51.6041 39.6995 53.5348C39.039 55.3973 38.7374 57.5659 39.0852 59.5252C39.4331 61.4846 41.1921 63.0146 43.0898 63.4351C43.8097 63.6247 44.5752 63.521 45.2187 63.1467C47.0768 61.9711 46.6871 58.8405 46.6123 56.9935C46.5242 54.9218 46.5264 52.5794 48.2942 51.1616C49.5931 50.1203 51.5635 50.8116 52.5212 51.9564C54.1855 53.9377 54.267 56.9208 54.3506 59.3601C54.5994 66.7088 53.2939 73.7537 49.0141 79.94C46.8126 83.1344 44.545 86.0008 43.6534 89.9195C40.8795 102.098 40.5713 110.541 38.9774 122.909" stroke="#1F1C21" stroke-width="1.21" stroke-miterlimit="10"/>
<path d="M72.5815 198.151C64.0748 173.974 68.1036 147.56 68.1036 147.56L22.4086 149.008C20.4631 149.07 18.5269 148.714 16.7307 147.964C14.9344 147.214 13.3198 146.088 11.9954 144.661C10.6712 143.235 9.66795 141.541 9.05346 139.694C8.43901 137.847 8.22756 135.89 8.43333 133.954L19.6259 93.1378L22.0476 84.4307C22.8199 81.6909 22.6429 78.7706 21.5456 76.1442L20.4053 73.4231C20.4053 73.4231 18.338 69.2072 22.9722 69.6034C25.4644 69.8236 27.9367 70.8825 30.0281 72.2122C31.6705 73.258 34.1758 75.2812 33.4009 77.5245C32.485 80.1664 28.8943 80.8268 26.7853 79.3408" stroke="#1F1C21" stroke-width="1.21" stroke-miterlimit="10"/>
<path d="M21.4312 69.5817C21.4312 69.5817 17.5168 60.7756 28.2559 63.0542C38.995 65.3327 41.5664 77.0669 33.3701 75.746" stroke="#1F1C21" stroke-width="1.21" stroke-miterlimit="10"/>
<path d="M24.9712 62.5498C24.9712 62.5498 21.5368 58.3779 26.6708 56.3855C31.8048 54.3931 50.4473 63.8025 38.4886 73.0709" stroke="#1F1C21" stroke-width="1.21" stroke-miterlimit="10"/>
<path d="M99.2596 107.362C98.263 107.635 97.221 107.703 96.1973 107.56C94.1014 107.269 91.398 106.019 89.6169 101.946C89.2471 101.114 88.9466 100.252 88.7187 99.3703C87.8117 95.9997 87.4154 91.3105 87.946 84.7719C88.0494 83.5149 88.2035 82.238 88.4171 80.9633C88.7707 78.7459 89.3406 76.5684 90.1189 74.4622C90.1189 74.4622 90.1189 74.4446 90.1365 74.4358C92.0782 69.3018 95.4928 64.9692 101.234 63.3026C105.54 62.0605 110.118 62.1266 114.386 63.492C118.261 64.7755 121.744 67.2059 124.088 70.9199C127.323 76.0517 128.102 81.375 126.29 86.6807C124.434 92.114 122.362 98.4963 125.85 103.725C130.486 110.682 133.284 115.567 132.386 123.867" stroke="#1F1C21" stroke-width="1.21" stroke-miterlimit="10"/>
<path d="M86.3301 116.485C84.6437 108.399 86.9201 102.503 88.7077 99.3703" stroke="#1F1C21" stroke-width="1.21" stroke-miterlimit="10"/>
<path d="M88.4171 80.9545C88.4171 80.9545 92.1091 77.0952 96.3866 83.1913" stroke="#1F1C21" stroke-width="1.21" stroke-miterlimit="10"/>
<path d="M97.8176 100.387C99.3785 101.398 101.492 100.77 102.641 99.2136C103.889 97.525 104.389 95.2707 104.66 93.2255C104.678 93.078 104.697 92.9327 104.711 92.7852C102.806 95.777 99.1099 96.4947 95.8561 96.8074C95.9793 97.7859 96.3432 98.7185 96.915 99.5218C97.1598 99.8637 97.4658 100.157 97.8176 100.387Z" stroke="#1F1C21" stroke-width="1.21" stroke-linecap="round" stroke-linejoin="round"/>
<path d="M114.772 113.857L114.763 113.848" stroke="#1F1C21" stroke-width="1.21" stroke-miterlimit="10"/>
<path d="M100.248 79.7678C100.248 79.7678 101.503 77.7358 105.792 79.2329C110.08 80.7299 110.131 83.1758 110.131 83.1758" stroke="#1F1C21" stroke-width="1.21" stroke-miterlimit="10"/>
<path d="M90.4997 84.8207C90.4997 84.8207 92.4811 83.819 94.0332 84.8207" stroke="#1F1C21" stroke-width="1.21" stroke-miterlimit="10"/>
<path d="M101.177 85.7427C101.177 85.7427 103.159 84.741 104.7 85.7427" stroke="#1F1C21" stroke-width="1.21" stroke-miterlimit="10"/>
<path d="M96.1775 107.56C96.1775 107.56 95.4334 112.078 94.6628 116.168C94.5505 116.749 94.4427 117.322 94.3458 117.888C93.8416 120.642 93.4388 123.09 93.4212 123.832C93.2935 129.996 99.1209 133.551 104.75 133.492C112.649 133.406 117.268 126.057 116.524 118.698C116.037 117.355 115.54 116.012 115.053 114.669C114.428 112.947 113.616 111.272 113.264 109.458C112.952 107.671 112.918 105.846 113.162 104.049C113.479 101.363 114.001 97.3583 116.269 95.5619C118.16 94.0737 120.135 93.0962 121.213 90.7692C121.984 89.1092 121.949 86.9715 120.452 85.7475C118.792 84.4045 116.165 84.5674 114.179 84.7634C101.371 86.0733 99.2398 73.1085 95.7746 71.2878C92.9346 69.7886 90.8035 73.1525 90.1365 74.4008L90.1101 74.4536C90.109 74.4662 90.1035 74.4778 90.0946 74.4866C89.9736 74.7068 89.9141 74.8543 89.9141 74.8543" stroke="#1F1C21" stroke-width="1.21" stroke-miterlimit="10"/>
<path d="M95.8495 86.3131C95.8495 86.3131 94.511 90.6942 94.6144 91.3502C94.7179 92.0063 96.2788 91.5484 96.2788 91.5484" stroke="#1F1C21" stroke-width="1.21" stroke-miterlimit="10"/>
<path d="M106.338 90.9365C108.389 88.8895 108.351 85.5271 106.255 83.4266C104.158 81.3261 100.796 81.2828 98.7451 83.33C96.6944 85.377 96.7321 88.7391 98.8288 90.8396C100.926 92.9401 104.288 92.9835 106.338 90.9365Z" stroke="#1F1C21" stroke-width="1.21" stroke-miterlimit="10"/>
<path d="M92.956 89.3104C95.0065 87.2634 94.9691 83.9012 92.8723 81.8008C90.7754 79.7003 87.4134 79.6569 85.3627 81.7039C83.3122 83.7509 83.3496 87.1131 85.4466 89.2135C87.5433 91.314 90.9055 91.3574 92.956 89.3104Z" stroke="#1F1C21" stroke-width="1.21" stroke-miterlimit="10"/>
<path d="M89.0423 81.4282C89.6268 81.4255 90.2054 81.5453 90.7408 81.78C91.276 82.0147 91.7564 82.359 92.1505 82.7907C92.5445 83.2222 92.8437 83.7319 93.0289 84.2862C93.214 84.8406 93.2809 85.4277 93.2252 86.0096C93.1323 86.9879 92.6771 87.8963 91.9488 88.5563C91.2205 89.2161 90.2717 89.5798 89.2889 89.5761C88.7044 89.5787 88.1258 89.4587 87.5904 89.224C87.0552 88.9896 86.5749 88.6452 86.1808 88.2135C85.7867 87.7818 85.4875 87.2724 85.3024 86.718C85.1172 86.1635 85.0503 85.5765 85.106 84.9947C85.1989 84.0163 85.6542 83.108 86.3824 82.4479C87.1107 81.7881 88.0596 81.4242 89.0423 81.4282ZM89.0423 80.8206C87.9099 80.8177 86.817 81.2382 85.9785 81.9993C85.1399 82.7606 84.6159 83.8076 84.5094 84.9352C84.396 86.1797 84.7709 87.4197 85.5553 88.3925C86.3397 89.3656 87.4718 89.9952 88.7121 90.1484C88.9021 90.1711 89.0932 90.1828 89.2845 90.1837C90.4183 90.1881 91.5127 89.7685 92.3526 89.007C93.1927 88.2457 93.7175 87.1977 93.8241 86.069C93.9374 84.8245 93.5625 83.5846 92.7781 82.6115C91.9937 81.6387 90.8617 81.009 89.6213 80.8558C89.4313 80.8331 89.2402 80.8214 89.0489 80.8206H89.0423Z" fill="white"/>
<path d="M97.2541 86.4865L94.4449 86.1453" stroke="#1F1C21" stroke-width="1.21" stroke-miterlimit="10"/>
<path d="M105.908 90.5053C107.726 88.6901 107.693 85.7093 105.834 83.8472C103.975 81.9849 100.994 81.9468 99.176 83.762C97.3577 85.5769 97.3905 88.558 99.2495 90.4201C101.108 92.2821 104.089 92.3205 105.908 90.5053Z" fill="#32A97C"/>
<path d="M92.5267 88.8796C94.3458 87.0637 94.313 84.0813 92.4532 82.2184C90.5936 80.3555 87.6111 80.3174 85.792 82.1332C83.9729 83.9492 84.0059 86.9314 85.8655 88.7944C87.7254 90.6575 90.7076 90.6956 92.5267 88.8796Z" fill="#32A97C"/>
<path d="M46.2336 12.3772C39.8492 12.7031 34.5655 17.8194 34.0569 24.1862C33.9053 25.9627 34.1252 27.7512 34.7029 29.438C35.2805 31.1246 36.2032 32.6725 37.4121 33.983C38.3035 34.9636 39.3435 35.798 40.4942 36.4554C40.7945 36.6286 41.0781 36.829 41.3418 37.0542C43.0647 37.924 44.9673 38.3786 46.8974 38.3817C48.8277 38.3848 50.7315 37.9361 52.4573 37.0718C52.7083 36.8386 52.987 36.6377 53.2873 36.473C54.4851 35.7881 55.5676 34.9187 56.4949 33.8972C56.5185 33.8639 56.5442 33.8322 56.572 33.8025C58.2542 31.8984 59.3367 29.5401 59.6836 27.0234C60.0308 24.5068 59.627 21.9435 58.5232 19.6553C57.4194 17.367 55.6643 15.4556 53.4784 14.1609C51.2925 12.8662 48.7731 12.2456 46.2358 12.3772H46.2336ZM54.2251 32.5454C54.2007 32.5637 54.1807 32.5871 54.1657 32.6137C53.4471 33.3994 52.6099 34.068 51.6846 34.5951C51.4543 34.7212 51.2412 34.8766 51.0505 35.0574C49.7199 35.7234 48.2522 36.0701 46.7642 36.0701C45.2761 36.0701 43.8084 35.7234 42.4778 35.0574C42.2717 34.8815 42.0507 34.7239 41.8173 34.5863C40.0392 33.5634 38.6209 32.0158 37.757 30.155C36.8934 28.2945 36.6263 26.2123 36.9929 24.1939C37.3592 22.1756 38.3413 20.3201 39.804 18.8819C41.2667 17.4438 43.1385 16.4932 45.1628 16.161C47.1869 15.8288 49.2644 16.1308 51.1102 17.026C52.956 17.9211 54.4794 19.3653 55.4719 21.1605C56.4643 22.9558 56.8771 25.014 56.6534 27.0533C56.43 29.0924 55.5808 31.0123 54.2229 32.5499L54.2251 32.5454Z" fill="#32A97C"/>
<path d="M52.4529 37.0736C51.9461 37.5333 51.5417 38.0945 51.2656 38.7208C50.9896 39.3469 50.848 40.0239 50.8502 40.7084V41.2984C50.8502 43.359 49.3576 45.2061 47.3277 45.413C46.7791 45.4692 46.225 45.4099 45.7006 45.2391C45.1764 45.068 44.6938 44.7893 44.2837 44.4206C43.8738 44.0518 43.5455 43.6014 43.3203 43.0981C43.0949 42.5948 42.9773 42.05 42.9753 41.4987V40.7084C42.9742 40.0202 42.8289 39.3399 42.5491 38.7113C42.2693 38.0826 41.8611 37.5194 41.3506 37.0582C43.0735 37.9254 44.9754 38.3785 46.9044 38.3811C48.8334 38.3838 50.7364 37.936 52.4617 37.0736H52.4529Z" fill="#144432"/>
<path d="M52.4529 37.0736C51.9461 37.5333 51.5417 38.0945 51.2656 38.7208C50.9896 39.3469 50.848 40.0239 50.8502 40.7084V41.2984C50.8502 43.359 49.3576 45.2061 47.3277 45.413C46.7791 45.4692 46.225 45.4099 45.7006 45.2391C45.1764 45.068 44.6938 44.7893 44.2837 44.4206C43.8738 44.0518 43.5455 43.6014 43.3203 43.0981C43.0949 42.5948 42.9773 42.05 42.9753 41.4987V40.7084C42.9742 40.0202 42.8289 39.3399 42.5491 38.7113C42.2693 38.0826 41.8611 37.5194 41.3506 37.0582C43.0735 37.9254 44.9754 38.3785 46.9044 38.3811C48.8334 38.3838 50.7364 37.936 52.4617 37.0736H52.4529Z" stroke="#1F1C21" stroke-width="1.21" stroke-miterlimit="10"/>
<path d="M59.8038 25.2586C59.8104 28.4086 58.6586 31.4511 56.5676 33.8072C56.5414 33.8356 56.5172 33.8657 56.4949 33.8974C55.5661 34.9207 54.4812 35.7908 53.2807 36.4754C52.9824 36.6421 52.7048 36.8431 52.4529 37.0743C50.7276 37.9368 48.8246 38.3844 46.8956 38.3817C44.9666 38.3791 43.0649 37.926 41.3418 37.0588C41.0787 36.8301 40.7941 36.6273 40.492 36.4534C38.3656 35.2309 36.6312 33.4283 35.4917 31.2565C34.352 29.0845 33.8544 26.6331 34.057 24.1887C34.3251 20.8666 35.869 17.7776 38.3649 15.5691C40.861 13.3605 44.1151 12.2042 47.4449 12.3427C50.7747 12.481 53.9218 13.9034 56.2259 16.3112C58.53 18.7192 59.8122 21.9257 59.8038 25.2586Z" stroke="#1F1C21" stroke-width="1.21" stroke-miterlimit="10"/>
<path d="M43.2637 38.3818L40.3093 28.5894L39.5696 25.8154C39.5696 25.732 39.5971 25.651 39.6477 25.5847C39.6986 25.5187 39.7697 25.4711 39.8503 25.4496C39.9308 25.428 40.0163 25.4335 40.0933 25.4654C40.1704 25.4973 40.2347 25.5539 40.2763 25.6261C40.9367 26.7929 41.9802 28.2569 43.0194 28.2195C44.7432 28.1579 43.3276 22.9248 41.9186 23.473C40.5096 24.0212 43.2109 27.4798 45.9936 27.9113C48.7764 28.3428 48.0146 23.6646 45.9936 23.4796C43.9726 23.2947 45.3662 27.2354 48.9987 27.9113C52.6313 28.5872 51.9532 24.587 50.9691 23.7878C49.985 22.9887 50.291 27.6031 52.5718 28.3428C53.2939 28.5784 53.8685 28.0742 54.1503 27.4468C54.3132 27.0813 54.2296 25.232 53.8949 25.8022C53.2125 26.9713 53.0782 28.4309 52.7435 29.721C52.0324 32.4509 50.9449 35.0641 50.3218 37.8182" stroke="#1F1C21" stroke-width="1.21" stroke-miterlimit="10"/>
<path d="M23.8462 198.151C25.4049 197.42 169.147 198.151 169.147 198.151" stroke="#1F1C21" stroke-width="1.21" stroke-miterlimit="10"/>
<path d="M46.8985 7.76918L46.7708 0.0131928" stroke="#1F1C21" stroke-width="1.6148" stroke-miterlimit="10"/>
<path d="M32.1064 14.9836L26.7369 9.38518" stroke="#1F1C21" stroke-width="1.6148" stroke-miterlimit="10"/>
<path d="M61.7456 15.3315L67.234 9.84962" stroke="#1F1C21" stroke-width="1.6148" stroke-miterlimit="10"/>
<path d="M144.026 187.57L144.213 187.588C144.111 187.605 143.992 187.623 143.889 187.647H143.731L128.824 187.57H127.14L102.095 187.442C102.001 187.442 101.906 187.442 101.811 187.442C101.789 187.447 101.766 187.447 101.743 187.442C101.743 187.442 101.743 187.442 101.728 187.442C101.57 187.444 101.412 187.433 101.256 187.409C102.596 187.258 103.865 186.73 104.918 185.888C105.083 185.749 105.252 185.617 105.406 185.468L105.424 185.45C105.46 185.421 105.494 185.389 105.525 185.355C106.798 184.097 107.56 182.412 107.665 180.624C107.665 180.538 107.665 180.444 107.665 180.358V180.221C107.657 178.553 107.076 176.938 106.018 175.648C104.96 174.358 103.49 173.471 101.855 173.137C101.853 173.135 101.85 173.134 101.846 173.134C101.843 173.134 101.84 173.135 101.838 173.137C101.675 173.095 101.488 173.069 101.316 173.042L101.684 173.018C101.744 173.014 101.804 173.014 101.864 173.018C101.965 173.018 102.06 173.018 102.155 173.018L123.314 173.128L127.208 173.146L130.664 173.163H132.274H132.47C132.496 173.163 132.512 173.163 132.538 173.163C134.322 173.343 135.977 174.178 137.181 175.507C138.386 176.836 139.055 178.565 139.059 180.358C139.059 180.699 139.033 181.04 138.982 181.377C138.732 183.053 137.903 184.589 136.639 185.718C135.375 186.846 133.756 187.496 132.062 187.555C131.985 187.555 131.908 187.555 131.842 187.555H144.413C144.23 187.561 144.111 187.561 144.026 187.57Z" fill="white"/>
<path d="M110.362 196.32C110.837 196.798 111.403 197.177 112.025 197.435C112.648 197.694 113.316 197.826 113.99 197.825H101.71C99.3587 197.825 98.0818 197.253 97.1506 196.32C96.1885 195.357 95.6471 194.052 95.6447 192.692C95.6447 189.878 97.9541 187.566 101.71 187.566H113.99C112.975 187.565 111.983 187.864 111.138 188.427C110.294 188.991 109.636 189.792 109.247 190.729C108.859 191.666 108.757 192.698 108.956 193.694C109.154 194.689 109.644 195.603 110.362 196.32Z" fill="#EBF6F2"/>
<path d="M144.076 187.587C144.086 187.584 144.096 187.585 144.105 187.588C144.095 187.588 144.086 187.587 144.076 187.587C144.043 187.584 144.01 187.579 143.977 187.57H132.062C133.612 187.488 135.093 186.908 136.287 185.917C136.467 185.77 136.639 185.614 136.802 185.448C136.939 185.316 137.067 185.175 137.188 185.028C137.28 184.925 137.365 184.817 137.443 184.704C137.494 184.642 137.538 184.583 137.579 184.523C137.661 184.414 137.734 184.3 137.8 184.18C137.9 184.04 137.989 183.893 138.066 183.74C138.148 183.593 138.222 183.442 138.286 183.286C138.319 183.218 138.346 183.141 138.39 183.066C138.449 182.912 138.5 182.758 138.55 182.604C138.621 182.384 138.689 182.15 138.74 181.921C138.77 181.797 138.793 181.672 138.808 181.545C138.818 181.514 138.824 181.482 138.826 181.45C138.835 181.426 138.841 181.4 138.843 181.373C138.843 181.287 138.867 181.21 138.876 181.124V181.074C138.908 180.835 138.923 180.595 138.92 180.354C138.923 180.243 138.917 180.132 138.903 180.022V179.944C138.903 179.835 138.894 179.726 138.876 179.618C138.818 179.024 138.683 178.441 138.473 177.881C138.357 177.546 138.21 177.222 138.033 176.915C137.871 176.605 137.683 176.311 137.469 176.034C137.414 175.954 137.354 175.876 137.289 175.803C137.262 175.777 137.238 175.742 137.203 175.708C137.089 175.559 136.963 175.418 136.827 175.288C136.725 175.187 136.606 175.083 136.503 174.973C136.399 174.863 136.228 174.733 136.082 174.63C135.937 174.526 135.842 174.452 135.715 174.366C135.525 174.228 135.325 174.105 135.116 173.998C134.921 173.885 134.718 173.787 134.508 173.705C134.265 173.601 134.017 173.51 133.764 173.432C133.678 173.4 133.589 173.377 133.498 173.364C133.262 173.297 133.023 173.245 132.78 173.21C132.659 173.184 132.54 173.175 132.412 173.159H132.395C132.378 173.164 132.361 173.164 132.344 173.159H132.395H132.412C132.54 173.175 132.659 173.184 132.78 173.21C133.023 173.245 133.262 173.297 133.498 173.364C133.589 173.377 133.678 173.4 133.764 173.432C134.017 173.51 134.265 173.601 134.508 173.705C134.718 173.787 134.921 173.885 135.116 173.998C135.325 174.105 135.525 174.228 135.715 174.366C135.842 174.452 135.937 174.526 136.082 174.63C136.228 174.733 136.399 174.863 136.503 174.973C136.606 175.083 136.725 175.187 136.827 175.288C136.963 175.418 137.089 175.559 137.203 175.708C137.238 175.742 137.262 175.777 137.289 175.803C137.354 175.876 137.414 175.954 137.469 176.034C137.683 176.311 137.871 176.605 138.033 176.915C138.21 177.222 138.357 177.546 138.473 177.881C138.683 178.441 138.818 179.024 138.876 179.618C138.894 179.726 138.903 179.835 138.903 179.944V180.022C138.917 180.132 138.923 180.243 138.92 180.354C138.923 180.595 138.908 180.835 138.876 181.074V181.124C138.867 181.21 138.843 181.287 138.843 181.373C138.841 181.4 138.835 181.426 138.826 181.45C138.824 181.482 138.818 181.514 138.808 181.545C138.793 181.672 138.77 181.797 138.74 181.921C138.689 182.15 138.621 182.384 138.55 182.604C138.5 182.758 138.449 182.912 138.39 183.066C138.346 183.141 138.319 183.218 138.286 183.286C138.222 183.442 138.148 183.593 138.066 183.74C137.989 183.893 137.9 184.04 137.8 184.18C137.734 184.3 137.661 184.414 137.579 184.523C137.538 184.583 137.494 184.642 137.443 184.704C137.365 184.817 137.28 184.925 137.188 185.028C137.067 185.175 136.939 185.316 136.802 185.448C136.639 185.614 136.467 185.77 136.287 185.917C135.093 186.908 133.612 187.488 132.062 187.57H143.977C144.005 187.566 144.035 187.566 144.063 187.57H143.977C144.01 187.579 144.043 187.584 144.076 187.587Z" fill="#32A97C"/>
<path d="M150.956 180.462C150.956 180.598 150.956 180.744 150.938 180.88C150.921 181.111 150.897 181.334 150.861 181.556C150.844 181.675 150.819 181.796 150.793 181.915C150.742 182.135 150.683 182.377 150.615 182.6C150.538 182.845 150.446 183.085 150.34 183.32C150.305 183.411 150.263 183.5 150.212 183.584C150.212 183.61 150.194 183.628 150.177 183.652C150.126 183.764 150.067 183.872 150.007 183.978C149.912 184.149 149.809 184.319 149.699 184.482C149.569 184.68 149.424 184.858 149.278 185.039C149.131 185.218 148.973 185.389 148.807 185.552C148.633 185.729 148.448 185.895 148.252 186.049L148.032 186.228C147.782 186.417 147.518 186.588 147.244 186.741C147.116 186.809 146.98 186.879 146.844 186.948C146.831 186.957 146.815 186.962 146.799 186.963C146.645 187.04 146.491 187.102 146.337 187.161C146.183 187.221 146.029 187.28 145.868 187.331C145.705 187.375 145.542 187.425 145.379 187.461L145.245 187.485C145.117 187.513 144.99 187.538 144.86 187.557C144.63 187.597 144.397 187.624 144.164 187.639C144.022 187.654 143.88 187.66 143.737 187.657C143.737 187.657 143.711 187.657 143.702 187.657L128.82 187.584L125.313 187.566L101.937 187.447C101.851 187.446 101.765 187.44 101.679 187.43C101.483 187.43 101.294 187.412 101.098 187.397C102.792 187.195 104.36 186.405 105.532 185.165C106.703 183.925 107.402 182.314 107.507 180.612C107.507 180.526 107.507 180.431 107.507 180.336V180.244C107.509 178.567 106.93 176.94 105.87 175.641C104.809 174.342 103.332 173.449 101.688 173.115C101.516 173.08 101.344 173.056 101.166 173.03C101.337 173.01 101.508 172.999 101.679 172.997C101.739 172.992 101.8 172.992 101.86 172.997H102.005L125.381 173.115L130.664 173.142H132.393H132.538L143.766 173.201C144.134 173.203 144.502 173.231 144.867 173.287C145.797 173.44 146.689 173.771 147.493 174.262C147.596 174.322 147.689 174.39 147.784 174.45C148.069 174.645 148.34 174.86 148.596 175.092C148.682 175.169 148.759 175.246 148.845 175.332C149.497 175.993 150.02 176.771 150.386 177.624L150.516 177.959C150.559 178.067 150.596 178.178 150.626 178.291C150.845 178.994 150.957 179.726 150.956 180.462Z" stroke="#1F1C21" stroke-width="1.21" stroke-linecap="square" stroke-linejoin="round"/>
<path d="M138.909 180.332C138.911 180.572 138.899 180.813 138.874 181.052C138.874 181.069 138.874 181.085 138.874 181.102C138.856 181.215 138.841 181.322 138.823 181.428C138.822 181.46 138.816 181.492 138.806 181.523C138.791 181.65 138.768 181.775 138.737 181.899C138.687 182.119 138.619 182.359 138.548 182.582C138.498 182.736 138.447 182.89 138.387 183.044C138.343 183.121 138.317 183.198 138.284 183.264C138.219 183.42 138.146 183.571 138.064 183.718C137.987 183.871 137.898 184.018 137.797 184.158C137.732 184.278 137.659 184.392 137.577 184.501C137.535 184.561 137.491 184.62 137.441 184.682C137.363 184.795 137.277 184.903 137.185 185.006C137.065 185.153 136.936 185.294 136.8 185.426C136.636 185.588 136.464 185.742 136.285 185.886C135.094 186.882 133.613 187.467 132.062 187.555C131.985 187.555 131.908 187.555 131.842 187.555H101.97C101.697 187.555 101.415 187.54 101.131 187.513C101.315 187.491 101.498 187.46 101.679 187.418C101.693 187.424 101.709 187.424 101.723 187.418H101.739C103.127 187.129 104.4 186.44 105.402 185.437L105.42 185.419C106.694 184.132 107.439 182.413 107.507 180.603C107.507 180.517 107.507 180.422 107.507 180.327V180.319C107.493 178.554 106.837 176.855 105.663 175.538C104.488 174.221 102.874 173.378 101.122 173.164C101.311 173.139 101.499 173.131 101.688 173.122C101.736 173.113 101.785 173.113 101.833 173.122C101.836 173.12 101.839 173.118 101.842 173.118C101.845 173.118 101.848 173.12 101.851 173.122C101.887 173.117 101.924 173.117 101.961 173.122H131.677C131.884 173.122 132.08 173.122 132.278 173.148H132.346C132.363 173.153 132.381 173.153 132.397 173.148H132.432L132.782 173.199C133.025 173.234 133.264 173.286 133.5 173.353C133.586 173.371 133.681 173.395 133.766 173.421C134.019 173.499 134.268 173.59 134.511 173.694C134.715 173.78 134.922 173.883 135.118 173.987C135.325 174.097 135.525 174.22 135.717 174.355C135.845 174.44 135.966 174.524 136.085 174.619C136.204 174.713 136.366 174.839 136.505 174.962C136.644 175.086 136.725 175.182 136.829 175.277C136.959 175.416 137.086 175.552 137.205 175.698C137.24 175.731 137.265 175.766 137.291 175.792L137.472 176.023C137.678 176.305 137.866 176.599 138.035 176.904C138.201 177.217 138.348 177.54 138.476 177.87C138.678 178.432 138.813 179.015 138.878 179.607C138.878 179.72 138.896 179.828 138.905 179.933V180.01C138.909 180.109 138.909 180.222 138.909 180.332Z" stroke="#1F1C21" stroke-width="1.21" stroke-linecap="square" stroke-linejoin="round"/>
<path d="M144.402 197.821H101.706C100.754 197.846 99.8049 197.711 98.8986 197.42C98.718 197.352 98.5485 197.284 98.3856 197.2C98.2227 197.114 98.0774 197.028 97.9321 196.942C97.7868 196.856 97.6591 196.746 97.5292 196.643C97.4015 196.531 97.2826 196.423 97.1704 196.308C96.5843 195.723 96.15 195.003 95.9045 194.212C95.7486 193.72 95.6707 193.206 95.6733 192.689C95.6718 192.489 95.6834 192.289 95.7085 192.09C95.7409 191.811 95.8008 191.536 95.8869 191.269C96.006 190.846 96.1911 190.445 96.4351 190.08C96.5744 189.842 96.7406 189.62 96.9304 189.42C97.0471 189.29 97.1704 189.166 97.3003 189.05C98.3438 188.119 99.8584 187.544 101.732 187.544H144.402C144.23 187.544 144.111 187.544 144.026 187.544C143.997 187.54 143.968 187.54 143.94 187.544C143.854 187.544 143.871 187.544 143.913 187.544C143.916 187.546 143.919 187.547 143.922 187.547C143.925 187.547 143.928 187.546 143.931 187.544C143.95 187.548 143.971 187.548 143.99 187.544C144.008 187.544 144.017 187.544 144.034 187.544C143.94 187.562 143.845 187.57 143.75 187.595H143.731C143.731 187.595 143.704 187.595 143.695 187.595C142.528 187.827 141.478 188.455 140.721 189.374C139.965 190.292 139.549 191.444 139.545 192.634C139.552 193.889 140.015 195.098 140.848 196.037C141.681 196.975 142.827 197.579 144.072 197.735C143.863 197.814 143.667 197.821 144.402 197.821Z" stroke="#1F1C21" stroke-width="1.21" stroke-linecap="square" stroke-linejoin="round"/>
<path d="M144.059 197.796C143.863 197.813 143.667 197.82 143.469 197.82H113.983C113.311 197.82 112.645 197.686 112.024 197.428C111.403 197.17 110.839 196.791 110.364 196.314C109.778 195.729 109.344 195.01 109.098 194.218C108.946 193.725 108.872 193.211 108.878 192.695C108.881 191.336 109.421 190.032 110.381 189.07C111.342 188.108 112.644 187.566 114.003 187.561H143.469C143.614 187.561 143.768 187.561 143.909 187.579C143.934 187.583 143.96 187.583 143.986 187.579C144.004 187.579 144.012 187.579 144.03 187.579C143.935 187.596 143.841 187.605 143.746 187.629H143.731C143.731 187.629 143.704 187.629 143.695 187.629C142.529 187.861 141.478 188.49 140.721 189.408C139.965 190.327 139.55 191.479 139.545 192.669C139.552 193.923 140.015 195.133 140.848 196.071C141.681 197.01 142.827 197.614 144.072 197.769L144.059 197.796Z" stroke="#1F1C21" stroke-width="1.21" stroke-linecap="square" stroke-linejoin="round"/>
<path d="M108.858 192.695C108.858 194.054 109.398 195.358 110.359 196.319C111.321 197.28 112.624 197.82 113.983 197.82H101.706C99.3609 197.82 98.0774 197.248 97.144 196.314C96.6682 195.839 96.2911 195.275 96.0342 194.654C95.7773 194.033 95.6456 193.367 95.6469 192.695C95.6469 189.873 97.9497 187.561 101.706 187.561H113.983C112.624 187.566 111.322 188.108 110.362 189.07C109.401 190.032 108.861 191.336 108.858 192.695Z" stroke="#1F1C21" stroke-width="1.21" stroke-linecap="square" stroke-linejoin="round"/>
<path d="M144.402 197.821H143.469C143.667 197.821 143.863 197.821 144.059 197.797C143.863 197.814 143.667 197.821 144.402 197.821Z" stroke="#1F1C21" stroke-width="1.21" stroke-linecap="square" stroke-linejoin="round"/>
<path d="M143.99 187.583C143.821 187.583 143.64 187.557 143.469 187.557H144.402C143.75 187.561 143.827 187.583 143.99 187.583Z" stroke="#1F1C21" stroke-width="1.21" stroke-linecap="square" stroke-linejoin="round"/>
<path opacity="0.54" d="M16.0418 178.509L0.758813 139.357C0.56946 138.6 0.555237 137.809 0.717204 137.045C0.87917 136.281 1.21308 135.564 1.69354 134.949C2.17402 134.333 2.78842 133.836 3.4901 133.493C4.19179 133.151 4.96228 132.973 5.74308 132.973H66.4569C67.8198 132.972 69.1432 133.431 70.214 134.274C71.2846 135.118 72.0404 136.297 72.3592 137.622L89.0908 176.77C89.2722 177.525 89.2799 178.312 89.1135 179.071C88.947 179.83 88.6104 180.541 88.1294 181.151C87.6483 181.761 87.0352 182.254 86.3362 182.593C85.637 182.932 84.8702 183.108 84.0933 183.108H21.9265C20.5732 183.108 19.2587 182.655 18.1923 181.822C17.1261 180.988 16.369 179.822 16.0418 178.509Z" fill="white"/>
<path d="M16.0418 178.509L0.758813 139.357C0.56946 138.6 0.555237 137.809 0.717204 137.045C0.87917 136.281 1.21308 135.564 1.69354 134.949C2.17402 134.333 2.78842 133.836 3.4901 133.493C4.19179 133.151 4.96228 132.973 5.74308 132.973H66.4569C67.8198 132.972 69.1432 133.431 70.214 134.274C71.2846 135.118 72.0404 136.297 72.3592 137.622L89.0908 176.77C89.2722 177.525 89.2799 178.312 89.1135 179.071C88.947 179.83 88.6104 180.541 88.1294 181.151C87.6483 181.761 87.0352 182.254 86.3362 182.593C85.637 182.932 84.8702 183.108 84.0933 183.108H21.9265C20.5732 183.108 19.2587 182.655 18.1923 181.822C17.1261 180.988 16.369 179.822 16.0418 178.509Z" fill="#32A97C"/>
<path d="M16.0418 178.509L0.758813 139.357C0.56946 138.6 0.555237 137.809 0.717204 137.045C0.87917 136.281 1.21308 135.564 1.69354 134.949C2.17402 134.333 2.78842 133.836 3.4901 133.493C4.19179 133.151 4.96228 132.973 5.74308 132.973H66.4569C67.8198 132.972 69.1432 133.431 70.214 134.274C71.2846 135.118 72.0404 136.297 72.3592 137.622L89.0908 176.77C89.2722 177.525 89.2799 178.312 89.1135 179.071C88.947 179.83 88.6104 180.541 88.1294 181.151C87.6483 181.761 87.0352 182.254 86.3362 182.593C85.637 182.932 84.8702 183.108 84.0933 183.108H21.9265C20.5732 183.108 19.2587 182.655 18.1923 181.822C17.1261 180.988 16.369 179.822 16.0418 178.509Z" stroke="#1F1C21" stroke-width="1.21" stroke-linecap="square" stroke-linejoin="round"/>
<path d="M18.2742 176.924L4.18439 140.803C4.0095 140.105 3.996 139.376 4.14496 138.671C4.29389 137.967 4.60138 137.306 5.04402 136.738C5.48668 136.17 6.05289 135.71 6.69966 135.394C7.34642 135.078 8.05679 134.913 8.77678 134.912H64.7793C66.0368 134.912 67.2575 135.335 68.2451 136.114C69.2325 136.892 69.9295 137.98 70.2237 139.203L85.6586 175.308C85.8259 176.005 85.8332 176.731 85.6797 177.431C85.5261 178.131 85.2159 178.787 84.772 179.35C84.3284 179.913 83.7628 180.368 83.1178 180.681C82.473 180.994 81.7654 181.157 81.0486 181.157H23.7076C22.4597 181.158 21.2473 180.741 20.263 179.975C19.2787 179.207 18.5789 178.134 18.2742 176.924Z" fill="#32A97C"/>
<path d="M20.8852 142.195H12.7725C12.3994 142.196 12.0339 142.089 11.7211 141.885C11.408 141.682 11.1615 141.392 11.0113 141.05C10.9651 140.945 10.9404 140.832 10.9387 140.717C10.9411 140.496 11.0302 140.285 11.1872 140.129C11.3444 139.974 11.5564 139.886 11.7774 139.885H20.4052C20.0046 140.57 20.2247 141.521 20.8852 142.195Z" fill="#EBF6F2"/>
<path d="M26.138 141.363C26.1369 141.583 26.0484 141.794 25.8923 141.951C25.736 142.106 25.5245 142.194 25.3037 142.195H20.8852C20.2115 141.521 20.0046 140.57 20.4119 139.885H24.3086C24.6811 139.883 25.0461 139.99 25.3587 140.192C25.6715 140.394 25.9188 140.683 26.0698 141.023C26.1154 141.131 26.1385 141.246 26.138 141.363Z" fill="#32A97C"/>
<path d="M24.1082 142.194C24.0844 142.238 24.058 142.281 24.029 142.322C23.4478 143.112 22.1929 143.187 21.2176 142.474C21.1009 142.39 20.9911 142.296 20.8896 142.194C20.2159 141.521 20.009 140.569 20.4162 139.885C20.4383 139.84 20.4649 139.797 20.4955 139.757C21.0701 138.962 22.325 138.894 23.3003 139.601C23.4187 139.686 23.5301 139.781 23.6327 139.885C24.3019 140.561 24.5089 141.503 24.1082 142.194Z" fill="white"/>
<path d="M28.1788 146.457C28.1771 146.678 28.0879 146.89 27.931 147.046C27.7738 147.201 27.5613 147.289 27.3401 147.289H18.8223C19.234 146.598 19.0293 145.656 18.3534 144.98H26.3538C26.7269 144.978 27.0924 145.086 27.4052 145.289C27.7183 145.492 27.9649 145.783 28.115 146.124C28.1581 146.23 28.1799 146.343 28.1788 146.457Z" fill="#32A97C"/>
<path d="M18.8223 147.296H14.8156C14.4431 147.298 14.0781 147.191 13.7654 146.989C13.4526 146.787 13.2054 146.498 13.0543 146.158C13.0081 146.051 12.9835 145.937 12.9817 145.821C12.981 145.711 13.0022 145.603 13.0438 145.501C13.0854 145.4 13.1466 145.308 13.2241 145.23C13.3014 145.153 13.3934 145.091 13.4944 145.049C13.5957 145.008 13.7042 144.986 13.8139 144.986H18.3534C19.0293 145.656 19.234 146.598 18.8223 147.296Z" fill="#EBF6F2"/>
<path d="M18.8224 147.296C18.8041 147.341 18.7796 147.384 18.7497 147.423C18.1751 148.22 16.918 148.289 15.9428 147.582C15.8221 147.495 15.7081 147.399 15.6015 147.296C14.9411 146.622 14.7209 145.678 15.1282 144.986C15.1498 144.942 15.1764 144.9 15.2074 144.861C15.7864 144.068 17.0413 143.996 18.0188 144.707C18.1344 144.792 18.2434 144.885 18.3446 144.986C19.0293 145.656 19.234 146.598 18.8224 147.296Z" fill="white"/>
<path d="M21.6601 152.359H16.5614C16.1889 152.36 15.8241 152.253 15.5115 152.05C15.1989 151.848 14.9516 151.559 14.8002 151.219C14.7539 151.114 14.7293 151.001 14.7275 150.886C14.7282 150.664 14.8167 150.451 14.9739 150.294C15.1311 150.137 15.3439 150.048 15.5663 150.047H21.1758C20.7839 150.728 20.9909 151.672 21.6601 152.359Z" fill="#32A97C"/>
<path d="M29.9247 151.52C29.9236 151.74 29.8351 151.951 29.6785 152.106C29.5222 152.262 29.3107 152.348 29.0903 152.348H21.6601C20.9997 151.672 20.7795 150.727 21.1846 150.036H28.0996C28.471 150.036 28.8345 150.144 29.1455 150.347C29.4564 150.551 29.7012 150.841 29.8498 151.181C29.8976 151.288 29.9231 151.403 29.9247 151.52Z" fill="#EBF6F2"/>
<path d="M24.8766 152.359C24.855 152.404 24.8284 152.446 24.7973 152.484C24.2227 153.281 22.9678 153.35 21.9926 152.643C21.8754 152.556 21.7645 152.461 21.6601 152.359C20.9997 151.683 20.7795 150.739 21.1846 150.047C21.2077 150.003 21.2344 149.962 21.2639 149.922C21.8451 149.131 23.0999 149.061 24.0752 149.768C24.191 149.853 24.3006 149.946 24.4032 150.047C25.0681 150.712 25.2882 151.661 24.8766 152.359Z" fill="white"/>
<path d="M54.628 176.21H49.5271C49.1546 176.212 48.7898 176.104 48.4772 175.902C48.1644 175.699 47.9173 175.41 47.7659 175.07C47.7179 174.966 47.6924 174.852 47.691 174.738C47.6917 174.515 47.7802 174.302 47.9374 174.145C48.0946 173.988 48.3075 173.899 48.5298 173.899H54.1415C53.7518 174.595 53.9588 175.535 54.628 176.21Z" fill="#32A97C"/>
<path d="M74.8711 175.383C74.8709 175.492 74.8491 175.6 74.807 175.7C74.7652 175.801 74.7038 175.892 74.6265 175.969C74.5492 176.046 74.4574 176.107 74.3566 176.148C74.256 176.19 74.1479 176.211 74.0389 176.21H54.628C53.9676 175.535 53.7474 174.59 54.1525 173.899H73.046C73.4174 173.899 73.7809 174.007 74.092 174.21C74.4028 174.414 74.6477 174.703 74.7963 175.044C74.844 175.15 74.8696 175.266 74.8711 175.383Z" fill="#EBF6F2"/>
<path d="M57.8445 176.21C57.8229 176.255 57.7963 176.297 57.7652 176.336C57.1906 177.133 55.9357 177.201 54.9605 176.494C54.8429 176.408 54.732 176.313 54.628 176.21C53.9676 175.535 53.7474 174.59 54.1525 173.899C54.1756 173.855 54.2023 173.813 54.2318 173.773C54.813 172.983 56.0678 172.913 57.0431 173.619C57.1589 173.705 57.2686 173.798 57.3711 173.899C58.0448 174.575 58.2518 175.524 57.8445 176.21Z" fill="white"/>
</svg>
