<svg width="40" height="40" viewBox="0 0 40 40" fill="none" xmlns="http://www.w3.org/2000/svg">
<g clip-path="url(#clip0_0_264)">
<path d="M36.6667 19.9999C36.6667 10.7999 29.2 3.33325 20 3.33325C10.8 3.33325 3.33334 10.7999 3.33334 19.9999C3.33334 29.1999 10.8 36.6666 20 36.6666C29.2 36.6666 36.6667 29.1999 36.6667 19.9999ZM25 10.8333L30.25 16.0833C30.5833 16.4166 30.5833 16.9333 30.25 17.2666L25 22.4999V18.3333H18.3333V14.9999H25V10.8333ZM15 29.1666L9.75001 23.9166C9.41668 23.5833 9.41668 23.0666 9.75001 22.7333L15 17.4999V21.6666H21.6667V24.9999H15V29.1666Z" fill="#288763"/>
</g>
<defs>
<clipPath id="clip0_0_264">
<rect width="40" height="40" fill="white"/>
</clipPath>
</defs>
</svg>
