<svg width="24" height="24" viewBox="0 0 24 24" fill="none" xmlns="http://www.w3.org/2000/svg">
<path d="M21.828 10.5L7.19203 10.5C3.65379 10.5 0.619064 13.246 0.503559 16.7823C0.380119 20.5615 3.48389 23.6474 7.26931 23.4946C9.71679 23.3957 11.8711 21.8294 12.9054 19.609C13.5924 18.1342 13.6162 16.7554 13.3191 15.5H20.628C20.8488 15.5 21.0434 15.3552 21.1069 15.1437L22.3069 11.1437C22.4031 10.8229 22.1629 10.5 21.828 10.5Z" fill="#F9DFDF"/>
<path d="M12 4.5C11.7239 4.5 11.5 4.27612 11.5 4V1C11.5 0.723875 11.7239 0.5 12 0.5C12.2761 0.5 12.5 0.723875 12.5 1V4C12.5 4.27612 12.2761 4.5 12 4.5Z" fill="#E16161"/>
<path d="M16.9497 6.55029C16.8218 6.55029 16.6938 6.50146 16.5962 6.40381C16.4009 6.2085 16.4009 5.89209 16.5962 5.69678L18.7175 3.57544C18.9128 3.38013 19.2293 3.38013 19.4246 3.57544C19.6199 3.77075 19.6199 4.08716 19.4246 4.28247L17.3032 6.40381C17.2056 6.50146 17.0776 6.55029 16.9497 6.55029Z" fill="#E16161"/>
<path d="M7.05029 6.55029C6.92236 6.55029 6.79443 6.50146 6.69678 6.40381L4.57544 4.28247C4.38013 4.08716 4.38013 3.77075 4.57544 3.57544C4.77075 3.38013 5.08716 3.38013 5.28247 3.57544L7.40381 5.69678C7.59912 5.89209 7.59912 6.2085 7.40381 6.40381C7.30615 6.50146 7.17822 6.55029 7.05029 6.55029Z" fill="#E16161"/>
<path d="M7 20C5.34571 20 4 18.6543 4 17C4 15.3457 5.34571 14 7 14C8.65429 14 10 15.3457 10 17C10 18.6543 8.65429 20 7 20Z" fill="#E16161"/>
</svg>
